<svg height="466pt" viewBox="-15 0 466 466.59142" width="466pt" xmlns="http://www.w3.org/2000/svg"><path d="m318.886719 348.179688c-13.925781 13.921874-13.925781 36.496093 0 50.417968l4.460937 4.46875c2.734375 2.734375 7.167969 2.734375 9.902344 0l40.523438-40.523437c1.3125-1.3125 2.050781-3.09375 2.050781-4.949219s-.738281-3.636719-2.050781-4.949219l-4.46875-4.46875c-13.933594-13.902343-36.488282-13.898437-50.417969.003907zm9.417969 40.03125c-7.988282-8.527344-7.769532-21.855469.492187-30.121094 8.265625-8.261719 21.59375-8.476563 30.121094-.488282zm33.25-132.398438c-8.015626-7.996094-20.988282-7.996094-29 0l-.800782.800781-254.621094-254.640625c-2.777343-2.628906-7.121093-2.628906-9.898437 0l-64.890625 64.890625c-1.898438 1.898438-2.542969 4.71875-1.65625 7.257813.886719 2.535156 3.144531 4.339844 5.8125 4.644531l18.441406 2.109375-2.109375 18.441406c-.4375 3.839844 2.320313 7.3125 6.160157 7.75l18.441406 2.109375-2.109375 18.441407c-.4375 3.839843 2.320312 7.3125 6.160156 7.75l18.441406 2.109374-2.109375 18.4375c-.4375 3.84375 2.320313 7.316407 6.160156 7.753907l18.445313 2.109375-2.109375 18.4375c-.441406 3.84375 2.320312 7.3125 6.160156 7.753906l18.441406 2.105469-2.113281 18.445312c-.441406 3.84375 2.320313 7.3125 6.160157 7.75l18.441406 2.109375-2.109375 18.441406c-.441407 3.839844 2.316406 7.3125 6.160156 7.75l18.441406 2.109376-2.109375 18.441406c-.207031 1.84375.324219 3.699218 1.484375 5.152344 1.15625 1.449218 2.84375 2.382812 4.691407 2.589843l18.441406 2.109375-2.109375 18.441406c-.441407 3.84375 2.316406 7.316407 6.160156 7.753907l18.445313 2.109375-2.097657 18.4375c-.441406 3.84375 2.320313 7.3125 6.160157 7.753906l18.441406 2.105469-2.109375 18.441406c-.273438 2.441406.757812 4.851563 2.714843 6.335937l-1.5 1.5c-7.992187 8.015626-7.992187 20.984376 0 29 6 6.03125 15.121094 7.691407 22.863282 4.160157l65.476562 65.484375c8.007813 7.988281 20.921875 8.144531 29.117188.351562 8.199218-7.792968 8.695312-20.695312 1.125-29.097656l57.371094-57.371094c8.402343 7.574219 21.304687 7.074219 29.097656-1.121094 7.792968-8.199218 7.636718-21.113281-.351563-29.117187l-65.476562-65.46875c3.527343-7.746094 1.859375-16.871094-4.175781-22.871094zm-125.617188 66.652344-18.441406-2.109375 2.109375-18.441407c.4375-3.839843-2.320313-7.308593-6.160157-7.746093l-18.449218-2.105469 2.109375-18.441406c.4375-3.84375-2.320313-7.3125-6.160157-7.75l-18.441406-2.109375 2.109375-18.4375c.4375-3.839844-2.320312-7.308594-6.160156-7.75l-18.441406-2.105469 2.109375-18.441406c.214844-1.847656-.3125-3.703125-1.46875-5.160156-1.160156-1.457032-2.847656-2.394532-4.695313-2.605469l-18.441406-2.105469 2.109375-18.445312c.4375-3.839844-2.320312-7.308594-6.160156-7.746094l-18.4375-2.109375 2.105468-18.441407c.4375-3.839843-2.320312-7.308593-6.160156-7.746093l-18.441406-2.109375 2.105469-18.4375c.4375-3.84375-2.320313-7.3125-6.160157-7.75l-18.4375-2.109375 2.105469-18.4375c.4375-3.839844-2.320312-7.308594-6.160156-7.75l-18.4375-2.105469 2.105469-18.441406c.4375-3.839844-2.320313-7.308594-6.160156-7.746094l-10.984376-1.257812 49.675782-49.699219 249.675781 249.671875-9.648437 9.648437-53.203126-53.199219-9.898437 9.898438 53.199219 53.199219-62.28125 62.28125 2.066406-18.117188c.433594-3.835937-2.320312-7.300781-6.15625-7.742187zm.464844 58.488281c-2.535156-2.542969-2.535156-6.660156 0-9.203125l10.832031-10.828125 89.476563-89.476563 5.742187-5.746093c2.539063-2.539063 6.660156-2.539063 9.199219 0 2.542968 2.539062 2.542968 6.660156 0 9.199219l-106.050782 106.050781c-2.542968 2.535156-6.65625 2.535156-9.199218 0zm184.898437-17.203125c-2.714843 2.597656-6.996093 2.597656-9.710937 0l-31.230469-31.230469-9.902344 9.898438 22.085938 22.085937-62.289063 62.277344c-1.3125 1.308594-2.050781 3.089844-2.050781 4.949219 0 1.855469.738281 3.636719 2.050781 4.949219l4.199219 4.199218c2.625 2.691406 2.59375 6.992188-.0625 9.648438-2.65625 2.660156-6.957031 2.6875-9.648437.0625l-64.492188-64.492188 96.550781-96.554687 64.496094 64.492187c2.679687 2.683594 2.679687 7.027344.003906 9.710938zm-347.808593-328.324219c-8.417969.003907-15.785157 5.660157-17.964844 13.792969-2.175782 8.132812 1.378906 16.710938 8.667968 20.921875 7.289063 4.210937 16.5 3 22.453126-2.949219 5.320312-5.320312 6.914062-13.324218 4.03125-20.277344-2.878907-6.953124-9.664063-11.488281-17.191407-11.488281zm3.257812 21.867188c-1.320312 1.3125-3.296875 1.707031-5.019531.996093-1.71875-.714843-2.84375-2.390624-2.84375-4.253906 0-1.863281 1.125-3.539062 2.84375-4.253906 1.722656-.710938 3.699219-.316406 5.019531 1 1.792969 1.800781 1.792969 4.710938 0 6.511719zm0 0"/></svg>