<svg height="443pt" viewBox="0 -44 443.468 443" width="443pt" xmlns="http://www.w3.org/2000/svg"><path d="m228.726562 151.425781h-14v-34.496093h14zm-165.296874 104.507813h-63.429688v-14h63.539062v-14.652344h-7.878906c-20.933594-.019531-37.902344-16.980469-37.933594-37.914062v-42.847657h14v42.847657c.015626 13.207031 10.71875 23.910156 23.925782 23.925781h7.878906v-106.800781h-12.445312c-26.625-.027344-48.203126-21.601563-48.230469-48.226563v-51.03125h14v51.03125c.019531 18.894531 15.332031 34.207031 34.230469 34.226563h12.453124v-85.257813c0-3.867187 3.136719-7 7-7h49.410157c3.863281 0 7 3.132813 7 7v132.285156h11.128906c18.082031-.03125 33.027344-14.113281 34.125-32.160156-18.71875-.363281-33.710937-15.628906-33.734375-34.347656v-12.921875h14v12.921875c.019531 11.027343 8.816406 20.035156 19.839844 20.324219v-39.074219h14v51.03125c-.03125 26.625-21.605469 48.195312-48.230469 48.226562h-11.148437v50.109375c7.914062-7.21875 19.09375-9.644531 29.289062-6.351562 6.957031-9.457032 17.980469-15.0625 29.722656-15.105469 3.390625.007813 6.765625.488281 10.023438 1.425781.132812-2.722656.222656-5.535156.222656-8.523437v-167.839844c0-3.867187 3.132812-7 7-7h37.039062c3.867188 0 7 3.132813 7 7v54.261719c10-1.429688 17.433594-9.980469 17.460938-20.082032v-12.921874h14v12.921874c-.019531 17.835938-13.667969 32.695313-31.441406 34.230469v99.429688c0 57.828125 26.320312 65.847656 31.488281 66.859375h37.792969v-46.527344h-11.152344c-26.621094-.027344-48.195312-21.601562-48.226562-48.222656v-51.019532h14v39.078126c11.023437-.289063 19.816406-9.296876 19.839843-20.324219v-12.921875h14v12.921875c-.023437 18.722656-15.019531 33.988281-33.734375 34.347656 1.097656 18.050781 16.039063 32.132813 34.121094 32.160156h11.152344v-174.191406c0-3.867187 3.132812-7 7-7h49.402344c3.863281 0 7 3.132813 7 7v85.257813h12.453124c18.898438-.019532 34.210938-15.332032 34.230469-34.226563v-51.03125h14v51.03125c-.03125 26.625-21.605469 48.199219-48.230469 48.226563h-12.453124v114.253906h7.878906c13.207031-.015625 23.90625-10.71875 23.921875-23.925782v-22.691406h13.996093v22.6875c-.023437 20.9375-16.988281 37.902344-37.921874 37.925782h-7.878907v7.199218h63.539063v14h-63.433594c2.296875 77.722656 42.027344 84.195313 45.035156 84.566406h18.402344v14h-443.46875v-14h18.378906c3.140625-.375 42.765625-6.574218 45.050782-84.574218zm63.632812 0c1.535156 51.789062 19.675781 71.953125 32.511719 79.738281-4.382813-10.804687-2.109375-23.171875 5.828125-31.710937 7.9375-8.539063 20.105468-11.703126 31.199218-8.117188 6.953126-9.460938 17.976563-15.0625 29.71875-15.109375 11.9375-.027344 23.140626 5.757813 30.035157 15.503906.976562-.097656 1.957031-.148437 2.9375-.148437 9.195312-.019532 17.863281 4.304687 23.378906 11.660156 5.519531 7.359375 7.238281 16.890625 4.644531 25.710938 12.429688-9.121094 27.695313-30 29.085938-77.527344h-36.128906c-.398438.074218-.800782.113281-1.203126.117187h-114.695312c-.402344-.003906-.804688-.042969-1.199219-.117187h-36.117187zm132.226562 84.5625c5.960938 0 11.371094-3.484375 13.835938-8.910156 2.464844-5.429688 1.527344-11.796876-2.390625-16.285157-3.921875-4.492187-10.105469-6.273437-15.8125-4.5625-3.238281.972657-6.707031-.507812-8.246094-3.515625-3.945312-7.761718-11.960937-12.605468-20.667969-12.484375-8.707031.117188-16.585937 5.175781-20.320312 13.042969-.851562 1.785156-2.421875 3.125-4.320312 3.691406-1.894532.5625-3.941407.296875-5.632813-.730468-5.800781-3.519532-13.191406-3.003907-18.449219 1.285156-5.261718 4.289062-7.253906 11.421875-4.976562 17.8125 2.28125 6.394531 8.332031 10.660156 15.121094 10.65625zm71.238282-91.683594c0 51.765625-14.941406 78.199219-29.710938 91.679688h63.515625c-9.179687-13.644532-19.480469-40.378907-19.480469-91.679688h14c0 68.894531 19.417969 88.035156 24.171876 91.679688h12.601562c-14.765625-13.480469-29.714844-39.914063-29.714844-91.679688v-234.578125h-14.25v66h-14v-66h-7.132812zm-120.320313-73.738281c0 35.722656-9.433593 55.691406-19.707031 66.859375h62.453125c-10.269531-11.167969-19.710937-31.136719-19.710937-66.859375v-160.839844h-23.035157zm-79.199219 50.800781c.007813 8.859375 7.191407 16.042969 16.050782 16.050781h17.550781c5.082031-1.011719 24.179687-7.246093 29.941406-44.058593-2.726562-1.125-5.652343-1.703126-8.601562-1.707032-8.804688.046875-16.8125 5.113282-20.621094 13.054688-.855469 1.785156-2.421875 3.125-4.320313 3.6875-1.894531.5625-3.941406.300781-5.632812-.726563-4.945312-3.035156-11.148438-3.148437-16.207031-.304687-5.054688 2.847656-8.175781 8.207031-8.152344 14.011718zm-83.199218 114.613281h12.644531c4.480469-3.425781 24.125-22.378906 24.125-91.679687h14c0 51.304687-10.296875 78.035156-19.476563 91.679687h63.554688c-14.765625-13.472656-29.726562-39.921875-29.726562-91.675781v-234.578125h-7.132813v66h-14v-66h-14.257813v234.578125c0 51.753906-14.941406 78.203125-29.710937 91.683594zm57.988281-244.207031h-14v46h14zm245.867187 0h-14v46h14zm0 0"/></svg>