<svg height="512" viewBox="0 0 60 61" width="512" xmlns="http://www.w3.org/2000/svg"><g id="Page-1" fill="none" fill-rule="evenodd"><g id="006---Caterpillar" fill-rule="nonzero" transform="translate(-1 -1)"><path id="Shape" d="m34 10.5c-.0496981 1.8391777-1.213995 3.462857-2.94 4.1-.6539039.2667558-1.3537833.4026547-2.06.4-1.0696362.0113391-2.1169149-.3063355-3-.91-1.2176373-.7751224-1.9679559-2.1069378-2-3.55v-.04c.1442068-2.62041981 2.3789199-4.63166157 5-4.5 2.6210801-.13166157 4.8557932 1.87958019 5 4.5z" fill="#ffdc00"/><path id="Shape" d="m29 6c-.5082525.00576503-1.0131795.08285054-1.5.229 1.9930691.47668991 3.4242331 2.22311889 3.5 4.271-.0496981 1.8391777-1.213995 3.462857-2.94 4.1-.1963447.0712964-.3966858.1310648-.6.179.5002455.1463705 1.0187804.2207836 1.54.221.7062167.0026547 1.4060961-.1332442 2.06-.4 1.726005-.637143 2.8903019-2.2608223 2.94-4.1-.1442068-2.62041981-2.3789199-4.63166157-5-4.5z" fill="#fec108"/><path id="Shape" d="m26 14.09c-.009736.4197308-.0874089.835112-.23 1.23-.3944784 1.1476998-1.2939232 2.0508308-2.44 2.45-.4266642.1531263-.876691.2309505-1.33.23-.4256667.0027029-.848585-.0683474-1.25-.21-.2618493-.0808169-.5135103-.1915477-.75-.33-1.1301005-.6443561-1.8705949-1.8037159-1.98-3.1v-.01c-.01-.12-.02-.23-.02-.35-.0022588-1.4299033.7600686-2.751921 1.9987692-3.4662384 1.2387006-.71431734 2.7647636-.71193803 4.0012308.0062384.0320441 1.4430622.7823627 2.7748776 2 3.55z" fill="#ff9801"/><path id="Shape" d="m20 17.46v.04c.0007937.3073296-.0395649.6133819-.12.91l-.01.01c-.2273543.841015-.7628319 1.5656946-1.5 2.03-.3880965.2522281-.8236956.422384-1.28.5-.1950708.0319547-.3923337.0486719-.59.05-.2351968.0024636-.4699484-.0210115-.7-.07-1.0655889-.2171666-1.9683279-.9201191-2.44-1.9-.2373997-.4750464-.3606683-.9989376-.36-1.53.0009328-1.2035744.6202103-2.3222411 1.6396971-2.9619589s2.2961528-.7107368 3.3803029-.1880411v.01c.1094051 1.2962841.8498995 2.4556439 1.98 3.1z" fill="#ffdc00"/><path id="Shape" d="m16 22c.003304.1004159-.0033957.2009113-.02.3v.01c-.070137.6991708-.3854104 1.350972-.89 1.84-.1620896.1616214-.3434526.3026815-.54.42-.2399867.1430527-.4993113.250824-.77.32-.25374.0721934-.5161909.1092057-.78.11-1.2283451.0055055-2.3333369-.7457299-2.78-1.89-.1447641-.3521894-.2194908-.7292196-.22-1.11 0-1.6568542 1.3431458-3 3-3 .1206222.0000506.2410332.0100848.36.03.4716721.9798809 1.3744111 1.6828334 2.44 1.9.1334217.3408986.2012769.7039241.2 1.07z" fill="#ff9801"/><path id="Shape" d="m14 26c-.0021764.6055046-.1830709 1.1968903-.52 1.7-.1351352.1916433-.2929472.3662438-.47.52-.223163.2037802-.4760632.3723804-.75.5-.9285518.429732-2.0120913.3565902-2.87446636-.1940343-.8623751-.5506245-1.38465651-1.5027955-1.38553364-2.5259657-.00213069-1.3556876.90958733-2.5425637 2.22-2.89.4466631 1.1442701 1.5516549 1.8955055 2.78 1.89.2638091-.0007943.52626-.0378066.78-.11.1120569.253222.1797105.5238361.2.8.01.1.02.21.02.31z" fill="#ffdc00"/><path id="Shape" d="m13 30.5c-.0006201.4791196-.1395116.9478784-.4 1.35-.1227791.2010282-.2782482.3801556-.46.53v.01c-.4541575.3962374-1.037295.6131361-1.64.61-1.11435188-.002221-2.09269063-.7417141-2.39882725-1.8131922-.30613661-1.0714782.13385276-2.2162079 1.07882725-2.8068078.8823021.6803916 2.0705344.8115601 3.08.34.1716893.1767046.319603.3750435.44.59.1973195.3655795.300426.7745687.3 1.19z" fill="#ff9801"/><path id="Shape" d="m48.15 49.81c-8.3335665 8.2499038-21.7564335 8.2499038-30.09 0-1.0026327-1.000252-1.8975331-2.1029569-2.67-3.29 1.148946-.8198623 2.378667-1.5201666 3.67-2.09.9549604-.427599 1.9370936-.7917232 2.94-1.09 1.11-.35 2.22-.69 3.33-1.06 4.5919694-1.3803823 8.9803188-3.364387 13.05-5.9 2.0335998-1.3638872 3.9114919-2.946682 5.6-4.72 1.6387795-1.7194204 3.1684313-3.5396392 4.58-5.45.638158-.8601414.4740034-2.0722513-.3699472-2.7316725s-2.059779-.5255617-2.7400528.3016725l-.01.01c-2.6185087 3.4770354-5.8190815 6.474612-9.46 8.86-3.8034556 2.1712176-7.8793447 3.8257865-12.12 4.92-1.07.33-2.17.61-3.25.91-1.2036271.3215538-2.3887359.7088006-3.55 1.16-1.3864989.5474256-2.7217273 1.216713-3.99 2-.9593608-2.9831407-1.2763094-6.1355865-.93-9.25v-.01c.1817518-.1498444.3372209-.3289718.46-.53.494898-.7648059.5332384-1.7386533.1-2.54-.120397-.2149565-.2683107-.4132954-.44-.59.2739368-.1276196.526837-.2962198.75-.5.1770528-.1537562.3348648-.3283567.47-.52.3369291-.5031097.5178236-1.0944954.52-1.7 0-.1-.01-.21-.02-.31-.0202895-.2761639-.0879431-.546778-.2-.8.2706887-.069176.5300133-.1769473.77-.32.1965474-.1173185.3779104-.2583786.54-.42.5045896-.489028.819863-1.1408292.89-1.84v-.01c.0166043-.0990887.023304-.1995841.02-.3.0012769-.3660759-.0665783-.7291014-.2-1.07.2300516.0489885.4648032.0724636.7.07.1976663-.0013281.3949292-.0180453.59-.05.4563044-.077616.8919035-.2477719 1.28-.5.7371681-.4643054 1.2726457-1.188985 1.5-2.03l.01-.01c.0804351-.2966181.1207937-.6026704.12-.91v-.04c.2364897.1384523.4881507.2491831.75.33.401415.1416526.8243333.2127029 1.25.21.453309.0009505.9033358-.0768737 1.33-.23 1.1460768-.3991692 2.0455216-1.3023002 2.44-2.45.1425911-.394888.220264-.8102692.23-1.23.8830851.6036645 1.9303638.9213391 3 .91.7062167.0026547 1.4060961-.1332442 2.06-.4.2805435 1.3997848 1.5123889 2.4053729 2.94 2.4.3486841-.0012169.6942637-.0655895 1.02-.19-.0116027.0627161-.0182897.1262426-.02.19 0 1.1045695.8954305 2 2 2s2-.8954305 2-2c1.0930891-.0010619 2.0981738-.5995094 2.62-1.56.3683409.3610595.8642154.5622839 1.38.56.7306946-.001216 1.4025678-.4008185 1.7524629-1.042293.3498951-.6414744.3221137-1.4227067-.0724629-2.037707 1.3578836-.3160117 2.319109-1.5258299 2.32-2.92-.0001552-.29886596-.0474012-.59584098-.14-.88 3.7655666-1.85772937 7.2390287-4.2564733 10.31-7.12 0 0 10.53 28.39-9.02 47.81z" fill="#a4c400"/><path id="Shape" d="m57.17 2s-.854.843-2.354 2.042c1.958 6.837 6.75 29.458-9.666 45.768-3.6310705 3.6034269-8.4407678 5.7751588-13.545 6.116 6.1397954.4487908 12.1733633-1.7815688 16.545-6.116 19.55-19.42 9.02-47.81 9.02-47.81z" fill="#90ac00"/><g fill="#60a917"><path id="Shape" d="m35.045 50.521c-7.683 0-11.753-3.991-13.626-6.691-.20382-.2934937-.2355805-.6734297-.0833175-.9966899.152263-.3232601.465417-.5407335.8215-.5705.356083-.0297664.7009975.1326962.9048175.4261899 1.975 2.847 6.777 7.324 16.742 5.331.5317506-.08744 1.0371542.2622052 1.1428396.7906321s-.2263622 1.0455623-.7508396 1.1693679c-1.6949788.3496243-3.4203681.5308387-5.151.541z"/><path id="Shape" d="m20.459 39.52c-.5069326-.0006333-.9331962-.3804892-.992-.884-.5671162-4.9577131 1.2186862-9.8951272 4.826-13.343.3923789-.3789722 1.0160848-.3735524 1.4018186.0121814s.3911536 1.0094397.0121814 1.4018186c-3.194738 3.0036862-4.7735053 7.345853-4.254 11.7.0639227.5483784-.3286533 1.0448058-.877 1.109-.0388792.0037604-.0779548.0050963-.117.004z"/><path id="Shape" d="m43.619 42.4c-3.4740127.0468747-6.8775101-.9817891-9.744-2.945-.4417404-.32109-.5441927-.9371893-.2301415-1.3839613s.92845-.5589723 1.3801415-.2520387c2.357 1.657 6.411 3.382 12.338 2.2.3552139-.0829161.7273968.0341562.9711792.3054903s.320487.6538814.2001542.9982243c-.1203329.3443429-.4186119.5958497-.7783334.6562854-1.3616893.2767658-2.7474725.4177895-4.137.421z"/><path id="Shape" d="m32.1 35.66c-.5090578.0001485-.9369855-.382145-.994-.888-.3255309-4.2534301.5713556-8.5112987 2.585-12.272.2736571-.4799354.8845645-.647157 1.3645-.3734999.4799354.273657.647157.8845645.3735 1.3644999-1.7905837 3.3956725-2.5991779 7.2232491-2.335 11.053.0297712.2637953-.0465712.5286027-.212203.7360644-.1656318.2074618-.4069585.3405503-.670797.3699356-.0368001.0052684-.0738508.0086063-.111.01z"/><path id="Shape" d="m45.124 31.5h-.069c-.5522847-.0013807-.9988807-.4502153-.9975-1.0025s.4502153-.9988807 1.0025-.9975h.06c3.2912517-.1388411 6.5176179-.9609276 9.474-2.414.3265408-.1450498.70566-.104874.9945472.1053937.2888873.2102676.4436536.5586825.4060001.914-.0376536.3553175-.2620065.6635565-.5885473.8086063-3.2129423 1.560145-6.7132634 2.4405019-10.282 2.586z"/><path id="Shape" d="m41.27 29.44c-.4298126.0005351-.81189-.2736426-.949-.681-.6310475-2.2651489-.7336833-4.6449311-.3-6.956.1227613-.5259109.640909-.8593412 1.1704184-.7531692.5295093.106172.8790595.6135846.7895816 1.1461692-.3595242 1.9683182-.278241 3.9918602.238 5.925.0846685.2514235.0659594.5261875-.0520094.763813s-.3255278.4186354-.5769906.503187c-.1032287.0342158-.2112488.051769-.32.052z"/></g><path id="Shape" d="m48.56 26.21c-1.4115687 1.9103608-2.9412205 3.7305796-4.58 5.45-1.6885081 1.773318-3.5664002 3.3561128-5.6 4.72-4.0696812 2.535613-8.4580306 4.5196177-13.05 5.9-1.11.37-2.22.71-3.33 1.06-1.0029064.2982768-1.9850396.662401-2.94 1.09-1.291333.5698334-2.521054 1.2701377-3.67 2.09-.5027929.3545745-.9867815.7350897-1.45 1.14-1.5061526 1.3191051-2.7982274 2.8641972-3.83 4.58-.51394096.8546144-.96190848 1.7472064-1.34 2.67-.19.46-.35.92-.5 1.39-.07.23-.13.46-.19.68-.05328704.1875919-.0966802.3778542-.13.57-.20158393 1.64857-1.70143002 2.8215839-3.35 2.62s-2.82158393-1.70143-2.62-3.35c.02-.09.03-.17.05-.26l.02-.11c.1-.49.19-.75.29-1.1.1-.32.2-.64.31-.95.23-.63.47-1.23.74-1.82.5373255-1.1804835 1.16589798-2.3172635 1.88-3.4 1.41442521-2.1648387 3.16274303-4.0920385 5.18-5.71.8303073-.6693963 1.7057098-1.2808416 2.62-1.83 1.2682727-.783287 2.6035011-1.4525744 3.99-2 1.1612641-.4511994 2.3463729-.8384462 3.55-1.16 1.08-.3 2.18-.58 3.25-.91 4.2406553-1.0942135 8.3165444-2.7487824 12.12-4.92 3.6409185-2.385388 6.8414913-5.3829646 9.46-8.86l.01-.01c.6802738-.8272342 1.8961022-.9610937 2.7400528-.3016725s1.0081052 1.8715311.3699472 2.7316725z" fill="#008a00"/><path id="Shape" d="m48.22 23.49c-.8296324-.6772871-2.0494881-.5623409-2.738.258.5950788.7027837.6273995 1.7229575.078 2.462-7.904 10.482-13.76 13.096-26.56 17.13-5.049 1.587-9.1 4.274-11.89 8.9-1.00318876 1.6411553-1.73271668 3.4345781-2.16 5.31-.11694327.9365734-.66980722 1.7627175-1.491 2.228.87197133.5092694 1.94164725.5456946 2.8462424.096922.90459515-.4487727 1.52272859-1.3225258 1.6447576-2.324922.0333198-.1921458.07671296-.3824081.13-.57.9979446-3.613735 3.0356665-6.8546169 5.86-9.32 3.854-3.351 7.522-4.091 11.39-5.38 11.245-3.748 16.427-7.047 23.23-16.07.6340455-.8512383.484072-2.0510263-.34-2.72z" fill="#007900"/><path id="Shape" d="m4.482 61.157c.16389389.0202533.32885992.0306054.494.031 2.01320868-.0045419 3.71015419-1.502854 3.964-3.5.014-.083.065-.3.1-.448.056-.209.115-.423.185-.642.135-.434.291-.871.472-1.311.3567204-.8739834.7803096-1.7191558 1.267-2.528.9759622-1.6308261 2.2030389-3.0975135 3.636-4.346.187-.165.389-.316.585-.473.6532911.9154192 1.3775212 1.7780756 2.166 2.58 8.7302852 8.62137 22.7697148 8.62137 31.5 0 19.782-19.647 9.364-48.578 9.256-48.868-.118366-.31834692-.3902233-.55485305-.7218892-.6280176-.3316658-.07316455-.6777952.02701543-.9191108.2660176-2.9954713 2.78429825-6.379045 5.11928411-10.045 6.932-.0350132.02304338-.0684232.04843498-.1.076-.0580259.03534145-.1120135.0769219-.161.124-.0432258.04398597-.0814579.09261449-.114.145-.1057096.15919316-.166196.34410875-.175.535.0001335.06726306.0075094.13431622.022.2.0021375.04257403.0068124.08498267.014.127.0608824.18424667.0922695.37695626.093.571.0024005.9304609-.6399666 1.7385064-1.547 1.946-.3168111.0739364-.5778549.2973632-.6998084.5989643-.1219535.3016012-.0895721.6436755.0868084.9170357.196207.307416.2095011.6972683.0346917 1.0173362-.1748095.3200678-.5099992.5195908-.8746917.5206638-.2553698.0017793-.501011-.0978438-.683-.277-.223123-.2186651-.5362169-.319448-.845-.272-.3086663.0470296-.5779998.2347133-.729.508-.3469906.6395614-1.0153763 1.0387522-1.743 1.041-.5522847 0-1 .4477153-1 1 .0255649.3761018-.1625459.7346207-.4865482.9273086-.3240022.1926879-.7288316.1867972-1.0470903-.0152361-.3182587-.2020334-.4958585-.5658738-.4593615-.9410725.058908-.3529617-.0752762-.7104983-.3518638-.9375478-.2765875-.2270495-.6534161-.2890011-.9881362-.1624522-.8727231.3264839-1.8545731-.0083329-2.346-.8 1.630473-.9507726 2.6462057-2.68385 2.679-4.571-.0179137-1.5941103-.7524383-3.09547874-2-4.088.7951552-1.53127995.7574839-3.36173197-.1-4.859-.2468713-.49429482-.8477051-.69487123-1.342-.44799995-.4942948.24687127-.6948712.8477051-.448 1.34199995.5319764.9022667.5872894 2.0081536.148 2.959-.7222423-.2695997-1.4870807-.40712157-2.258-.406-2.646213-.06760924-5.0168745 1.62653646-5.81 4.152-.3890057-.09889077-.7886267-.1499348-1.19-.152-2.3896802.00624946-4.4417379 1.7006628-4.9 4.046-.1986656-.0294577-.3991657-.0448293-.6-.046-2.4841391.0027556-4.4972444 2.0158609-4.5 4.5.0016603.2099264.0183698.4194636.05.627-1.7859308.4366427-3.04422932 2.0344755-3.05 3.873.00537314.1766419.02274651.3527144.052.527-.99826017.5449861-1.71231944 1.4947629-1.95857555 2.6051192-.24625611 1.1103564-.00068332 2.2729615.67357555 3.1888808-.84099759 1.0494146-1.00506603 2.4883591-.42189195 3.7001577s1.81007166 1.9813454 3.15489195 1.9788423c.1775842-.0025717.3547345-.0182812.53-.047-.092888 2.4463862.2007205 4.8921118.87 7.247-.7160695.4605817-1.4082938.9572209-2.074 1.488-2.09943972 1.685685-3.91981411 3.6920116-5.394 5.945-.73847191 1.1233102-1.38939408 2.3017902-1.947 3.525-.277.6-.53 1.225-.771 1.9-.118.326-.227.66-.331 1l-.031.107c-.1.328-.176.6-.279 1.079v.005l-.023.108c-.023.111-.042.224-.056.34-.12985562 1.0544531.16511299 2.1172483.81983995 2.9539481s1.61541859 1.3785592 2.67016005 1.5060519zm24.518-54.157c.2150862.00365105.4296349.02269976.642.057-.04.022-.072.04-.093.05-.4937426.24852814-.6925281.85025743-.444 1.344s.8502574.69252814 1.344.444c.4772816-.24532539.919826-.55302148 1.316-.915.7667966.61385393 1.2196432 1.53788096 1.235 2.52-.1490337 2.0656278-1.9328688 3.6264835-4 3.5-2.0671312.1264835-3.8509663-1.4343722-4-3.5.1490337-2.06562781 1.9328688-3.62648352 4-3.5zm-7 4c.3632911.0076741.7220144.0826059 1.058.221.1994292 1.3025692.8723953 2.4857788 1.89 3.323-.0305881.1545981-.0727058.3066897-.126.455-.2982717.8566947-.9714686 1.5302598-1.828 1.829-.6283215.2334889-1.3192528.235616-1.949.006-.1914822-.0590115-.3753999-.1402306-.548-.242-.8524017-.4900299-1.4075192-1.3696834-1.483-2.35-.007-.082-.014-.159-.014-.242 0-1.6568542 1.3431458-3 3-3zm-5.5 4c.2117263.0039657.4220854.0348811.626.092.2511312 1.1396843.8967811 2.1540241 1.823 2.864-.006.034 0 .071-.012.1s-.023.066-.032.1c-.1650065.6051057-.5525506 1.1255221-1.085 1.457-.2684359.1744468-.5695326.292504-.885.347-.3098023.0520286-.6263813.0486427-.935-.01-.7649552-.1550753-1.411806-.6621766-1.745-1.368-.1687904-.3356369-.2561493-.7063126-.255-1.082 0-1.3807119 1.1192881-2.5 2.5-2.5zm-3.715 5.022c.5276213.7906162 1.2958991 1.3902305 2.191 1.71.014077.0886846.0220955.1782253.024.268v.107c0 .03-.011.074-.014.106-.0491376.4677995-.261583.9033125-.6 1.23-.1013797.1008643-.214526.1891654-.337.263-.1663617.0991314-.3462392.1735751-.534.221-.5989913.1551011-1.2360359.0258271-1.7271868-.3504941-.491151-.3763212-.781723-.9577896-.7878132-1.5765059.0052971-1.0173706.7735097-1.868645 1.785-1.978zm-2.975 4.378c.748168 1.0105398 1.9326518 1.6046382 3.19 1.6-.001015.3914654-.1130136.7746185-.323 1.105-.0970864.1388215-.2113244.2648194-.34.375-.1484358.136996-.3170777.2503233-.5.336-.9312633.4455948-2.04864569.1066895-2.57547488-.781149-.5268292-.8878384-.28887069-2.0309814.54847488-2.634851zm-.81 6.1c.00071726-.3207571.10604462-.6325261.3-.888.53069924.2543248 1.1115091.3868861 1.7.388.291569-.0005122.5822384-.0323618.867-.095.2150207.466225.1670803 1.011451-.126 1.433-.0643962.1033235-.1454987.1952397-.24.272-.0323463.0271706-.0630661.0562208-.092.087-.2608378.1993434-.5807237.3059721-.909.303-.82842712 0-1.5-.6715729-1.5-1.5zm4.053 2.963c.5912456.3452996 1.2623398.5303934 1.947.537.5522847 0 1-.4477153 1-1s-.4477153-1-1-1c-.4278178-.0037797-.8432811-.1439022-1.186-.4.2702932-.7612801.2453159-1.5962381-.07-2.34.6597752.4693063 1.4464375.7273427 2.256.74.5522847 0 1-.4477153 1-1s-.4477153-1-1-1c-.4785066-.0093309-.9385672-.1862773-1.3-.5.1952534-.4761392.2971035-.9853895.3-1.5 0-.131-.012-.276-.022-.383 0-.036-.014-.072-.018-.108.5426208.4871617 1.2438285.7604657 1.973.769.5276354-.0078037 1.0461241-.138967 1.514-.383.3197527-.1596977.5300187-.4778505.5515928-.8346134.021574-.3567628-.1488214-.6979349-.4470001-.895-.2981786-.1970651-.67884-.2200843-.9985927-.0603866-.3565006.227365-.8124994.227365-1.169 0 .3234248-.5082707.5256355-1.0841092.591-1.683.0190358-.1398279.0273933-.2809026.025-.422 0-.014 0-.028 0-.042.089-.01.176-.008.266-.022.2896083-.051643.5735812-.131008.848-.237.7405862.8142549 1.7854403 1.2852719 2.886 1.301.5522847 0 1-.4477153 1-1s-.4477153-1-1-1c-.4454712-.0066161-.8743186-.1702226-1.211-.462.4575158-.4869026.7993292-1.0707198 1-1.708.3946329.1087184.8016863.1658605 1.211.17.2808656-.0002878.5612017-.024374.838-.072.6170279 1.1979983 1.8172816 1.9845024 3.162 2.072.5522847 0 1-.4477153 1-1s-.4477153-1-1-1c-.5220914-.0718271-.9835482-.3762783-1.255-.828.9153504-.5968034 1.6065366-1.4807478 1.965-2.513.008-.023.011-.048.019-.071.302375.1129061.6129489.2025011.929.268-.2964913.9961689-.0562427 2.074828.635 2.851.3923789.3789722 1.0160848.3735524 1.4018186-.0121814s.3911536-1.0094397.0121814-1.4018186c-.239-.24-.155-.84-.006-1.334.2544136-.0278877.5068845-.071302.756-.13.7101848 1.3841294 2.1584635 2.2309414 3.713 2.171.4282876 1.2173412 1.5870862 2.0243902 2.8774092 2.0039809 1.2903229-.0204094 2.4230177-.8637034 2.8125908-2.0939809.7650882-.1711874 1.4630014-.5634377 2.007-1.128 1.0095605.4116349 2.1629709.2431594 3.0126115-.4400438.8496405-.6832033 1.2617473-1.7735737 1.0763885-2.8479562 1.2668044-.7055078 2.049826-2.0439998 2.044-3.494 0-.112-.016-.221-.026-.331 3.1243208-1.61598765 6.0502768-3.58955656 8.719-5.881 1.757 5.949 7.137 29.037-9.247 45.312-7.9489694 7.8479879-20.7300306 7.8479879-28.679 0-.7142482-.7260096-1.3702721-1.507086-1.962-2.336.8539441-.5434921 1.7474504-1.0221681 2.673-1.432.9180677-.4057166 1.8605673-.7537267 2.822-1.042l.848-.265c.834-.26 1.667-.519 2.494-.8 4.6783467-1.4030962 9.1479829-3.4256991 13.29-6.014 2.0939643-1.4020026 4.0281524-3.0290277 5.768-4.852 1.6640864-1.7513179 3.2186978-3.6034929 4.655-5.546 1.0079207-1.2948699.7757019-3.1615798-.5187525-4.170034-1.2944545-1.0084543-3.1612599-.7770047-4.1702475.517034-2.5574696 3.3810576-5.6711694 6.3026873-9.208 8.64-3.7334197 2.1196282-7.7288671 3.7401311-11.884 4.82-.781.236-1.575.452-2.37.669l-.86.235c-1.2406076.3264555-2.4604734.727178-3.653 1.2-1.0321541.4138145-2.038032.8903709-3.012 1.427-.5600752-2.1823679-.7713536-4.4396036-.626-6.688zm-10.076 23.477c.007-.059.017-.117.029-.173l.022-.106c.089-.413.159-.65.266-1.016.095-.309.193-.612.3-.909.222-.62.453-1.189.71-1.746.5153127-1.1313186 1.1170966-2.2212161 1.8-3.26 1.3608765-2.077008 3.04007566-3.9269617 4.976-5.482 1.9209816-1.5412393 4.0651555-2.7814141 6.359-3.678 1.1215382-.4420617 2.2686011-.8164016 3.435-1.121l.856-.235c.812-.221 1.624-.443 2.412-.68 4.3225706-1.1278858 8.4776699-2.820455 12.358-5.034 3.73616-2.4549819 7.0257541-5.5298239 9.727-9.092.3313709-.4230501.9429499-.4973708 1.366-.1659999.4230501.3313708.4973708.9429498.166 1.3659999-1.388799 1.8784181-2.8916266 3.6697887-4.5 5.364-1.6384588 1.7175957-3.4599687 3.2507222-5.432 4.572-3.9970811 2.4898189-8.3084379 4.4353102-12.82 5.785-.818.278-1.634.532-2.451.786l-.856.267c-1.0371903.312568-2.0538376.6896359-3.044 1.129-1.3326153.5907699-2.6020733 1.3147864-3.789 2.161-.007.005-.016.005-.023.01s-.014.016-.023.022c-.533.382-1.051.778-1.535 1.2-1.5903792 1.3867769-2.9524023 3.0154001-4.036 4.826-.53804367.8959056-1.00610171 1.8320217-1.4 2.8-.191.461-.37.955-.529 1.465-.078.246-.147.491-.212.737s-.142.617-.15.694c-.13392908 1.0993228-1.13367722 1.881929-2.23299999 1.7479999-1.09932278-.133929-1.88192903-1.1336771-1.74800001-2.2329999z" fill="#000"/></g></g></svg>