<svg id="Capa_1" enable-background="new 0 0 507.776 507.776" height="512" viewBox="0 0 507.776 507.776" width="512" xmlns="http://www.w3.org/2000/svg"><g><path d="m493.08 35.216c-.923-3.601-3.7-6.42-7.31-7.31-40.07-9.9-81.36-14.91-122.73-14.91-33.511 0-67.084 3.301-99.888 9.819-15.001-15.601-37.155-19.711-57.296-11.025-35.631 15.366-65.824 51.599-67.764 100.021-.61 15.222 1.315 30.196 6.82 44.034 16.282 40.931-.725 108.986-63.807 128.725-27.046 8.462-81.105 41.347-81.105 109.916 0 34.362 11.736 68.086 33.208 94.83 13.353 16.63 41.316 14.623 50.649-5.865 49.745 5.342 109.398 2.463 163.762-7.175 13.113-2.325 9.556-22.096-3.54-19.681-49.604 9.147-109.146 11.868-156.107 7.144 2.966-14.723 9.218-28.73 18.205-40.778l8.444 8.834c23.087 22.303 57.926-4.019 43.013-31.926l-6.162-10.91c7.275-2.902 14.397-6.286 21.267-10.1l13.844 13.351c24.417 21.759 57.578-7.273 41.68-33.648l-9.722-15.687c13.894-15.021 25.083-32.074 33.373-50.857l13.469 1.63 6.234 93.239c.368 5.51 5.137 9.704 10.645 9.311 5.511-.368 9.679-5.134 9.311-10.645l-6.245-93.412c18.763-7.997 21.674-34.958 4.408-46.746l84.663-84.663 7.732 115.646c.353 5.283 5.426 9.311 10.645 9.311 5.511-.368 9.679-5.134 9.311-10.645l-8.899-133.1 84.541-84.544c13.491 62.79 13.891 139.757-1.109 205.846-17.746 78.185-72.244 142.259-147.39 171.06-12.431 4.764-5.271 23.445 7.16 18.681v-.01c79.126-31.135 139.087-94.153 159.77-185.45 16.517-72.912 15.356-160.395-3.08-232.311zm-279.07-5.164c12.894-5.469 25.318-3.557 35.622 7.594 11.435 12.375 9 28.956 2.536 38.546l-51.661-38.918c4.22-2.742 8.708-5.189 13.503-7.222zm39.899 148.013c-5.135.583-9.683 6.293-8.511 11.604.788 3.567 1.108 7.215 1.483 10.838l-76.395-3.326c1.177-16.472-1.037-32.984-6.78-48.173-1.412-3.734-2.533-7.558-3.406-11.446l75.726-1.109c-.007 4.259.2 8.52.652 12.76.497 4.655 4.157 8.343 8.808 8.875l28.9 3.304c7.386.773 8.999 12.063.146 13.875zm-69.357-127.771 58.953 44.412c-2.587 7.051-4.523 14.328-5.775 21.719l-79.72 1.167c-.386-28.293 10.785-51.351 26.542-67.298zm-117.974 421.417c-.868 8.409-11.772 12.453-17.748 5.117-18.84-23.127-29.615-53.633-28.792-84.773l64.747 26.846c-9.98 15.903-16.271 34.067-18.207 52.81zm62.502-53.735-16.179-16.926c-5.514-5.193-12.336-3.354-15.672 1.36l-74.442-30.866c7.309-29.573 28.539-53.885 57.583-65.474l51.016 70.163c-3.628 2.787-5.419 7.867-2.76 12.945l11.595 20.529c3.892 7.634-5.302 13.779-11.141 8.269zm68.363-71.177 13.82 22.299c4.124 6.292-4.392 14.679-10.796 8.717l-19.287-18.6c-3.278-3.161-8.276-3.709-12.16-1.332-6.097 3.729-12.461 7.069-18.993 9.978l-50.213-69.058c17.031-7.575 31.108-18.479 42.114-31.42l71.305 50.832c-4.397 5.685-9.178 11.098-14.336 16.219-3.303 3.281-3.906 8.408-1.454 12.365zm75.97-72.324-26.61-3.221c-4.525-.545-8.842 2.03-10.508 6.269-3.313 8.427-7.266 16.482-11.818 24.146l-70.92-50.557c6.36-10.681 10.998-22.205 13.847-34.048l80.311 3.497c-.137 6.752-.687 13.506-1.663 20.234-.67 4.614 1.938 9.08 6.288 10.763l24.438 9.455c7.319 2.699 5.061 14.441-3.365 13.462zm105.628-146.672-55.322-3.699c-5.509-.373-10.276 3.8-10.645 9.311s3.8 10.276 9.311 10.645l37.867 2.532-91.077 91.077c-.146-3.563-1.221-29.058-2.601-41.139l10.649-1.445c31.163-4.92 31.163-49.243-.564-53.564l-20.615-2.356c-.484-18.937 4.454-37.976 14.208-54.368 8.237-13.844 9.566-29.688 4.358-43.802 29.107-5.307 58.79-7.997 88.429-7.997 33.737 0 67.472 3.486 100.449 10.359zm-79.235 329.018c0 5.526-4.479 10.005-10.005 10.005s-10.005-4.479-10.005-10.005 4.479-10.005 10.005-10.005 10.005 4.48 10.005 10.005z"/></g></svg>