<svg height="512" viewBox="0 0 512 512" width="512" xmlns="http://www.w3.org/2000/svg"><g id="Fill_out_line" data-name="Fill out line"><path d="m200 72h288v415.949h-288z" fill="#529ddf"/><path d="m232 104h224v351.949h-224z" fill="#fae7cb"/><path d="m312 336h-48a7.99977 7.99977 0 0 1 -8-8v-47.94873a7.99977 7.99977 0 0 1 8-8h48a7.99977 7.99977 0 0 1 8 8v47.94873a7.99977 7.99977 0 0 1 -8 8zm-40-16h32v-31.94873h-32z" fill="#ba8b5d"/><path d="m312 431.94873h-48a7.99977 7.99977 0 0 1 -8-8v-47.94873a7.99977 7.99977 0 0 1 8-8h48a7.99977 7.99977 0 0 1 8 8v47.94873a7.99977 7.99977 0 0 1 -8 8zm-40-16h32v-31.94873h-32z" fill="#ba8b5d"/><path d="m392 104h-15.56a20.3743 20.3743 0 0 1 -18.51-28.89l7.85-17.04993a23.98 23.98 0 1 0 -43.56006 0l7.85006 17.04993a20.3743 20.3743 0 0 1 -18.51 28.89h-15.56a32.004 32.004 0 0 0 -32 32h160a32.004 32.004 0 0 0 -32-32zm-48-48a8 8 0 1 1 8-8 7.99786 7.99786 0 0 1 -8 8z" fill="#68737f"/><path d="m24 400h208v88h-208z" fill="#7ab355"/><path d="m104 400h48v88h-48z" fill="#f0e168"/><path d="m56 312h208v88h-208z" fill="#7ab355"/><path d="m136 312h48v88h-48z" fill="#f0e168"/><path d="m216 80-96 192-40 40 5.61-39.3 2.39-16.7 96-192z" fill="#d4e4f0"/><path d="m120 272-11.93 11.93-22.46-11.23 2.39-16.7z" fill="#c1d7e6"/><path d="m108.07 283.93-28.07 28.07 5.61-39.3z" fill="#68737f"/><path d="m488 64h-104v16h96v399.94824h-224v16h232a8.00039 8.00039 0 0 0 8-8v-415.94824a8.00039 8.00039 0 0 0 -8-8z"/><circle cx="344" cy="48" r="8"/><path d="m232 96a8.00039 8.00039 0 0 0 -8 8v184h16v-176h24.022a39.79015 39.79015 0 0 0 -8.022 24 8.00039 8.00039 0 0 0 8 8h160a8.00039 8.00039 0 0 0 8-8 39.79015 39.79015 0 0 0 -8.022-24h24.022v335.9502h-192v16h200a8.0004 8.0004 0 0 0 8-8v-351.9502a8.00039 8.00039 0 0 0 -8-8h-79.5625a12.28484 12.28484 0 0 1 -8.74609-3.62305 12.41779 12.41779 0 0 1 -2.49024-13.9209l7.84863-17.04785a31.98148 31.98148 0 1 0 -58.0996 0l7.84863 17.04785a12.41779 12.41779 0 0 1 -2.49024 13.9209 12.28484 12.28484 0 0 1 -8.74609 3.62305zm79.55957 16h.00293a28.187 28.187 0 0 0 20.06055-8.30859 28.48243 28.48243 0 0 0 5.709-31.92676l-7.84865-17.04785a15.95741 15.95741 0 0 1 .0166-13.40332 15.9817 15.9817 0 0 1 29-.001 15.95964 15.95964 0 0 1 .0166 13.4043l-7.8486 17.04787a28.48243 28.48243 0 0 0 5.709 31.92676 28.187 28.187 0 0 0 20.0605 8.30859h15.5625a24.04166 24.04166 0 0 1 22.62891 16h-141.25782a24.04166 24.04166 0 0 1 22.62891-16z"/><path d="m264 240.05176h48a8.00039 8.00039 0 0 0 8-8v-44.63476l13.65723-13.65722-11.31446-11.31446-13.65722 13.65723h-44.68555a8.00039 8.00039 0 0 0 -8 8v47.94922a8.00039 8.00039 0 0 0 8 7.99999zm8-47.94922h20.68555l-10.34278 10.34277 11.31446 11.31446 10.34277-10.34277v20.63477h-32z"/><path d="m272 415.94824v16h40a8.00039 8.00039 0 0 0 8-8v-47.94824a8.00039 8.00039 0 0 0 -8-8h-24v16h16v31.94824z"/><path d="m336 208.052h96v16h-96z"/><path d="m336 304.052h96v16h-96z"/><path d="m336 399.974h88v16h-88z"/><path d="m293.65723 309.709 10.34277-10.34279v20.63379h-16v16h24a8.00039 8.00039 0 0 0 8-8v-44.63379l13.65723-13.65721-11.31446-11.31445-13.65722 13.65723h-44.68555a8.00039 8.00039 0 0 0 -8 8v7.94822h8v.05176h28.68555l-10.34278 10.34277z"/><path d="m264 408a8.00039 8.00039 0 0 0 8-8v-88a8.00039 8.00039 0 0 0 -8-8h-164.68555l26.34278-26.34277a8.03215 8.03215 0 0 0 1.498-2.07911l64.84477-129.68945v142.11133h16v-174.11133l15.15527-30.31055a7.95235 7.95235 0 0 0 .83814-3.57812h80.00659v-16h-102.11133l-14.31055-7.15527a8.00075 8.00075 0 0 0 -10.73339 3.57715l-12.42237 24.845-7.77-3.885a26.00052 26.00052 0 0 0 -35.52536 13.01363l-16.48047 38.45312 14.707 6.30274 16.48047-38.45313a9.99908 9.99908 0 0 1 13.66211-5.00586l7.77076 3.88526-76.42214 152.84424a8.01634 8.01634 0 0 0 -.76465 2.44628l-7.0188 49.13184h-17.06128a8.00039 8.00039 0 0 0 -8 8v80h-24a8.00039 8.00039 0 0 0 -8 8v88a8.00039 8.00039 0 0 0 8 8h208a8.00039 8.00039 0 0 0 8-8v-80zm-76.42188-333.2666 17.68848 8.84472-8.84424 17.68873-17.68872-8.84449zm-91.84179 183.6826 75.84179-151.6826 17.68848 8.84424-75.8418 151.6831-22.11132 22.11231zm160.26367 133.584h-64v-72h64zm-80-72v72h-32v-72zm-112 0h64v72h-64zm-32 88h64v72h-64zm80 72v-72h32v72zm112 0h-64v-72h64z"/></g></svg>