<svg height="486pt" viewBox="0 -112 486.88729 486" width="486pt" xmlns="http://www.w3.org/2000/svg"><path d="m420.1875 67.84375v-60.398438c0-3.867187-3.136719-7-7-7h-334.867188c-3.863281 0-7 3.132813-7 7v60.597657c0 106.835937-68.234374 167.777343-68.917968 168.359375-2.285156 1.992187-3.03125 5.226562-1.847656 8.015625 1.183593 2.789062 4.027343 4.5 7.046874 4.238281 3.492188-.304688 74.527344-6.675781 113.511719-23.667969-3.921875 9.582031-9.125 18.589844-15.46875 26.773438-1.640625 2.109375-1.9375 4.972656-.765625 7.375 1.289063 2.464843 3.867188 3.984375 6.648438 3.925781 72.378906 0 118.453125-29.441406 132.210937-39.597656 14.953125 9.753906 65.550781 39.746094 122.601563 39.746094 2.1875 0 4.375-.042969 6.574218-.136719 2.640626-.109375 4.996094-1.695313 6.085938-4.101563 1.09375-2.40625.734375-5.222656-.921875-7.28125-5.078125-6.695312-9.210937-14.054687-12.289063-21.871094 43.09375 19.023438 110.832032 18.871094 114.140626 18.855469 3.007812-.019531 5.664062-1.953125 6.605468-4.808593.941406-2.855469-.046875-5.992188-2.453125-7.796876-.578125-.421874-57.921875-44.753906-63.894531-168.226562zm-14-53.390625v46.597656h-320.867188v-16.300781h78.402344v-14h-78.402344v-16.296875zm27.796875 217.367187c-37.039063-32.855468-47.503906-106-47.597656-106.742187l-13.867188 1.902344c.398438 2.882812 8.910157 62.726562 39.34375 101.597656-19.628906-3.566406-39.261719-9.242187-52.644531-18.226563-2.449219-10.9375-4.226562-22.015624-5.320312-33.171874l-13.929688 1.429687c1.230469 12.804687 3.402344 25.507813 6.488281 38 3.082031 11.28125 7.472657 22.167969 13.082031 32.429687-10.964843-.554687-21.847656-2.136718-32.515624-4.71875-15.089844-17.859374-18.382813-67.34375-18.332032-85.402343l-14-.035157c0 6.027344.308594 50.691407 12.878906 79.808594-21.222656-7.203125-41.410156-17.152344-60.046874-29.601562-2.632813-1.863282-6.195313-1.699219-8.640626.402344-.4375.375-42.0625 35.296874-114.128906 39.222656 7.109375-11.410156 12.246094-23.9375 15.199219-37.054688 4.574219-18.777344 7.234375-37.96875 7.941406-57.28125l-14-.457031c-.699219 17.503906-3.015625 34.898437-6.917969 51.972656-19.210937 13.785157-69.332031 22.660157-101.535156 26.726563 37.488282-44.066406 58.609375-99.726563 59.789063-157.570313h19.839843c-7.085937 74.207031-29.671874 110-29.902343 110.355469l11.734375 7.640625c1.042968-1.597656 24.957031-39.128906 32.222656-118h69.4375c1.867188 36.09375-.203125 64.054687-6.402344 85.089844l13.425782 3.957031c6.621093-22.421875 8.878906-51.6875 7-89.050781h30.441406c-.464844 18.195312-2.46875 67.695312-10.761719 101.164062l13.601563 3.367188c8.777343-35.425781 10.746093-86.121094 11.199218-104.527344h118.519532c.632812 9.730469 1.953124 27.867187 3.601562 38.5625l13.835938-2.128906c-1.496094-9.730469-2.761719-26.707031-3.40625-36.429688h26.980468c5.6875 89.285157 37.199219 137.917969 55.695313 159.117188-7.828125-.390625-17.652344-1.109375-28.308594-2.347657zm-214.035156-187.070312h-37.597657v-14h37.597657zm142.167969 0h-105.335938v-14h105.335938zm-187.308594 137.601562 13.148437 4.800782c-4.160156 11.625-9.007812 22.996094-14.515625 34.046875l-12.398437-6.46875c5.207031-10.515625 9.804687-21.328125 13.765625-32.375zm-37.765625-74.4375 14 .492188-1.054688 29.953125-14-.492187zm165.75-9.820312c.695312 17.421875 2.445312 37.296875 2.460937 37.496094l-13.945312 1.238281c0-.199219-1.792969-20.402344-2.507813-38.171875zm41.359375-.917969c0 .214844.480468 21.824219 3.539062 47.550781l-13.910156 1.648438c-3.136719-26.4375-3.597656-48-3.628906-48.910156zm-67.230469 107.800781-13.851563 2.050782c-2.59375-21.082032-3.652343-42.324219-3.167968-63.558594l14 .359375c-.4375 20.429687.570312 40.863281 3.019531 61.148437zm0 0"/></svg>