<svg height="446.568pt" viewBox="0 0 446.568 446.568" width="446.568pt" xmlns="http://www.w3.org/2000/svg"><path d="m0 7v432.566406c0 3.867188 3.132812 7 7 7h432.566406c3.867188 0 7-3.132812 7-7v-98.339844c0-3.863281-3.132812-7-7-7h-327.226562v-327.226562c0-3.867188-3.132813-7-7-7h-98.339844c-3.867188 0-7 3.132812-7 7zm432.566406 425.566406h-11.738281v-16.5625h-14v16.5625h-9.820313v-16.5625h-14v16.5625h-9.820312v-16.5625h-14v16.5625h-9.8125v-16.5625h-14v16.5625h-9.820312v-36.691406h-14v36.691406h-9.816407v-16.5625h-14v16.5625h-9.816406v-16.5625h-14v16.5625h-9.835937v-16.5625h-14v16.5625h-9.800782v-36.691406h-14v36.691406h-9.800781v-16.5625h-14v16.5625h-9.835937v-16.5625h-14v16.5625h-9.820313v-16.5625h-14v16.5625h-9.816406v-36.691406h-14v36.691406h-9.820313v-16.5625h-14v16.5625h-9.820312v-16.5625h-14v16.5625h-9.816406v-16.5625h-14v16.5625h-9.820313v-36.691406h-14v36.691406h-11.734375v-84.339844h418.566406zm-334.226562-418.566406v320.226562h-84.339844v-8.671874h36.691406v-14h-36.691406v-9.816407h16.5625v-14h-16.5625v-9.816406h16.5625v-14h-16.5625v-9.835937h16.5625v-14h-16.5625v-9.800782h36.691406v-14h-36.691406v-9.800781h16.5625v-14h-16.5625v-9.835937h16.5625v-14h-16.5625v-9.820313h16.5625v-14h-16.5625v-9.816406h36.691406v-14h-36.691406v-9.820313h16.5625v-14h-16.5625v-9.820312h16.5625v-14h-16.5625v-9.816406h16.5625v-14h-16.5625v-9.820313h36.691406v-14h-36.691406v-11.734375zm-65.601563 337.832031c-9.257812 0-16.761719 7.503907-16.761719 16.765625 0 9.257813 7.503907 16.761719 16.761719 16.761719 9.261719 0 16.765625-7.503906 16.765625-16.761719-.015625-9.253906-7.515625-16.753906-16.769531-16.769531zm0 19.53125c-1.523437 0-2.761719-1.238281-2.761719-2.761719 0-1.527343 1.238282-2.765624 2.761719-2.765624 1.527344 0 2.765625 1.238281 2.765625 2.765624-.003906 1.523438-1.242187 2.757813-2.769531 2.757813zm0 0"/></svg>