<svg height="474pt" viewBox="0 -78 474.64046 474" width="474pt" xmlns="http://www.w3.org/2000/svg"><path d="m121.769531 165.121094c-4.910156-2.007813-10.160156-3.050782-15.464843-3.070313l.070312-14c7.097656.027344 14.121094 1.421875 20.6875 4.109375zm-90.703125 121.429687c-38.074218-38.066406-41.578125-98.621093-8.152344-140.828125 33.429688-42.203125 93.179688-52.65625 138.953126-24.308594 17.269531-70.886718 80.660156-120.855468 153.621093-121.09375 72.960938-.2343745 136.671875 49.324219 154.398438 120.097657 17.726562 70.777343-15.105469 144.515625-79.566407 178.695312-64.457031 34.183594-143.917968 19.988281-192.5625-34.390625-4.5625 7.96875-10.15625 15.304688-16.636718 21.8125-41.464844 41.367188-108.585938 41.367188-150.050782 0zm157.132813-33.480469c-1.742188-2.359374-3.386719-4.765624-4.988281-7.199218l-.042969.136718-21.902344-7.285156c-13.835937 27.597656-45.664063 41.058594-75.105469 31.769532l-11.664062 27.429687c33.636718 12.3125 71.359375 4.015625 96.722656-21.273437 6.882812-6.902344 12.617188-14.859376 16.980469-23.574219zm-20.484375-37.347656c-.277344 3.3125-.820313 6.601563-1.621094 9.828125l6.878906 2.296875c-1.925781-3.972656-3.679687-8.015625-5.257812-12.125zm155.109375-200.929687v24.652343c46.070312 2.558594 86.550781 31.410157 104 74.125l-12.949219 5.320313c-16.632812-40.527344-56.5-66.640625-100.296875-65.695313-43.800781.941407-82.503906 28.746094-97.378906 69.953126-14.875 41.207031-2.851563 87.320312 30.25 116.023437l-9.179688 10.574219c-13.445312-11.675782-24.125-26.203125-31.261719-42.519532l-22.800781 9.199219c3.539063 8.171875 7.824219 15.996094 12.800781 23.378907l.125.179687c1.203126 1.777344 2.449219 3.527344 3.734376 5.25l.445312.59375c40.257812 53.640625 112.136719 72.523437 173.558594 45.59375 61.421875-26.925781 96.242187-92.582031 84.070312-158.539063-12.171875-65.953124-68.128906-114.855468-135.117187-118.089843zm-149.390625 119.828125c-.304688 1.800781-.570313 3.601562-.796875 5.402344-.054688.398437-.105469.800781-.15625 1.21875-.207031 1.644531-.386719 3.285156-.535157 4.925781-.074218.828125-.132812 1.664062-.195312 2.496093-.09375 1.273438-.191406 2.546876-.25 3.820313-.101562 2.199219-.167969 4.398437-.167969 6.632813 0 2.320312.066407 4.625.175781 6.921874.027344.574219.070313 1.148438.105469 1.722657.105469 1.808593.238281 3.601562.398438 5.398437.046875.496094.101562.992188.152343 1.488282.21875 2.058593.476563 4.105468.800782 6.136718.023437.15625.042968.316406.066406.472656 1.160156 7.480469 2.914062 14.855469 5.238281 22.058594l22.886719-9.230468c-10.773438-35.167969-4.789062-73.339844 16.226562-103.527344 21.019532-30.1875 54.738282-49.046875 91.460938-51.152344v-24.613281c-67.601562 3.367187-123.84375 53.140625-135.410156 119.828125zm-132.464844 142.035156c6.148438 6.128906 13.140625 11.355469 20.761719 15.519531l11.652343-27.402343c-4.652343-2.703126-8.941406-5.992188-12.757812-9.785157-24.5625-24.558593-24.5625-64.375 0-88.933593l9.898438 9.898437c-14.429688 14.363281-18.429688 36.171875-10.03125 54.71875 8.394531 18.546875 27.421874 29.933594 47.734374 28.5625l-4.855468-21.769531.117187-.023438c-10.527343-.605468-19.734375-7.292968-23.5625-17.117187l13.046875-5.085938c.652344 1.675781 1.644532 3.195313 2.917969 4.464844 5.140625 4.910156 13.234375 4.910156 18.375 0 5.070313-5.078125 5.070313-13.296875 0-18.375-5.140625-4.910156-13.230469-4.910156-18.375 0l-9.898437-9.902344c7.558593-7.5625 18.875-9.953125 28.847656-6.085937 9.972656 3.863281 16.722656 13.253906 17.207031 23.9375.488281 10.683594-5.378906 20.648437-14.960937 25.40625l4.832031 21.671875c15.660156-5.734375 27.3125-19.058594 30.902343-35.34375 3.589844-16.28125-1.378906-33.269531-13.171874-45.058594l9.910156-9.902344c3.339844 3.355469 6.292968 7.078125 8.800781 11.09375-.042969-.402343-.074219-.800781-.121094-1.203125-.050781-.488281-.09375-.976562-.144531-1.464844-.1875-1.984374-.339844-3.976562-.453125-5.972656-.039063-.628906-.082031-1.253906-.113281-1.886718-.117188-2.492188-.191406-4.988282-.191406-7.5 0-3.558594.160156-7.082032.398437-10.582032.042969-.589844.089844-1.171875.136719-1.765625.277344-3.546875.644531-7.066406 1.148437-10.542969-34.4375-24.183593-80.890625-21.933593-112.824219 5.472657l12.640626 12.636719-9.902344 9.898437-12.636719-12.640625c-31.320313 36.519531-29.285156 90.980469 4.671875 125.0625zm380.789062-117.535156c-.027343 38.542968-20.96875 74.027344-54.695312 92.683594l-11.199219-22.402344c25.277344-14.375 40.90625-41.199219 40.945313-70.28125h-14c.039062 23.324218-12.074219 44.984375-31.96875 57.15625-19.894532 12.171875-44.691406 13.097656-65.441406 2.445312l13.832031-21.773437c15.398437 6.75 33.351562 3.496093 45.402343-8.226563 12.050782-11.726562 15.792969-29.585937 9.464844-45.164062-6.328125-15.574219-21.464844-25.761719-38.277344-25.765625v14c5.984376.007812 11.796876 1.988281 16.539063 5.636719l-14.632813 11.34375 8.582032 11.066406 14.664062-11.367188c4.847656 11.476563 1.320313 24.78125-8.578125 32.34375-9.902343 7.566406-23.664062 7.476563-33.464843-.21875-9.800782-7.691406-13.152344-21.042968-8.152344-32.453125l-12.800782-5.632812c-7.039062 16.019531-3.195312 34.738281 9.582032 46.691406l-13.910156 21.898437c-22.046876-17.847656-30.449219-47.648437-20.972657-74.382812 9.476563-26.734375 34.773438-44.59375 63.136719-44.574219v-14c-27.667969.027344-53.402344 14.1875-68.234375 37.542969l-11.730469-5.730469-6.144531 12.585938 11.339844 5.535156c-12.410157 29.601563-6.121094 63.738281 16.015625 86.976563 22.140625 23.238281 55.9375 31.167968 86.101562 20.203124l11.238282 22.5c-12.285157 4.828126-25.367188 7.304688-38.566407 7.300782v14c35.558594 0 69.277344-15.804688 92.023438-43.136719l13.886719 9.5625 7.9375-11.535156-13.492188-9.28125c12.789062-19.46875 19.589844-42.253907 19.570312-65.546875zm-31.238281-31.332032c-4.011719-9.566406-9.832031-18.269531-17.140625-25.632812l-9.953125 9.847656c6.046875 6.089844 10.863281 13.285156 14.1875 21.199219zm0 0"/></svg>