<svg height="482pt" viewBox="0 -111 482.46919 482" width="482pt" xmlns="http://www.w3.org/2000/svg"><path d="m385.09375 62.769531h-50.738281l11.445312-40.972656c.742188-1.5625 1.128907-3.269531 1.128907-5.003906 0-9.746094-11.667969-16.558594-28.371094-16.558594-15.070313 0-26 5.550781-28 13.792969l-35.28125 48.738281h-157.601563c-.492187.003906-.980469.054687-1.460937.160156-53.492188 1.230469-96.214844 44.945313-96.214844 98.449219 0 53.507812 42.722656 97.222656 96.214844 98.453125.480468.101563.96875.15625 1.460937.160156h287.441407c53.964843-.6875 97.351562-44.632812 97.351562-98.601562s-43.386719-97.914063-97.351562-98.601563zm-104.367188 19.4375-.175781-.03125-.773437-.152343-.335938-.074219-.761718-.171875-.398438-.101563-.773438-.203125-.464843-.128906-.800781-.238281-.503907-.164063c-.269531-.085937-.535156-.179687-.800781-.277344l-.519531-.199218c-.265625-.101563-.535157-.210938-.800781-.320313l-.53125-.234375c-.261719-.121094-.519532-.242187-.777344-.371094l-.53125-.273437c-.253906-.136719-.496094-.277344-.738282-.421875-.167968-.101562-.34375-.199219-.503906-.308594-.242187-.15625-.472656-.324218-.707031-.492187-.152344-.113281-.308594-.21875-.453125-.335938-.230469-.183593-.445312-.375-.65625-.574219-.132812-.117187-.269531-.230468-.402344-.355468-.214844-.214844-.398437-.445313-.601562-.679688-.101563-.117187-.210938-.230468-.304688-.355468-.21875-.292969-.414062-.601563-.59375-.917969-.042968-.082031-.097656-.148438-.144531-.230469-.214844-.410156-.394531-.835938-.535156-1.277344 0-.050781-.019531-.105468-.035157-.15625-.113281-.382812-.195312-.773437-.25-1.164062l31.601563-43.636719c.058594.035156.136719.0625.195313.097656 1.199218.730469 2.453124 1.363281 3.753906 1.894531.144531.058594.277344.121094.425781.183594 1.480469.578125 3 1.0625 4.546875 1.4375l.398438.105469c1.761718.414063 3.542968.722656 5.339843.929687l.261719.035157c2.050781.226562 4.113281.335937 6.179688.335937 1.636718 0 3.199218-.085937 4.75-.210937h.109374c1.691407-.144531 3.3125-.363281 4.863282-.652344l-9.949219 35.597656c-2.707031 11.046875-21.660156 16.621094-36.800781 14.242188zm50.796876-65.429687c-.167969.089844-.351563.175781-.542969.269531-.261719.125-.554688.246094-.867188.371094s-.609375.246093-.957031.359375c-.699219.242187-1.46875.46875-2.339844.675781-.226562.058594-.5.097656-.738281.148437-.78125.164063-1.621094.304688-2.523437.421876-.339844.042968-.679688.082031-1.039063.121093-2.636719.28125-5.300781.28125-7.9375 0-.285156-.03125-.570313-.058593-.84375-.09375-1.148437-.144531-2.226563-.316406-3.175781-.53125l-.320313-.085937c-.859375-.203125-1.628906-.429688-2.316406-.667969-.167969-.058594-.347656-.113281-.507813-.175781-.613281-.222656-1.210937-.476563-1.792968-.765625l-.066406-.042969c8.332031-3.402344 17.667968-3.402344 26 0zm-297.460938 89.972656 11.289062 11.292969 9.902344-9.898438-11.292968-11.292969c28.585937-24.207031 69.6875-26.738281 101.027343-6.226562l.179688.109375c2.019531 1.332031 3.976562 2.800781 5.902343 4.335937.320313.253907.660157.46875.976563.722657 4.441406 3.625 8.503906 7.6875 12.125 12.128906.261719.316406.472656.660156.730469.976563 1.523437 1.925781 3 3.878906 4.335937 5.898437.03125.050781.054688.101563.089844.152344 18.4375 28.207031 18.4375 64.652343 0 92.855469-.03125.050781-.054687.101562-.089844.152343-1.332031 2.027344-2.800781 3.976563-4.335937 5.902344-.253906.320313-.46875.660156-.730469.976563-3.617187 4.4375-7.679687 8.5-12.117187 12.117187-.375.304687-.777344.5625-1.15625.859375-1.871094 1.46875-3.761719 2.90625-5.71875 4.199219-.109376.074219-.234376.136719-.347657.207031-22.191406 14.398438-49.832031 17.621094-74.742187 8.710938l10.398437-24.429688c20.746094 6.355469 43.304688.746094 58.65625-14.582031 4.316407-4.332031 7.925781-9.316407 10.695313-14.769531l19.804687 6.605468 4.433594-13.28125-19.4375-6.488281c4.726563-19.789063-1.148437-40.613281-15.515625-55.019531l-9.898438 9.902344c10.714844 10.683593 15.277344 26.074218 12.121094 40.871093-3.15625 14.800781-13.601562 26.988281-27.742187 32.371094l-4.246094-19.03125c8.917969-4.617187 14.292969-14.039063 13.726563-24.066406-.566407-10.027344-6.96875-18.785157-16.351563-22.367188-9.382813-3.578125-19.992187-1.316406-27.097656 5.78125l9.90625 9.902344c4.542969-4.339844 11.691406-4.339844 16.234375 0 4.484375 4.480469 4.484375 11.753906 0 16.234375-4.542969 4.34375-11.699219 4.34375-16.238282 0-1.128906-1.117188-2.007812-2.457031-2.582031-3.9375l-13.046875 5.085938c3.546875 9.09375 11.984375 15.359374 21.71875 16.125l4.273438 19.148437c-18.449219.964844-35.585938-9.542969-43.089844-26.425781-7.503906-16.882813-3.820312-36.640625 9.261719-49.6875l-9.902344-9.902344c-12.863281 12.761719-19.078125 30.769531-16.824219 48.75 2.253906 17.976562 12.722656 33.894531 28.335938 43.082031l-10.359375 24.367188c-22.109375-12.269531-37.542969-33.808594-42.050781-58.691407-4.507813-24.878906 2.386718-50.464843 18.789062-69.710937zm415.625 109.199219h-131.128906v14h115.964844c-14.363282 10.441406-31.667969 16.054687-49.425782 16.035156h-235.789062c1.066406-.640625 2.101562-1.339844 3.140625-2.027344.214843-.136719.4375-.273437.652343-.417969 2.484376-1.65625 4.902344-3.429687 7.246094-5.324218.402344-.3125.765625-.640625 1.152344-.957032 2.339844-1.945312 4.632812-3.976562 6.800781-6.15625 2.375-2.375 4.628907-4.867187 6.753907-7.472656v-.019531c8.167968-9.96875 14.28125-21.457031 17.988281-33.804687h214.976562v-14h-211.871093c.695312-4.777344 1.046874-9.597657 1.042968-14.425782.023438-15.09375-3.433594-29.992187-10.101562-43.53125h208.167968v-14h-216.589843c-1.152344-1.601562-2.335938-3.167968-3.597657-4.699218v-.023438c-2.125-2.601562-4.378906-5.09375-6.753906-7.46875-2.183594-2.1875-4.480468-4.21875-6.828125-6.171875-.375-.3125-.742187-.628906-1.117187-.933594-2.355469-1.902343-4.78125-3.683593-7.277344-5.34375l-.605469-.402343c-1.050781-.6875-2.09375-1.394532-3.171875-2.042969h103.199219c0 .066406.050781.121093.066406.179687.289063 1.039063.660157 2.050782 1.105469 3.027344.09375.207031.179688.402344.273438.609375.488281 1 1.050781 1.957031 1.6875 2.867187.128906.183594.269531.359376.402343.542969.648438.875 1.355469 1.707031 2.117188 2.484375.078125.078125.140625.160156.222656.238282.863281.84375 1.785156 1.625 2.757813 2.34375.21875.164062.433593.324218.65625.480468 1.035156.730469 2.109374 1.398438 3.222656 2 .160156.085938.339844.164063.5.25 1.113281.578125 2.253906 1.097656 3.417968 1.558594.226563.089844.449219.191406.683594.277344 1.304688.492187 2.679688.929687 4.109375 1.316406.304688.085938.613281.15625.925781.238281 1.5.375 3.042969.710938 4.664063.96875 1.410156.222657 2.84375.378907 4.285156.5.445313.035157.890625.054688 1.339844.082031 1.03125.0625 2.0625.105469 3.105469.117188.257812 0 .515625.027344.773437.027344.261719 0 .601563-.019532.902344-.023438.566406 0 1.140625-.023437 1.707031-.050781.679688-.023437 1.359375-.0625 2.035156-.113281.535157-.039063 1.074219-.085938 1.601563-.136719.726563-.074219 1.445313-.160156 2.171875-.257813.480469-.0625.960938-.125 1.433594-.203124.800781-.125 1.582031-.265626 2.367187-.421876.398438-.082031.796875-.152343 1.199219-.238281.890625-.191406 1.769531-.398437 2.648438-.648437.269531-.070313.546874-.140625.820312-.214844 1.039062-.292969 2.0625-.617188 3.074219-.96875l.292969-.09375c8.875-2.644531 16.367187-8.652344 20.878906-16.738281v-.027344h55.128906c39.230469-.03125 73.316406 26.957031 82.28125 65.152344h-186.054688v14h188.121094c.117188 1.816406.265625 3.625.265625 5.460937.046875 20.003906-7.050781 39.367188-20.019531 54.601563zm-336.804688-96.964844c-4.476562-1.832031-9.265624-2.78125-14.101562-2.800781l.070312-14c6.628907.023437 13.191407 1.328125 19.324219 3.835937zm98.988282 22.933594h42.214844v14h-42.214844zm242.632812 33.886719v14h-29.199218v-14zm-194.820312 40.144531h43.269531v14h-43.269531zm-62.902344 0h28.058594v14h-28.054688zm0 0"/></svg>