<svg height="469pt" viewBox="-31 0 469 469.876" width="469pt" xmlns="http://www.w3.org/2000/svg"><path d="m334.816406 251.886719c-7.628906-7.617188-19.988281-7.617188-27.617187 0-7.628907 7.628906-7.628907 19.996093 0 27.625 7.628906 7.625 19.992187 7.625 27.621093 0 7.628907-7.628907 7.628907-19.996094 0-27.625zm-9.898437 17.726562c-2.160157 2.160157-5.664063 2.160157-7.824219 0-2.160156-2.160156-2.160156-5.664062 0-7.824219 2.160156-2.160156 5.664062-2.160156 7.824219 0 2.15625 2.160157 2.160156 5.660157.003906 7.824219zm-217.867188-155.328125c7.554688 7.554688 19.804688 7.554688 27.359375 0 7.554688-7.554687 7.554688-19.804687 0-27.359375l-42.988281-42.988281c-7.554687-7.558594-19.804687-7.558594-27.359375 0-7.554688 7.554688-7.554688 19.804688 0 27.359375zm-33.089843-60.453125c2.089843-2.085937 5.476562-2.085937 7.566406 0l42.984375 42.992188c1.933593 2.109375 1.863281 5.367187-.160157 7.394531-2.023437 2.023438-5.28125 2.097656-7.394531.164062l-42.996093-42.988281c-2.089844-2.085937-2.089844-5.472656 0-7.5625zm332.914062 376.871094v-93.46875c0-.042969 0-.082031 0-.128906 0-.050781 0-.140625 0-.210938l-1.921875-39.375c-.085937-1.734375-.8125-3.378906-2.042969-4.609375l-22.101562-22.097656v-69.867188c0-1.859374-.738282-3.636718-2.050782-4.949218l-20.800781-20.800782c-2.777343-2.628906-7.121093-2.628906-9.898437 0l-36.378906 36.402344-5.378907 5.347656-11.125-11.128906c-2.058593-2.078125-5.199219-2.636718-7.851562-1.402344l-10.039063-10.039062 7.136719-7.136719-9.898437-9.898437-7.136719 7.136718-7.296875-7.296874 7.136718-7.136719-9.902343-9.898438-7.132813 7.136719-7.300781-7.300781 7.136719-7.132813-9.898438-9.902344-7.136718 7.117188-7.296876-7.296875 7.132813-7.136719-9.894531-9.886718-7.136719 7.125-7.300781-7.300782 7.136718-7.132812-9.894531-9.890625-7.136719 7.136719-7.300781-7.300782 7.136719-7.136718-9.878906-9.898438-7.136719 7.136719-7.296875-7.296875 7.136719-7.136719-9.902344-9.902344-7.136719 7.136719-7.300781-7.300781 7.136719-7.132813-9.902344-9.902344-7.132812 7.128907-7.308594-7.289063 7.136718-7.136718-9.894531-9.90625-7.136719 7.136718-7.300781-7.289062 7.132813-7.136719-9.894532-9.910156-7.199218 7.199219c-2.515625-2.414063-5.246094-4.601563-8.152344-6.53125l6.550781-9.558594-11.527343-7.910156-7.71875 11.242187c-2.644532-.933594-5.351563-1.675781-8.105469-2.210937l1.152343-13.574219-13.949218-1.199219-1.175782 13.863281c-3.332031.164063-6.644531.617188-9.902343 1.351563l-5.457031-13.261719-12.949219 5.320313 5.203125 12.699218c-3.382813 1.710938-6.589844 3.757813-9.570313 6.097656l-10.304687-10.300781-9.878906 9.894531 10.308593 10.304688c-2.355469 3.003906-4.410156 6.238281-6.125 9.652344l-12.71875-4.992188-5.121093 13.03125 13.132812 5.152344c-.707031 3.128906-1.152344 6.316406-1.332031 9.519531l-14.480469 1.675781 1.601562 13.90625 13.714844-1.597656c.542969 2.835938 1.300782 5.625 2.261719 8.347656l-11.285156 7.761719 7.917969 11.546875 9.5625-6.558594c1.925781 2.910157 4.113281 5.636719 6.53125 8.148438l-7.199219 7.203125 9.898437 9.898437 7.136719-7.136718 7.300781 7.300781-7.125 7.117187 9.898438 9.898438 7.136718-7.132812 7.300782 7.300781-7.136719 7.132812 9.902344 9.898438 7.132812-7.136719 7.296875 7.296875-7.136718 7.136719 9.902343 9.898437 7.136719-7.132812 7.296875 7.296875-7.132813 7.132812 9.898438 9.902344 7.136719-7.132812 7.300781 7.300781-7.136719 7.132812 9.898438 9.902344 7.109375-7.144531 7.296875 7.296875-7.136719 7.136719 9.898438 9.898437 7.140624-7.136719 7.300782 7.300782-7.136719 7.136718 9.898437 9.898438 7.136719-7.140625 7.300781 7.300781-7.136718 7.136719 9.902344 9.898437 7.132812-7.136718 7.300781 7.296874-7.136719 7.136719 9.902344 9.902344 7.136719-7.140625 10.035156 10.035156c-1.238281 2.648438-.679687 5.789063 1.398438 7.847656l11.128906 11.128907-3.695313 3.695312c-1.3125 1.3125-2.050781 3.09375-2.050781 4.949219 0 1.859375.738281 3.636719 2.050781 4.949219l67.597657 67.601562 13.722656 13.71875 67.167969 67.601563c1.308594 1.320312 3.089844 2.0625 4.949218 2.066406 1.859376 0 3.636719-.738281 4.949219-2.050781l32.179688-32.179688c1.324219-1.304687 2.070312-3.082031 2.082031-4.941406zm-137.347656-157.199219 42.855468 42.84375c3.921876 3.917969 6.125 9.230469 6.125 14.773438 0 5.542968-2.203124 10.859375-6.125 14.773437l-25.601562 25.734375-6.703125-6.683594 26.203125-26.210937-9.898438-9.898437-26.203124 26.207031-7.339844-7.339844 26.207031-26.207031-9.902344-9.898438-26.1875 26.203125-7.351562-7.335937 26.203125-26.207032-9.898438-9.902343-26.203125 26.207031-6.628906-6.625zm52.753906 82.28125c13.625-13.625 13.625-35.710937 0-49.332031l-42.855469-42.855469 37.199219-37.203125 71.449219 71.445313-33.601563 33.601562 9.902344 9.898438 27.394531-27.394532 1 20.496094-56.410156 56.414063-32.726563-2.363281-6.960937-6.96875zm50.753906 18.191406v37.265626l-5.527344 5.441406-18.570312-18.613282zm-20.050781-183.945312 13.816406 13.816406v52.960938l-35.441406-35.433594-4.863281-4.855469zm-280.324219-162.289062c11.660156-.03125 22.84375 4.605468 31.066406 12.871093l173.371094 173.355469-42.1875 42.175781-19.953125 19.953125-173.359375-173.378906c-12.550781-12.566406-16.296875-31.453125-9.5-47.859375s22.804688-27.105469 40.5625-27.117187zm148.988282 261.472656 68.578124-68.570313 6.175782 6.179688-31.84375 31.824219-36.753906 36.746093zm146.0625 163.753906-49.039063-49.355469 17.261719 1.246094 26.578125 26.636719c2.71875 2.71875 7.121093 2.738281 9.867187.042968l12.570313-12.378906c1.335937-1.316406 2.089843-3.113281 2.089843-4.988281v-54.195313l5.839844-5.839843v73.671875zm0 0"/></svg>