<svg id="Capa_1" enable-background="new 0 0 512.001 512.001" height="512" viewBox="0 0 512.001 512.001" width="512" xmlns="http://www.w3.org/2000/svg"><g><path d="m.846 355.026c1.597 3.631 5.188 5.974 9.154 5.974h86v100c0 5.522 4.477 10 10 10h60c5.523 0 10-4.478 10-10v-100h40v100c0 5.522 4.477 10 10 10h60c5.522 0 10-4.478 10-10v-100h40v100c0 5.522 4.478 10 10 10h60c5.522 0 10-4.478 10-10v-100h86c3.967 0 7.558-2.344 9.154-5.975 1.597-3.631.897-7.862-1.785-10.785l-39.666-43.24h10.027c4.045 0 7.691-2.437 9.239-6.173 1.548-3.737.691-8.038-2.168-10.898-52.466-52.609-51.741-51.421-57.524-57.929h14.242c4.044 0 7.69-2.436 9.238-6.172s.693-8.037-2.166-10.897c-19.566-20.349-34.902-32.42-52.614-57.931h9.332c4.045 0 7.69-2.437 9.238-6.173 1.548-3.737.692-8.038-2.167-10.898-14.492-14.492-27.19-30.75-37.743-48.319-2.843-4.734-8.987-6.271-13.721-3.424-4.734 2.843-6.268 8.986-3.424 13.721 7.412 12.343 15.807 24.086 25.076 35.094h-4.85c-3.586 0-6.897 1.92-8.679 5.033-1.781 3.112-1.76 6.94.057 10.032 20.776 35.366 43.446 54.586 48.287 59.935h-11.103c-3.8 0-7.271 2.154-8.96 5.559-1.688 3.405-1.3 7.472 1.002 10.496 19.78 26.001 24.07 26.573 55.266 58.945h-8.628c-3.967 0-7.558 2.344-9.154 5.975s-.896 7.862 1.785 10.785l39.666 43.239h-64.17l-36.694-40h10.026c4.045 0 7.691-2.437 9.238-6.173 1.548-3.737.692-8.038-2.167-10.898-52.363-52.507-51.728-51.409-57.524-57.929h14.243c4.044 0 7.69-2.436 9.238-6.172s.693-8.037-2.166-10.897c-19.566-20.349-34.902-32.42-52.614-57.931h9.333c4.045 0 7.691-2.437 9.239-6.173 1.548-3.737.691-8.038-2.168-10.898-2.834-2.834-5.599-5.751-8.29-8.712 7.348-9.232 14.129-18.967 20.199-29.05 2.849-4.731 1.322-10.876-3.41-13.725-4.73-2.849-10.877-1.322-13.725 3.41-4.918 8.169-10.343 16.09-16.177 23.672-20.708-26.896-28.339-47.331-36.725-62.997-1.694-3.387-5.156-5.527-8.943-5.527s-7.249 2.14-8.943 5.526c-8.363 15.625-15.973 36.041-36.709 62.979-20.76-26.954-28.412-47.47-36.713-62.977-1.693-3.388-5.155-5.528-8.943-5.529-.001 0-.001 0-.002 0-3.787 0-7.249 2.14-8.943 5.526-7.857 13.756-20.274 49.549-58.128 87.402-2.86 2.86-3.715 7.161-2.167 10.898 1.548 3.736 5.194 6.163 9.239 6.163h9.332c-17.77 25.596-33.08 37.621-52.614 57.941-2.859 2.86-3.714 7.161-2.166 10.897s5.194 6.172 9.238 6.162h14.243c-5.652 6.388-4.809 5.079-57.524 57.939-2.86 2.86-3.715 7.161-2.167 10.898 1.548 3.736 5.194 6.173 9.239 6.173h10.026l-39.666 43.24c-2.682 2.925-3.382 7.157-1.786 10.788zm155.154 95.974h-40v-90h40zm120 0h-40v-90h40zm80 0v-90h40v90zm-100-377.648c1.604 2.822 12.889 28.716 37.257 57.648h-4.847c-3.586 0-6.897 1.92-8.679 5.033-1.781 3.112-1.76 6.94.057 10.032 20.776 35.366 43.446 54.586 48.287 59.935h-11.105c-3.8 0-7.271 2.154-8.96 5.559-1.688 3.405-1.3 7.472 1.002 10.496 19.739 25.95 24.007 26.509 55.266 58.945h-8.627c-3.967 0-7.558 2.344-9.154 5.975s-.896 7.862 1.785 10.785l39.665 43.24h-263.893l39.666-43.24c2.681-2.923 3.381-7.154 1.785-10.785-1.597-3.631-5.188-5.975-9.154-5.975h-8.628c31.172-32.347 35.51-32.977 55.266-58.945 2.301-3.024 2.689-7.091 1.001-10.496-1.688-3.404-5.159-5.559-8.959-5.559h-11.104c4.628-5.113 27.498-24.547 48.287-59.935 3.91-6.655-.897-15.065-8.622-15.065h-3.191c.477-.995.778-2.055.908-3.135 22.016-26.951 33.619-52.613 34.691-54.513zm-183.591 224.408c2.681-2.923 3.381-7.154 1.785-10.785s-5.187-5.975-9.154-5.975h-8.628c31.172-32.347 35.473-32.932 55.266-58.944 2.301-3.024 2.689-7.092 1.002-10.497-1.688-3.404-5.16-5.559-8.96-5.559h-11.105c4.644-5.131 27.487-24.528 48.287-59.935 1.816-3.093 1.838-6.92.057-10.033-1.782-3.112-5.093-5.032-8.679-5.032h-4.843c23.725-28.159 36.167-55.737 37.249-57.64 1.464 2.614 11.606 25.58 32.534 51.851-2.714 2.987-5.482 5.908-8.291 8.717-2.86 2.86-3.715 7.161-2.167 10.898 1.548 3.736 5.194 6.163 9.239 6.163l9.332.01c-17.728 25.534-33.081 37.616-52.614 57.931-2.859 2.86-3.714 7.161-2.166 10.897s5.194 6.162 9.238 6.162l14.243.01c-5.918 6.66-6.655 6.92-57.524 57.929-2.86 2.86-3.715 7.161-2.167 10.898 1.548 3.736 5.194 6.173 9.239 6.173h10.026l-36.693 40h-64.17z"/><circle cx="347" cy="51" r="10"/></g></svg>