<svg height="512pt" viewBox="0 -12 512 512" width="512pt" xmlns="http://www.w3.org/2000/svg"><path d="m500.011719 103.464844c6.609375 0 11.988281-5.378906 11.988281-11.988282v-28.039062c0-6.609375-5.378906-11.988281-11.988281-11.988281h-78.066407l24.171876-24.171875c2.925781-2.925782 2.925781-7.671875 0-10.597656-2.925782-2.925782-7.671876-2.925782-10.597657 0l-10.183593 10.1875v-19.375c0-4.136719-3.355469-7.492188-7.496094-7.492188-4.136719 0-7.492188 3.355469-7.492188 7.492188v34.359374l-9.597656 9.597657h-55.203125c-.757813-1.921875-1.574219-3.828125-2.484375-5.699219-8.664062-17.8125-23.535156-31.648438-41.867188-38.96875-3.203124-1.277344-6.816406-1.152344-9.921874.351562-3.109376 1.5-5.460938 4.257813-6.449219 7.558594-1.269531 4.234375-.164063 8.84375 2.882812 12.027344 6.828125 7.136719 11.796875 15.625 14.738281 24.730469h-60.246093c-18.558594-26.867188-52.605469-39.355469-84.351563-30.453125l-2.148437.605468c-5.171875 1.449219-8.195313 6.839844-6.746094 12.007813l5.007813 17.839844h-24.835938c-4.136719 0-7.492188 3.355469-7.492188 7.496093 0 4.136719 3.351563 7.492188 7.492188 7.492188h34.492188.066406 74.386718c.03125 0 .0625.003906.09375.003906.027344 0 .058594-.003906.085938-.003906h67.152344c.558594 7.324219-.136719 14.78125-2.15625 22.042969h-288.261719v-22.046875h78.949219c4.136718 0 7.492187-3.351563 7.492187-7.492188 0-4.136718-3.355469-7.492187-7.492187-7.492187h-81.945313c-6.609375 0-11.988281 5.378906-11.988281 11.988281v28.039062c0 6.609376 5.378906 11.988282 11.988281 11.988282h43.550781l7.839844 7.835937c-17.308594 8.953125-29.527344 35.015625-29.527344 66.609375 0 39.226563 18.828126 69.953125 42.859376 69.953125 21.171874 0 38.402343-23.582031 42.117187-56.796875 11.613281 3.167969 21.773437 1.332032 28.394531-5.289062 12.734375-12.738282 6.875-38.546875-13.339844-58.761719-16.597656-16.597656-36.980468-23.773437-50.988281-18.355469-.398437-.09375-.800781-.167968-1.203125-.238281l-4.957031-4.960937h91.816406s20.824219 74.707031 21.214844 76.039062c-17.761719 19.125-45.617187 57.703125-52.703125 116.851562-7.054688 58.898438-26.792969 90.296876-60.742188 127.632813-6.898437 7.585937-10.433593 17.40625-9.945312 27.652344.488281 10.242187 4.933594 19.683593 12.519531 26.582031 7.082031 6.441406 16.25 9.984375 25.816407 9.984375h.003906c10.796875 0 21.152344-4.578125 28.414062-12.5625 33.820313-37.195313 58.59375-73.15625 72.058594-125.890625.535156.269531 1.097656.511719 1.730469.691406 6.507812 1.863282 10.839843-4.25 12.261719-6.257812 1.820312-2.566406 3.753906-5.925782 5.625-9.175782.253906-.449218.539062-.9375.835937-1.453124.09375.414062.1875.808593.273437 1.179687 2.628907 11.316406 4.707032 20.253906 12.859376 20.410156h.214843c7.824219 0 10.082031-8.179687 13.191407-19.460937.132812-.472656.273437-.992188.425781-1.539063.257812.503907.5.984375.726562 1.425781 5.351563 10.523438 9.21875 18.117188 17.027344 16.382813 7.957031-1.78125 8.203125-10.957031 8.519531-22.570313.007813-.378906.019532-.785156.03125-1.210937.394532.445313.769532.867187 1.109375 1.257813 2.484375 2.808593 5.050781 5.714843 7.34375 7.863281 1.683594 1.578125 6.585938 6.160156 12.121094 4.179687 10.539063 11.84375 22.78125 23.617188 37.203125 35.53125 41.875 34.585938 45.933594 74.292969 46.085938 75.96875.074218.796875.269531 1.558594.566406 2.257813 3.722656 12.628906 15.851562 32.726562 38.960937 32.726562 2.183594 0 4.46875-.179687 6.851563-.5625 25.617187-4.113281 30.949218-28.042969 30.1875-40.164062-.105469-1.578125-1.253906-16.023438-8.316406-36.464844-1.351563-3.910156-5.617188-5.988281-9.53125-4.636719-3.910157 1.351563-5.984376 5.617188-4.632813 9.53125 6.539063 18.929688 7.492187 32.042969 7.527344 32.515625.113281 2.191407.601562 21.5-17.609375 24.421875-9.222656 1.480469-16.582032-1.484375-22.488282-9.066406-4.289062-5.515625-6.292968-11.648438-6.726562-13.109375-1-7.695313-8.273438-49.402344-51.332031-84.972656-55.769531-46.066407-77.605469-90.09375-93.058594-145.164063-.089844-.628906-1.152344-4.160156-1.46875-5.328125 6.894531-1.738281 13.230469-4.875 18.707031-9.082031l25.207032 7.34375c1.460937.425781 2.949218.660156 4.4375.722656 13.03125 44.1875 30.578124 77.902344 75.992187 115.414063 19.871094 16.417969 35.996094 35.71875 47.929687 57.371093 1.363282 2.476563 3.925782 3.878907 6.566407 3.878907 1.222656 0 2.464843-.300781 3.609375-.933594 3.625-1.996094 4.945312-6.554687 2.945312-10.179687-12.84375-23.308594-30.175781-44.066407-51.507812-61.6875-42.894532-35.433594-59.265625-67.328126-71.539063-109.382813 2.136719-2.164063 3.714844-4.835937 4.589844-7.839844l28.976563-97.121093h66.035156l15.492187 15.492187c-7.199219 13.742187-.511719 35.761719 17.210938 53.484375 13 13 28.308593 20.058594 40.972656 20.058594 7.027344 0 13.238281-2.175782 17.785156-6.71875 12.734375-12.738282 6.875-38.546875-13.339843-58.761719-16.890626-16.890625-37.683594-23.753906-51.496094-18.121094l-5.433594-5.433593h65.167969zm-335.191407-68.785156c21.074219-4.816407 43.039063 1.808593 57.96875 16.769531h-53.265624zm-41.535156 102.933593c14.570313 14.566407 19.058594 31.851563 13.339844 37.566407-3.097656 3.101562-9.8125 3.1875-17.511719.222656-3.222656-1.242188-6.878906-.878906-9.777343.976562-2.894532 1.847656-4.761719 5-4.988282 8.4375-1.773437 26.5-14.171875 48.0625-27.636718 48.0625-13.183594 0-27.871094-22.574218-27.871094-54.96875 0-26.296875 9.679687-46.125 20.378906-52.652344v26.242188c0 4.140625 3.351562 7.492188 7.492188 7.492188 4.140624 0 7.492187-3.351563 7.492187-7.492188v-19.371094l10.1875 10.183594c1.460937 1.460938 3.378906 2.195312 5.296875 2.195312s3.835938-.734374 5.300781-2.195312c2.925781-2.925781 2.925781-7.667969 0-10.597656l-9.683593-9.683594c7.757812.878906 18.339843 5.9375 27.980468 15.582031zm357.894532 0c14.570312 14.570313 19.058593 31.851563 13.339843 37.566407-5.71875 5.71875-23 1.230468-37.566406-13.335938-10.691406-10.691406-15.949219-22.839844-15.730469-30.8125l11.28125 11.28125c3.53125 2.925781 7.0625 2.925781 10.59375 0 2.925782-2.925781 2.925782-7.667969 0-10.597656l-9.664062-9.664063c7.824218.972657 18.347656 6.164063 27.746094 15.5625zm15.835937-71.179687v22.042968h-146.378906c.761719-7.367187.476562-14.78125-.828125-22.042968zm-257.882813 135.101562c-15.644531 0-29.015624-9.90625-34.175781-23.777344-1.390625-4.03125-2.277343-8.425781-2.277343-12.675781 0-20.097656 16.351562-36.453125 36.453124-36.453125 20.097657 0 36.453126 16.355469 36.453126 36.453125 0 20.101563-16.355469 36.453125-36.453126 36.453125zm31.554688-77.03125c-1.457031-1.136718-2.96875-2.195312-4.542969-3.171875l-5.011719-17.867187h35.394532c-6.125 9.46875-15.128906 16.890625-25.839844 21.039062zm-25.121094-21.039062 3.109375 11.082031c-3.09375-.585937-6.28125-.902344-9.542969-.902344-19.203124 0-35.972656 10.582031-44.808593 26.21875l-10.210938-36.398437zm-123.527344 362.097656c-4.425781 4.867188-10.738281 7.65625-17.328124 7.65625-5.828126.003906-11.417969-2.160156-15.734376-6.085938-4.625-4.207031-7.335937-9.964843-7.632812-16.207031-.296875-6.246093 1.855469-12.234375 6.0625-16.859375 36.039062-39.632812 57-73.039062 64.53125-135.933594 6.078125-50.71875 28.472656-85.058593 44.800781-103.964843 8.835938 12.839843 23.34375 21.488281 39.878907 22.285156.089843.371094.167968.746094.269531 1.113281.132812.5.273437.996094.40625 1.496094-10.820313 10.777344-33.316407 38.261719-38.871094 84.636719-8.945313 74.675781-35.859375 117.296875-76.382813 161.863281zm149.203126-158.367188c-5.730469 2.0625-6.792969 7.820313-7.175782 16.507813-4.007812-7.503906-7.636718-12.445313-13.710937-11.824219-6.078125.613282-8.640625 6.175782-11.070313 14.328125-2.109375-8.4375-4.300781-13.863281-10.328125-14.738281-5.808593-.839844-9.625 3.5625-13.839843 10.4375.125-5.734375-.214844-10.144531-2.246094-13.109375.144531-1.105469.292968-2.195313.429687-3.3125 4.160157-34.746094 18.609375-57.453125 28.835938-69.574219 7.757812 25.332032 17.277343 48.515625 31.203125 70.804688-.6875.078125-1.386719.222656-2.097656.480468zm45.476562-152.785156-3.308594-.964844c-3.972656-1.160156-8.132812 1.125-9.289062 5.097657-1.15625 3.972656 1.125 8.132812 5.097656 9.289062l3.097656.902344-3.960937 13.601563s-.027344.085937-.027344.089843l-4.070313 13.96875c-.363281 1.238281-1.230468 1.871094-1.71875 2.136719-.054687.03125-.117187.066406-.1875.097656-.015624.007813-.03125.015625-.046874.019532-.539063.246093-1.425782.492187-2.492188.183593l-17.90625-5.214843c5.46875-8.171876 8.664062-17.984376 8.664062-28.535157 0-10.75-3.320312-20.738281-8.980468-29 15.550781-7.636719 27.730468-20.902343 33.976562-37.148437.628906-1.617188 1.191406-3.261719 1.691406-4.925782 2.953126-9.859374 3.445313-24.851562 2-37.054687-1.300781-11-6.269531-21.347656-12.621093-30.617187 23.792969 15.203124 35.136719 44.433593 26.714843 72.539062zm0 0"/><path d="m239.132812 140.011719c-13.824218 0-25.070312 11.246093-25.070312 25.070312s11.246094 25.070313 25.070312 25.070313c13.824219 0 25.070313-11.246094 25.070313-25.070313s-11.246094-25.070312-25.070313-25.070312zm0 35.15625c-5.5625 0-10.085937-4.523438-10.085937-10.085938s4.523437-10.085937 10.085937-10.085937c5.558594 0 10.085938 4.523437 10.085938 10.085937s-4.527344 10.085938-10.085938 10.085938zm0 0"/></svg>