<?xml version="1.0" encoding="UTF-8" standalone="no"?>
<svg
   xmlns:dc="http://purl.org/dc/elements/1.1/"
   xmlns:cc="http://creativecommons.org/ns#"
   xmlns:rdf="http://www.w3.org/1999/02/22-rdf-syntax-ns#"
   xmlns:svg="http://www.w3.org/2000/svg"
   xmlns="http://www.w3.org/2000/svg"
   viewBox="0 0 267 267"
   height="267"
   width="267"
   id="svg335"
   version="1.1">
  <metadata
     id="metadata341">
    <rdf:RDF>
      <cc:Work
         rdf:about="">
        <dc:format>image/svg+xml</dc:format>
        <dc:type
           rdf:resource="http://purl.org/dc/dcmitype/StillImage" />
        <dc:title></dc:title>
      </cc:Work>
    </rdf:RDF>
  </metadata>
  <defs
     id="defs339" />
  <path
     id="path345"
     d="M 108.88971,260.50112 C 97.160607,258.37175 83.524357,250.3208 83.524357,245.52521 c 0,-1.64378 -0.917903,-2.01366 -6.387864,-2.57407 -11.975703,-1.22694 -27.184102,-7.94878 -33.883694,-14.97597 -6.948074,-7.28781 -11.272602,-16.32559 -8.601592,-17.97636 0.985663,-0.60918 0.642929,-1.07637 -1.34368,-1.83168 C 29.47539,206.71016 18.89091,195.62044 14.900266,188.88123 7.5459678,176.46163 1.8235209,158.56231 3.9770175,154.71424 c 0.7624114,-1.36237 1.6781999,-0.3007 5.0675248,5.87483 2.2753187,4.14575 4.2881457,7.3865 4.4729607,7.20169 0.184814,-0.18482 -1.334379,-3.76059 -3.37599,-7.94617 C 6.5856132,152.55449 5.3574018,148.5007 3.1047475,136.61934 1.7991916,129.73335 2.6070111,112.66578 4.657101,103.82135 6.9958426,93.731572 9.0477927,88.30188 14.612858,77.477348 c 2.215029,-4.308418 4.528022,-8.000387 5.139984,-8.204375 0.736662,-0.245554 1.112664,1.366066 1.112664,4.769095 0,6.102363 1.051093,5.673735 2.035424,-0.830036 2.058882,-13.603564 6.804996,-22.995703 16.292427,-32.24128 6.099702,-5.944205 14.809312,-11.067275 18.815219,-11.067275 3.593025,0 2.27575,3.537438 -2.977871,7.996836 -11.958687,10.150807 -16.473698,14.904143 -19.435924,20.461849 -1.718918,3.225027 -2.935469,6.401839 -2.703455,7.059585 0.232023,0.657745 1.080082,-0.346095 1.884582,-2.230755 0.804491,-1.884661 3.40075,-5.517291 5.769451,-8.072513 3.894218,-4.200849 4.939749,-4.761463 10.915289,-5.85278 3.634703,-0.663809 6.608551,-1.547021 6.608551,-1.962695 0,-0.415673 -0.44057,-0.755769 -0.979045,-0.755769 -1.777455,0 -1.027164,-2.698462 2.906353,-10.452828 4.389281,-8.652837 11.20072,-16.931602 16.880803,-20.517285 4.711202,-2.974049 14.451285,-6.0546072 20.35367,-6.4373862 3.73838,-0.2424398 4.36212,-0.026209 4.11802,1.4276112 -0.37306,2.221792 0.64748,2.170239 3.16171,-0.159719 3.09015,-2.8636594 10.90491,-6.7199847 17.19375,-8.4845411 8.42605,-2.36422862 22.46416,-1.65085977 28.79222,1.4631213 4.62496,2.2758987 4.73195,2.4210528 2.88611,3.9156622 -1.77357,1.4361017 -0.96149,1.5568414 10.86172,1.6149027 12.9449,0.063569 14.68478,0.4066217 27.95379,5.5116579 14.28035,5.494135 28.58888,18.29124 35.58421,31.825423 2.25757,4.367812 2.06769,5.502551 -0.82813,4.948981 -3.73501,-0.713992 -2.91777,0.431577 2.61548,3.666278 6.60788,3.86292 18.28243,15.257312 22.61982,22.077012 4.3613,6.857295 8.27025,18.102731 9.54612,27.462725 1.82389,13.38035 2.2221,21.09783 1.18429,22.95229 -0.91613,1.63702 -1.19821,1.4927 -3.06376,-1.56746 -1.1301,-1.85377 -2.05638,-4.11548 -2.05839,-5.02603 -0.002,-0.91055 -0.44423,-1.92784 -0.9827,-2.26063 -1.52146,-0.94031 -1.19181,0.82107 1.69099,9.03555 2.42871,6.92051 2.67207,8.89137 2.69238,21.80435 0.0249,15.82264 -0.48322,17.84348 -8.60311,34.21606 -4.15688,8.38176 -12.2865,18.26892 -13.12291,15.95997 -0.24383,-0.67309 -0.84719,-1.2238 -1.34078,-1.2238 -0.49361,0 -0.89016,0.55071 -0.88122,1.2238 0.0448,3.37992 -8.82333,18.32817 -14.35932,24.20415 -6.9442,7.37069 -16.7192,13.61111 -17.62461,11.25166 -0.81184,-2.11564 1.67547,-5.39036 9.0052,-11.85597 9.72953,-8.58249 14.1177,-15.15067 15.60337,-23.35508 0.19502,-1.07695 0.80066,-4.45812 1.34587,-7.51369 1.08823,-6.09878 3.19842,-10.87974 6.29843,-14.27005 1.95898,-2.14243 4.53595,-2.95059 4.68279,-1.46857 0.04,0.40386 0.267,1.78753 0.5044,3.07483 0.23739,1.2873 -0.48903,4.93366 -1.61428,8.10302 -1.12525,3.16936 -1.82758,6.30154 -1.56073,6.96038 0.38058,0.93964 0.50185,0.93811 0.56247,-0.007 0.0425,-0.66274 1.88986,-5.06844 4.10523,-9.79044 6.56593,-13.99517 6.10011,-12.66492 8.66325,-24.7397 2.39428,-11.27931 2.47554,-16.47366 0.41965,-26.82603 -1.97362,-9.93813 -4.50584,-17.62931 -8.88063,-26.9735 -4.92059,-10.510189 -6.3287,-21.587138 -2.74415,-21.587138 2.37948,0 6.1121,8.304931 11.8337,26.329578 0.23814,0.75016 0.69178,1.10512 1.00811,0.78879 0.87647,-0.87646 -5.27602,-18.841291 -9.27303,-27.076627 -4.18367,-8.619897 -13.05041,-18.57138 -19.02655,-21.354217 -2.27734,-1.060458 -6.6981,-2.240829 -9.82394,-2.623046 -4.38458,-0.536132 -6.49924,-1.404428 -9.25374,-3.799661 -3.32076,-2.887643 -3.17173,-2.526998 2.13148,5.15806 4.50582,6.529545 5.49069,8.600932 4.69513,9.874834 -0.84502,1.353105 -0.27448,1.880332 3.55186,3.282198 4.98973,1.828099 7.99576,3.984897 9.73474,6.984593 2.18887,3.775766 1.36721,-1.508216 -1.21983,-7.84447 -2.10744,-5.161602 -2.22438,-6.049473 -0.96394,-7.318428 1.26414,-1.272698 1.75287,-1.25472 4.11627,0.151411 1.47499,0.877564 4.00352,3.69446 5.61894,6.259766 l 2.93714,4.664193 v 23.087174 c 0,17.94757 -0.27244,23.03268 -1.22381,22.8424 -1.64571,-0.32914 -1.56834,0.15486 1.29119,8.07712 2.6865,7.44291 4.22039,13.98463 5.01077,21.36987 0.42615,3.98208 0.15497,5.09953 -1.72256,7.09807 -3.90142,4.15286 -6.76231,2.74809 -6.79724,-3.33762 -0.0294,-5.11348 -1.66193,-5.46512 -2.35929,-0.50816 -0.36746,2.61205 -1.12892,6.21055 -1.69211,7.99667 -0.56319,1.78612 -0.83615,3.43532 -0.60659,3.66489 0.8599,0.8599 10.1522,-4.37825 12.52509,-7.06048 3.9146,-4.42495 6.83356,-8.94497 6.83356,-10.58175 0,-1.97062 1.58163,-1.94334 2.34286,0.0404 1.11096,2.89511 0.59937,7.33079 -1.26558,10.97318 -1.96492,3.83761 -13.69314,15.69554 -17.55278,17.74692 -2.74214,1.45743 -5.48849,0.64327 -4.70627,-1.39518 0.30821,-0.80317 0.13363,-1.46031 -0.38793,-1.46031 -0.52158,0 -0.9514,0.77099 -0.95515,1.71332 -0.016,3.99547 -7.84113,24.32209 -11.09514,28.82054 -2.37926,3.28916 -7.15253,5.45071 -8.67487,3.92837 -0.7687,-0.7687 -0.38712,-2.51487 1.36808,-6.26037 3.17896,-6.78379 5.16256,-11.86528 7.06771,-18.10586 1.92162,-6.2945 1.94426,-7.17754 0.11716,-4.56898 -0.78839,1.12558 -2.70142,2.30011 -4.25117,2.61007 -1.74753,0.3495 -4.27084,2.31086 -6.64368,5.16409 -5.40585,6.5003 -13.02209,14.25675 -17.04305,17.35677 -2.7855,2.14754 -3.15712,2.81395 -1.98612,3.5617 1.24318,0.79386 1.15195,1.60288 -0.66596,5.90575 l -2.10647,4.98588 3.11356,-1.89219 c 1.71246,-1.0407 5.09613,-2.19598 7.51926,-2.5673 2.42314,-0.37131 5.9477,-1.05871 7.83236,-1.52757 1.88466,-0.46885 4.53667,-1.07569 5.89337,-1.34852 1.35669,-0.27282 5.32182,-2.71205 8.8114,-5.4205 10.45405,-8.11395 15.24344,-5.49645 5.91267,3.23139 -8.36297,7.82258 -21.47775,12.72776 -32.76971,12.2565 l -7.21582,-0.30114 -3.32123,4.35443 c -2.35483,3.08738 -4.45117,4.67592 -7.20448,5.45933 -7.38408,2.10103 -8.29143,-0.23451 -2.33172,-6.00194 2.19953,-2.12856 4.89429,-5.63239 5.98835,-7.78629 1.09405,-2.1539 2.70886,-4.73715 3.58845,-5.74055 1.55301,-1.7716 1.48962,-1.77868 -2.19172,-0.24476 -2.08504,0.86878 -4.93663,1.57961 -6.33687,1.57961 h -2.54589 l 2.17593,1.52408 c 2.31643,1.6225 2.89456,4.76953 1.08198,5.88977 -2.95003,1.82322 -21.22416,-5.59661 -23.78586,-9.65774 -0.77445,-1.22777 -0.63654,-2.0307 0.55316,-3.2204 2.39992,-2.39992 7.87042,-1.93543 13.06605,1.10942 2.73493,1.60277 4.85636,2.30345 5.23663,1.72957 0.35157,-0.53057 3.77615,-2.81658 7.61019,-5.08002 3.83403,-2.26344 8.61639,-5.75125 10.62745,-7.75069 3.81356,-3.79152 8.67956,-12.58398 7.77465,-14.04816 -1.14282,-1.84911 -2.56683,-0.63116 -4.44787,3.80425 -5.01245,11.81911 -7.79293,14.90063 -10.32295,11.4406 -0.71573,-0.97881 -1.30132,-2.56819 -1.30132,-3.53196 0,-4.90897 -7.40599,-2.51269 -25.13721,8.13339 -15.53434,9.32705 -22.83597,11.33749 -22.83597,6.2877 0,-2.68901 2.95431,-5.45649 9.30092,-8.71273 l 4.89522,-2.51158 -6.9782,-0.0456 c -8.18852,-0.0534 -9.57181,0.983 -9.33621,6.99561 0.10836,2.76549 1.22142,5.61398 3.58532,9.17534 1.88549,2.84062 3.42817,6.13274 3.42817,7.31582 0,2.54605 0.99546,2.42045 11.15797,-1.40783 8.10912,-3.05476 13.31814,-3.37085 13.31814,-0.80817 0,1.80333 -2.69599,3.4762 -11.50377,7.13815 -2.82699,1.17535 -5.13998,2.42482 -5.13998,2.7766 0,0.35177 1.66605,0.48071 3.70233,0.28652 2.03875,-0.19443 6.32797,0.52462 9.54569,1.60025 8.67313,2.89927 15.89115,3.48979 25.38739,2.07698 4.6026,-0.68475 8.66164,-0.95172 9.0201,-0.59326 0.35846,0.35846 -0.41471,1.81121 -1.71815,3.22836 -2.02977,2.20684 -2.08627,2.42952 -0.39369,1.55157 1.0869,-0.56378 3.72602,-3.15686 5.86471,-5.76238 8.079,-9.8425 12.98456,-13.24085 15.22188,-10.54503 0.84595,1.01929 0.62401,2.01028 -0.94304,4.211 -1.12713,1.58291 -2.04933,3.16983 -2.04933,3.52649 0,0.35666 -1.18046,2.19614 -2.62325,4.08773 -3.58142,4.69549 -12.52013,11.41843 -20.5617,15.46475 -10.7728,5.42065 -23.80919,7.06204 -23.80919,2.9978 0,-2.13715 3.46849,-3.96483 12.97234,-6.83563 4.71166,-1.42323 8.56329,-2.89147 8.55918,-3.26273 -0.004,-0.37128 -4.14992,-0.7158 -9.21293,-0.76562 -8.73397,-0.086 -9.14733,0.003 -8.07037,1.727 0.96026,1.53763 0.64556,2.27512 -2.0431,4.78789 -10.09194,9.43173 -31.14064,13.72458 -50.2681,10.25209 z m 29.45225,-6.87118 c 2.95671,-0.7868 7.8916,-3.20471 10.96641,-5.37313 3.07481,-2.16842 6.49323,-3.94257 7.59649,-3.94257 1.10325,0 2.00592,-0.44057 2.00592,-0.97905 0,-0.53847 -0.99128,-0.99342 -2.20285,-1.01101 -2.27707,-0.033 -9.96749,-2.57577 -14.68567,-4.85563 -1.48986,-0.71991 -2.69237,-2.10533 -2.69237,-3.10191 0,-2.21528 0.15725,-2.21952 -5.03307,0.13565 -4.66638,2.11742 -10.07833,2.51373 -13.99456,1.02478 -4.03862,-1.53549 -3.04646,-3.62231 2.38387,-5.01407 5.30264,-1.35902 6.4861,-2.84252 2.26763,-2.84252 -1.86527,0 -3.97333,-1.39617 -7.26609,-4.81235 -4.52007,-4.68949 -4.68182,-4.76448 -6.33554,-2.93714 -1.1134,1.2303 -3.07591,1.90257 -5.70626,1.95474 -3.91887,0.0777 -3.95054,0.10558 -1.40549,1.23658 3.66401,1.62826 6.69722,4.57094 6.69722,6.49734 0,2.84604 4.0253,5.5747 17.95472,12.17111 8.60304,4.07403 13.39948,6.86909 13.13939,7.65676 -0.25603,0.77538 -2.65044,1.34916 -6.38596,1.5303 -5.23632,0.25391 -6.86331,-0.15312 -13.1394,-3.2871 -3.93967,-1.96728 -9.49997,-5.32416 -12.35621,-7.45973 -3.31609,-2.47938 -4.74499,-3.1652 -3.95324,-1.89741 0.68195,1.09199 0.96108,2.26428 0.62026,2.60508 -0.95345,0.95346 -7.720336,2.35601 -11.544269,2.39274 l -3.426656,0.0329 5.226923,2.43328 c 2.874808,1.33831 6.490542,3.33306 8.034972,4.43279 1.54444,1.09974 4.47916,2.61283 6.52162,3.36243 4.94196,1.81376 19.9737,1.84028 26.71221,0.0471 z m -37.80694,-19.18198 c 1.7585,-0.0263 1.75336,-0.11766 -0.12242,-2.17866 -2.736712,-3.00694 -4.400158,-6.47871 -3.823814,-7.98065 0.365967,-0.95369 -1.426752,-1.38157 -7.184895,-1.71491 -4.916125,-0.28459 -8.581501,-1.03973 -10.202682,-2.10198 -2.749353,-1.80144 -3.31667,-1.21049 -1.197479,1.24736 0.732981,0.85012 2.520217,3.60952 3.971631,6.132 l 2.638946,4.58634 -2.10473,1.12642 c -1.157603,0.61953 -3.122144,0.87106 -4.365638,0.55896 -4.715538,-1.18352 -14.93648,-15.10189 -23.981725,-32.6571 -2.572714,-4.99318 -2.936321,-6.40468 -1.954584,-7.5876 0.983861,-1.18546 0.907407,-1.45326 -0.41489,-1.45326 -2.748961,0 -11.174658,-4.75577 -11.672482,-6.58836 -1.500513,-5.52372 -1.53151,-6.96186 -0.174368,-8.08819 1.064466,-0.88343 2.207892,-0.92581 4.396233,-0.16296 3.540058,1.23408 3.802658,0.26268 0.66621,-2.46442 -1.260265,-1.09578 -3.282129,-4.03894 -4.493041,-6.54035 -1.210911,-2.50141 -2.272499,-4.548 -2.359076,-4.54798 -0.08655,1e-5 -0.129224,5.73359 -0.09477,12.7413 0.04151,8.44352 0.454336,13.13294 1.223806,13.9024 1.657102,1.65712 1.435769,6.39278 -0.345377,7.38956 -1.164006,0.65142 0.327813,2.05023 6.561879,6.1528 10.114793,6.65646 13.546462,9.53047 13.546462,11.34514 0,1.81752 -4.820404,1.00931 -12.925845,-2.16719 l -5.718081,-2.2409 2.008216,2.62788 c 1.104519,1.44532 3.445013,4.61042 5.201096,7.03356 3.704147,5.11118 11.248703,9.95751 19.125586,12.28554 3.039376,0.89828 5.966699,1.80004 6.505174,2.0039 0.538474,0.20386 6.48617,0.14522 13.217101,-0.13028 6.730931,-0.27552 13.064018,-0.51328 14.073527,-0.52837 z M 84.312106,214.54158 c 8.050732,0.33513 8.304961,0.28564 4.680166,-0.91098 -5.003956,-1.6519 -9.140409,-6.67417 -9.95144,-12.08252 -0.350694,-2.33863 -1.034556,-4.49736 -1.519683,-4.79719 -0.485116,-0.29983 -0.64053,-0.9359 -0.345348,-1.41352 0.295172,-0.47761 -0.512422,-1.55578 -1.794667,-2.39594 -2.013385,-1.31922 -3.386319,-1.37015 -10.066399,-0.37341 -4.254281,0.6348 -7.074204,1.33506 -6.266492,1.55615 2.735,0.74862 5.874267,2.54358 5.874267,3.35876 0,1.25755 5.899703,13.4426 8.211551,16.95986 1.603214,2.43913 2.135492,2.76427 2.366644,1.44566 0.26209,-1.49513 1.329572,-1.6583 8.811401,-1.34687 z m 27.800514,0.14794 c -0.57426,-0.69193 -1.16354,-7.60074 -1.34368,-15.75346 -0.30696,-13.89182 -0.42102,-14.60204 -2.63217,-16.39038 -3.13849,-2.53834 -6.26984,-2.34857 -9.764175,0.59172 -5.938267,4.99672 -6.730138,14.06723 -1.909107,21.86783 1.174168,1.89984 2.040485,4.69274 1.925144,6.20645 -0.204757,2.68729 -0.08811,2.7538 4.945828,2.821 2.83554,0.0378 6.03667,0.44744 7.11362,0.91022 2.70943,1.16428 2.82633,1.14648 1.66454,-0.25338 z m 39.45533,-19.54178 c 9.31606,-6.05607 13.97837,-14.4208 10.42453,-18.7029 -0.63844,-0.76929 -3.14821,-1.95515 -5.57726,-2.63523 -6.24043,-1.74721 -11.42205,0.58329 -13.64405,6.13663 -1.48099,3.70137 -1.45184,4.29513 0.52432,10.68025 1.77211,5.7258 1.89105,7.00947 0.77678,8.3838 -1.6013,1.97505 -1.03698,1.68425 7.49568,-3.86255 z m -116.815715,0.62184 c -3.334469,-2.33555 -5.075328,-6.65638 -5.075328,-12.59701 0,-2.98834 -0.44057,-5.43336 -0.979045,-5.43336 -0.538474,0 -0.979044,0.66086 -0.979044,1.46857 0,0.80771 -0.609583,1.46856 -1.354636,1.46856 -1.451766,0 -7.562698,-6.32966 -9.368496,-9.70383 -0.601858,-1.12458 -1.587648,-2.0447 -2.190632,-2.0447 -0.650546,0 -0.481318,0.69667 0.416172,1.71333 0.831885,0.94233 3.291274,5.27455 5.465311,9.62716 2.846484,5.69888 5.514223,9.34088 9.531654,13.01258 3.068365,2.80431 5.827381,4.85022 6.13113,4.54646 0.303758,-0.30374 -0.414929,-1.22974 -1.597086,-2.05776 z M 63.000803,176.5154 c 1.794696,-1.21156 4.861798,-4.51026 6.815775,-7.33042 5.364577,-7.74264 7.255934,-9.43019 16.187101,-14.44281 10.133121,-5.6872 11.444914,-6.81125 14.266531,-12.22464 1.70225,-3.26585 2.35082,-6.42545 2.66414,-12.97889 0.40713,-8.51537 0.34644,-8.80008 -3.581036,-16.80006 -7.07674,-14.414787 -19.240781,-23.113386 -32.32153,-23.113386 -3.051868,0 -6.904692,0.388847 -8.561833,0.864115 -1.700679,0.48774 -3.671632,0.495514 -4.525193,0.01782 -1.638695,-0.917061 -1.652275,-0.878408 -4.333104,12.335151 -0.764742,3.76932 -1.988831,9.71702 -2.720207,13.2171 -0.731375,3.50009 -1.871209,9.2275 -2.532964,12.72758 -0.661766,3.50009 -1.582567,6.77249 -2.046233,7.272 -0.492537,0.53062 -1.740858,-1.09756 -3.002514,-3.91617 -1.839566,-4.1097 -2.149492,-6.49233 -2.092052,-16.08341 0.03711,-6.19245 0.588817,-13.24157 1.226068,-15.66471 0.63725,-2.423136 1.407298,-5.435727 1.711232,-6.694641 l 0.552602,-2.288938 -2.533708,2.533699 c -1.393533,1.393533 -3.122849,2.533699 -3.842916,2.533699 -1.924303,0 -8.878133,7.585831 -12.096419,13.195781 -1.537814,2.68064 -3.489452,7.71823 -4.336961,11.19462 -0.84751,3.47639 -2.043159,6.48813 -2.657,6.69274 -3.055255,1.01842 -2.510163,-16.50088 0.745249,-23.95242 4.885716,-11.183261 16.948994,-23.774479 22.777628,-23.774479 2.147671,0 2.585098,0.489274 2.844721,3.181895 0.268983,2.789775 0.597531,2.277002 2.666066,-4.160939 3.283245,-10.218556 5.62604,-14.574302 8.557339,-15.909889 2.145703,-0.977649 2.71487,-0.872545 3.876301,0.715805 1.788626,2.446095 1.720133,4.012052 -0.465261,10.63641 -2.004535,6.07615 -1.513995,7.162384 1.177154,2.606638 2.49627,-4.225852 4.614433,-4.992154 12.952133,-4.685788 6.408032,0.235462 7.621822,0.01198 8.820408,-1.623957 1.175372,-1.604261 1.184967,-2.208575 0.06217,-3.916178 -2.032056,-3.090482 -7.949088,-4.714393 -18.999603,-5.214376 -10.950123,-0.495441 -13.294034,0.07234 -20.618286,4.994487 -3.133383,2.105739 -4.522677,2.560786 -5.335793,1.747672 -2.130832,-2.130829 -2.666046,-1.033711 -2.687604,5.509192 -0.02203,6.701752 -0.87745,8.687733 -5.136577,11.925967 -1.478661,1.124238 -2.01599,1.059327 -3.677419,-0.444246 -2.145527,-1.941675 -2.690933,-1.762763 -3.233069,1.060546 -0.385803,2.009193 -1.259698,4.548786 -2.674721,7.772907 -5.104611,11.630853 -6.682947,23.879653 -4.85702,37.693223 1.412507,10.68593 1.415747,10.70093 4.43934,20.55993 1.458855,4.75688 4.328934,10.193 8.97454,16.99838 l 3.249566,4.76032 v -7.87848 c 0,-4.33316 0.45178,-9.06674 1.003941,-10.51904 0.972975,-2.55912 1.063556,-2.5866 2.937134,-0.89104 2.316733,2.09662 2.644674,0.41852 0.674072,-3.44918 -0.685889,-1.34619 -2.061916,-5.09103 -3.05783,-8.32188 -0.995923,-3.23085 -2.191709,-6.88057 -2.657303,-8.11049 -1.456593,-3.84778 -2.941011,-20.06453 -2.282329,-24.93362 0.968569,-7.15973 7.541316,-11.139272 8.713036,-5.2754 0.230232,1.15218 0.648999,6.28028 0.930602,11.39578 0.28171,5.11734 1.375263,11.99956 2.431183,15.3005 2.145811,6.70805 8.116024,22.48803 11.435387,30.22508 0.693046,1.61542 1.575106,4.25884 1.960115,5.87426 0.38501,1.61543 1.130435,3.48382 1.656495,4.15197 0.52607,0.66816 0.761912,2.54059 0.524092,4.16094 -0.413881,2.81993 -0.278137,2.94611 3.169432,2.94611 2.115695,0 4.948198,-0.90891 6.864913,-2.20286 z m 156.454217,-5.90303 c 0.58024,-2.30434 1.80633,-5.93904 2.72466,-8.07711 2.10715,-4.90599 2.23977,-5.67166 3.09232,-17.85324 0.38683,-5.52731 1.1439,-10.07568 1.68238,-10.10752 0.53847,-0.0318 1.70684,2.28766 2.59639,5.15442 0.88954,2.86676 1.66053,4.45057 1.71332,3.51958 0.22629,-3.99054 -6.7483,-22.16642 -15.17954,-39.55818 -2.90643,-5.995289 -5.28441,-11.17198 -5.28441,-11.503779 0,-1.083401 4.58175,-0.634411 7.95756,0.779819 3.80534,1.594178 7.16236,4.889469 8.56534,8.40788 0.79698,1.99868 0.98716,1.21622 1.03784,-4.269916 0.0603,-6.529319 0.0142,-6.65919 -1.65126,-4.647713 l -1.71333,2.069299 -4.89522,-2.419738 c -2.69238,-1.330865 -6.33808,-2.433523 -8.10158,-2.450363 -5.56806,-0.05316 -13.82951,3.526489 -18.74058,8.120228 -6.30321,5.895923 -7.72968,6.517613 -18.3621,8.002633 -12.58799,1.75816 -13.3461,2.5086 -12.84772,12.71755 0.30375,6.22177 0.98397,9.05752 3.29044,13.71742 7.39693,14.94443 15.44972,23.73658 25.47121,27.80985 13.43997,5.4627 23.78002,10.75651 24.82544,12.70991 1.65183,3.08647 2.64672,2.5339 3.81884,-2.12103 z m 9.94697,1.25257 c 0.57895,-1.08176 0.64546,-1.95809 0.14864,-1.95809 -0.49463,0 -1.12973,0.88114 -1.41136,1.95809 -0.28164,1.07695 -0.34851,1.95809 -0.14863,1.95809 0.19987,0 0.83499,-0.88114 1.41135,-1.95809 z m 3.17675,-23.98659 c -0.25734,-1.34618 -0.90423,-2.44761 -1.43755,-2.44761 -0.5333,0 -0.70223,0.69688 -0.37538,1.54864 0.32685,0.85175 0.59427,1.95318 0.59427,2.44761 0,0.49443 0.37948,0.89897 0.84328,0.89897 0.4638,0 0.63273,-1.10142 0.37538,-2.44761 z m 3.05157,-26.4342 c -0.30996,-0.80771 -0.94315,-1.46857 -1.40711,-1.46857 -0.46397,0 -0.58999,0.66086 -0.28004,1.46857 0.30996,0.80771 0.94315,1.46857 1.40711,1.46857 0.46397,0 0.58998,-0.66086 0.28004,-1.46857 z m -2.62239,-6.54736 c -0.31253,-0.78101 -0.54453,-0.54903 -0.5915,0.59151 -0.0425,1.03207 0.18888,1.61032 0.51421,1.28499 0.32533,-0.32533 0.3601,-1.16976 0.0772,-1.8765 z m 23.79233,1.40738 c -0.0273,-1.33999 -1.8272,-3.62415 -2.40244,-3.04892 -0.77124,0.77125 0.4573,3.7832 1.54313,3.7832 0.48086,0 0.86755,-0.33043 0.85931,-0.73428 z M 180.74516,76.163384 c 6.57527,-3.42539 7.62113,-3.671369 15.61013,-3.671417 4.70948,-2.9e-5 8.56447,-0.27703 8.56664,-0.615558 0.002,-0.338527 -1.20762,-1.117751 -2.68843,-1.731607 -2.23736,-0.927478 -7.2935,-6.798987 -10.93541,-12.698877 -0.66569,-1.078432 -1.23074,-0.93538 -2.90041,0.734283 -1.1405,1.140508 -2.97896,2.07365 -4.08545,2.07365 -6.4602,0 -19.52718,10.416726 -19.52718,15.566654 0,5.278018 6.22985,5.411854 15.96011,0.342872 z M 131.25277,70.78011 c 3.81012,-3.556424 2.96585,-7.371949 -2.80519,-12.67755 -4.52664,-4.161546 -4.96905,-4.938249 -4.6023,-8.079733 0.22317,-1.911576 0.11382,-3.475592 -0.24299,-3.475592 -0.35682,0 -1.82675,2.624914 -3.26651,5.833144 -2.92986,6.528599 -3.65533,15.635748 -1.45657,18.285086 3.09183,3.72543 8.452,3.775094 12.37356,0.114645 z M 87.440535,48.015801 c 0,-4.242526 0.413382,-7.342834 0.979044,-7.342834 0.538475,0 0.979045,-0.44057 0.979045,-0.979044 0,-0.558352 -2.910435,-0.979045 -6.773236,-0.979045 -10.51063,0 -11.744432,-1.04769 -7.438359,-6.316324 2.262356,-2.768075 2.757097,-2.90696 11.75762,-3.300612 8.785025,-0.384227 9.297536,-0.519629 7.883022,-2.082645 -2.074772,-2.292596 -1.910782,-3.57408 0.934743,-7.304763 1.346186,-1.764941 2.447611,-3.502742 2.447611,-3.861782 0,-0.359038 -3.501073,1.107509 -7.780164,3.258994 -10.282327,5.169853 -19.504858,13.762309 -22.662443,21.114161 -1.884759,4.388322 -2.897404,5.593383 -5.068132,6.031156 -4.035494,0.813842 -4.263396,2.252261 -0.356852,2.252261 5.22803,0 13.408201,2.099408 17.755267,4.556819 6.732899,3.806127 7.342834,3.386947 7.342834,-5.046342 z m 64.994775,4.833205 c 0.32305,-0.841821 -0.0521,-2.767094 -0.83359,-4.278384 -3.01724,-5.834698 -22.4944,-21.183119 -31.44989,-24.783189 -6.65127,-2.673781 -7.73784,-4.789874 -3.38526,-6.592771 1.64034,-0.67945 2.98243,-1.622485 2.98243,-2.09563 0,-2.166715 -4.1683,0.506907 -9.19648,5.898785 -2.21134,2.371293 -5.34233,5.123209 -6.95775,6.115369 l -2.93713,1.803927 3.45356,0.0036 c 4.79075,0.0051 7.67629,2.19598 7.06993,5.367968 -0.26253,1.373341 -0.86529,2.736759 -1.33947,3.029819 -0.47418,0.293058 -0.86215,1.24314 -0.86215,2.111291 0,2.364609 -2.89459,5.114163 -4.66765,4.433775 -1.22822,-0.471312 -1.37277,-0.205823 -0.70226,1.289832 0.46436,1.035814 0.79058,3.34205 0.72492,5.124969 -0.17627,4.787071 1.67093,3.412805 4.431,-3.296532 4.39857,-10.692304 7.97992,-17.693863 9.97324,-19.497799 1.9227,-1.740014 2.09854,-1.711195 6.63263,1.086993 5.92369,3.655763 6.33631,5.98369 2.12208,11.972373 -2.62115,3.724818 -2.76722,4.167608 -0.81748,2.478004 1.30566,-1.13146 2.9117,-2.361033 3.56899,-2.732382 1.89892,-1.072854 7.12456,2.119572 13.65064,8.339394 6.38207,6.082571 7.59511,6.682089 8.53969,4.220528 z m 34.01134,-3.119877 c -0.50892,-0.94233 -6.27472,-6.953204 -12.8129,-13.357498 -7.78986,-7.630365 -11.69748,-12.139539 -11.33612,-13.081254 0.42683,-1.112312 9.8e-4,-1.299036 -1.88235,-0.826235 -6.74706,1.693404 -14.19857,1.79108 -18.08253,0.23703 -5.52706,-2.211492 -4.89456,-0.778002 1.4213,3.221192 2.92001,1.848946 8.24676,6.605354 11.83725,10.569795 9.17627,10.13201 11.3819,11.036403 20.94534,8.58843 1.92125,-0.491785 3.29604,0.118839 6.36379,2.826529 4.52711,3.995757 4.79435,4.13306 3.54622,1.822011 z m 33.63176,-1.260455 c -0.34525,-0.558632 -2.07909,-1.990485 -3.85296,-3.181895 -1.77388,-1.19141 -7.57524,-5.490537 -12.89191,-9.553615 -13.73923,-10.49972 -23.02919,-14.641336 -32.67422,-14.566706 l -3.42666,0.02651 3.91618,1.511179 c 2.1539,0.831148 5.23789,2.006376 6.85331,2.611619 4.05642,1.519796 10.32306,7.49137 16.24616,15.481199 2.74376,3.70112 5.12598,6.729309 5.29384,6.729309 0.16786,0 0.0748,-0.88114 -0.20686,-1.958089 -0.43198,-1.651872 -0.0301,-1.958089 2.57015,-1.958089 3.30942,0 14.6543,3.484619 16.18859,4.972378 1.26798,1.229529 2.76166,1.143866 1.98438,-0.113805 z M 134.50062,18.278172 c -1.10053,-2.056357 0.5737,-4.115877 4.8494,-5.965405 2.55778,-1.106412 2.79676,-1.117537 -12.99247,0.604819 -5.46663,0.596323 -7.9445,2.300223 -3.34507,2.300223 1.25645,0 2.60741,0.322966 3.00214,0.717702 0.5489,0.548901 5.37104,2.68793 9.18878,4.076005 0.15356,0.05584 -0.16269,-0.724171 -0.70278,-1.733344 z"
     style="fill:#000000;stroke-width:0.97904456" />
</svg>
