<?xml version="1.0" encoding="UTF-8" standalone="no"?>
<svg
   xmlns:dc="http://purl.org/dc/elements/1.1/"
   xmlns:cc="http://creativecommons.org/ns#"
   xmlns:rdf="http://www.w3.org/1999/02/22-rdf-syntax-ns#"
   xmlns:svg="http://www.w3.org/2000/svg"
   xmlns="http://www.w3.org/2000/svg"
   viewBox="0 0 267 267"
   height="267"
   width="267"
   id="svg335"
   version="1.1">
  <metadata
     id="metadata341">
    <rdf:RDF>
      <cc:Work
         rdf:about="">
        <dc:format>image/svg+xml</dc:format>
        <dc:type
           rdf:resource="http://purl.org/dc/dcmitype/StillImage" />
        <dc:title></dc:title>
      </cc:Work>
    </rdf:RDF>
  </metadata>
  <defs
     id="defs339" />
  <path
     id="path345"
     d="M 108.88971,260.50112 C 97.160607,258.37175 83.524357,250.3208 83.524357,245.52521 c 0,-1.64378 -0.917903,-2.01366 -6.387864,-2.57407 -11.975703,-1.22694 -27.184102,-7.94878 -33.883694,-14.97597 -6.948074,-7.28781 -11.272602,-16.32559 -8.601592,-17.97636 0.985663,-0.60918 0.642929,-1.07637 -1.34368,-1.83168 C 29.47539,206.71016 18.89091,195.62044 14.900266,188.88123 7.5459678,176.46163 1.8235209,158.56231 3.9770175,154.71424 c 0.7624114,-1.36237 1.6781999,-0.3007 5.0675248,5.87483 2.2753187,4.14575 4.2881457,7.3865 4.4729607,7.20169 0.184814,-0.18482 -1.334379,-3.76059 -3.37599,-7.94617 C 6.5856132,152.55449 5.3574018,148.5007 3.1047475,136.61934 1.7991916,129.73335 2.6070111,112.66578 4.657101,103.82135 6.9958426,93.731572 9.0477927,88.30188 14.612858,77.477348 c 2.215029,-4.308418 4.528022,-8.000387 5.139984,-8.204375 0.736662,-0.245554 1.112664,1.366066 1.112664,4.769095 0,6.102363 1.051093,5.673735 2.035424,-0.830036 2.058882,-13.603564 6.804996,-22.995703 16.292427,-32.24128 6.099702,-5.944205 14.809312,-11.067275 18.815219,-11.067275 3.593025,0 2.27575,3.537438 -2.977871,7.996836 -11.958687,10.150807 -16.473698,14.904143 -19.435924,20.461849 -1.718918,3.225027 -2.935469,6.401839 -2.703455,7.059585 0.232023,0.657745 1.080082,-0.346095 1.884582,-2.230755 0.804491,-1.884661 3.40075,-5.517291 5.769451,-8.072513 3.894218,-4.200849 4.939749,-4.761463 10.915289,-5.85278 3.634703,-0.663809 6.608551,-1.547021 6.608551,-1.962695 0,-0.415673 -0.44057,-0.755769 -0.979045,-0.755769 -1.777455,0 -1.027164,-2.698462 2.906353,-10.452828 4.389281,-8.652837 11.20072,-16.931602 16.880803,-20.517285 4.711202,-2.974049 14.451285,-6.0546072 20.35367,-6.4373862 3.73838,-0.2424398 4.36212,-0.026209 4.11802,1.4276112 -0.37306,2.221792 0.64748,2.170239 3.16171,-0.159719 3.09015,-2.8636594 10.90491,-6.7199847 17.19375,-8.4845411 8.42605,-2.36422862 22.46416,-1.65085977 28.79222,1.4631213 4.62496,2.2758987 4.73195,2.4210528 2.88611,3.9156622 -1.77357,1.4361017 -0.96149,1.5568414 10.86172,1.6149027 12.9449,0.063569 14.68478,0.4066217 27.95379,5.5116579 14.28035,5.494135 28.58888,18.29124 35.58421,31.825423 2.25757,4.367812 2.06769,5.502551 -0.82813,4.948981 -3.73501,-0.713992 -2.91777,0.431577 2.61548,3.666278 6.60788,3.86292 18.28243,15.257312 22.61982,22.077012 4.3613,6.857295 8.27025,18.102731 9.54612,27.462725 1.82389,13.38035 2.2221,21.09783 1.18429,22.95229 -0.91613,1.63702 -1.19821,1.4927 -3.06376,-1.56746 -1.1301,-1.85377 -2.05638,-4.11548 -2.05839,-5.02603 -0.002,-0.91055 -0.44423,-1.92784 -0.9827,-2.26063 -1.52146,-0.94031 -1.19181,0.82107 1.69099,9.03555 2.42871,6.92051 2.67207,8.89137 2.69238,21.80435 0.0249,15.82264 -0.48322,17.84348 -8.60311,34.21606 -4.15688,8.38176 -12.2865,18.26892 -13.12291,15.95997 -0.24383,-0.67309 -0.84719,-1.2238 -1.34078,-1.2238 -0.49361,0 -0.89016,0.55071 -0.88122,1.2238 0.0448,3.37992 -8.82333,18.32817 -14.35932,24.20415 -6.9442,7.37069 -16.7192,13.61111 -17.62461,11.25166 -0.81184,-2.11564 1.67547,-5.39036 9.0052,-11.85597 9.72953,-8.58249 14.1177,-15.15067 15.60337,-23.35508 0.19502,-1.07695 0.80066,-4.45812 1.34587,-7.51369 1.08823,-6.09878 3.19842,-10.87974 6.29843,-14.27005 1.95898,-2.14243 4.53595,-2.95059 4.68279,-1.46857 0.04,0.40386 0.267,1.78753 0.5044,3.07483 0.23739,1.2873 -0.48903,4.93366 -1.61428,8.10302 -1.12525,3.16936 -1.82758,6.30154 -1.56073,6.96038 0.38058,0.93964 0.50185,0.93811 0.56247,-0.007 0.0425,-0.66274 1.88986,-5.06844 4.10523,-9.79044 6.56593,-13.99517 6.10011,-12.66492 8.66325,-24.7397 2.39428,-11.27931 2.47554,-16.47366 0.41965,-26.82603 -1.97362,-9.93813 -4.50584,-17.62931 -8.88063,-26.9735 -4.92059,-10.510189 -6.3287,-21.587138 -2.74415,-21.587138 2.37948,0 6.1121,8.304931 11.8337,26.329578 0.23814,0.75016 0.69178,1.10512 1.00811,0.78879 0.87647,-0.87646 -5.27602,-18.841291 -9.27303,-27.076627 -4.18367,-8.619897 -13.05041,-18.57138 -19.02655,-21.354217 -2.27734,-1.060458 -6.6981,-2.240829 -9.82394,-2.623046 -4.38458,-0.536132 -6.49924,-1.404428 -9.25374,-3.799661 -3.32076,-2.887643 -3.17173,-2.526998 2.13148,5.15806 4.50582,6.529545 5.49069,8.600932 4.69513,9.874834 -0.84502,1.353105 -0.27448,1.880332 3.55186,3.282198 4.98973,1.828099 7.99576,3.984897 9.73474,6.984593 2.18887,3.775766 1.36721,-1.508216 -1.21983,-7.84447 -2.10744,-5.161602 -2.22438,-6.049473 -0.96394,-7.318428 1.26414,-1.272698 1.75287,-1.25472 4.11627,0.151411 1.47499,0.877564 4.00352,3.69446 5.61894,6.259766 l 2.93714,4.664193 v 23.087174 c 0,17.94757 -0.27244,23.03268 -1.22381,22.8424 -1.64571,-0.32914 -1.56834,0.15486 1.29119,8.07712 2.6865,7.44291 4.22039,13.98463 5.01077,21.36987 0.42615,3.98208 0.15497,5.09953 -1.72256,7.09807 -3.90142,4.15286 -6.76231,2.74809 -6.79724,-3.33762 -0.0294,-5.11348 -1.66193,-5.46512 -2.35929,-0.50816 -0.36746,2.61205 -1.12892,6.21055 -1.69211,7.99667 -0.56319,1.78612 -0.83615,3.43532 -0.60659,3.66489 0.8599,0.8599 10.1522,-4.37825 12.52509,-7.06048 3.9146,-4.42495 6.83356,-8.94497 6.83356,-10.58175 0,-1.97062 1.58163,-1.94334 2.34286,0.0404 1.11096,2.89511 0.59937,7.33079 -1.26558,10.97318 -1.96492,3.83761 -13.69314,15.69554 -17.55278,17.74692 -2.74214,1.45743 -5.48849,0.64327 -4.70627,-1.39518 0.30821,-0.80317 0.13363,-1.46031 -0.38793,-1.46031 -0.52158,0 -0.9514,0.77099 -0.95515,1.71332 -0.016,3.99547 -7.84113,24.32209 -11.09514,28.82054 -2.37926,3.28916 -7.15253,5.45071 -8.67487,3.92837 -0.7687,-0.7687 -0.38712,-2.51487 1.36808,-6.26037 3.17896,-6.78379 5.16256,-11.86528 7.06771,-18.10586 1.92162,-6.2945 1.94426,-7.17754 0.11716,-4.56898 -0.78839,1.12558 -2.70142,2.30011 -4.25117,2.61007 -1.74753,0.3495 -4.27084,2.31086 -6.64368,5.16409 -5.40585,6.5003 -13.02209,14.25675 -17.04305,17.35677 -2.7855,2.14754 -3.15712,2.81395 -1.98612,3.5617 1.24318,0.79386 1.15195,1.60288 -0.66596,5.90575 l -2.10647,4.98588 3.11356,-1.89219 c 1.71246,-1.0407 5.09613,-2.19598 7.51926,-2.5673 2.42314,-0.37131 5.9477,-1.05871 7.83236,-1.52757 1.88466,-0.46885 4.53667,-1.07569 5.89337,-1.34852 1.35669,-0.27282 5.32182,-2.71205 8.8114,-5.4205 10.45405,-8.11395 15.24344,-5.49645 5.91267,3.23139 -8.36297,7.82258 -21.47775,12.72776 -32.76971,12.2565 l -7.21582,-0.30114 -3.32123,4.35443 c -2.35483,3.08738 -4.45117,4.67592 -7.20448,5.45933 -7.38408,2.10103 -8.29143,-0.23451 -2.33172,-6.00194 2.19953,-2.12856 4.89429,-5.63239 5.98835,-7.78629 1.09405,-2.1539 2.70886,-4.73715 3.58845,-5.74055 1.55301,-1.7716 1.48962,-1.77868 -2.19172,-0.24476 -2.08504,0.86878 -4.93663,1.57961 -6.33687,1.57961 h -2.54589 l 2.17593,1.52408 c 2.31643,1.6225 2.89456,4.76953 1.08198,5.88977 -2.95003,1.82322 -21.22416,-5.59661 -23.78586,-9.65774 -0.77445,-1.22777 -0.63654,-2.0307 0.55316,-3.2204 2.39992,-2.39992 7.87042,-1.93543 13.06605,1.10942 2.73493,1.60277 4.85636,2.30345 5.23663,1.72957 0.35157,-0.53057 3.77615,-2.81658 7.61019,-5.08002 3.83403,-2.26344 8.61639,-5.75125 10.62745,-7.75069 3.81356,-3.79152 8.67956,-12.58398 7.77465,-14.04816 -1.14282,-1.84911 -2.56683,-0.63116 -4.44787,3.80425 -5.01245,11.81911 -7.79293,14.90063 -10.32295,11.4406 -0.71573,-0.97881 -1.30132,-2.56819 -1.30132,-3.53196 0,-4.90897 -7.40599,-2.51269 -25.13721,8.13339 -15.53434,9.32705 -22.83597,11.33749 -22.83597,6.2877 0,-2.68901 2.95431,-5.45649 9.30092,-8.71273 l 4.89522,-2.51158 -6.9782,-0.0456 c -8.18852,-0.0534 -9.57181,0.983 -9.33621,6.99561 0.10836,2.76549 1.22142,5.61398 3.58532,9.17534 1.88549,2.84062 3.42817,6.13274 3.42817,7.31582 0,2.54605 0.99546,2.42045 11.15797,-1.40783 8.10912,-3.05476 13.31814,-3.37085 13.31814,-0.80817 0,1.80333 -2.69599,3.4762 -11.50377,7.13815 -2.82699,1.17535 -5.13998,2.42482 -5.13998,2.7766 0,0.35177 1.66605,0.48071 3.70233,0.28652 2.03875,-0.19443 6.32797,0.52462 9.54569,1.60025 8.67313,2.89927 15.89115,3.48979 25.38739,2.07698 4.6026,-0.68475 8.66164,-0.95172 9.0201,-0.59326 0.35846,0.35846 -0.41471,1.81121 -1.71815,3.22836 -2.02977,2.20684 -2.08627,2.42952 -0.39369,1.55157 1.0869,-0.56378 3.72602,-3.15686 5.86471,-5.76238 8.079,-9.8425 12.98456,-13.24085 15.22188,-10.54503 0.84595,1.01929 0.62401,2.01028 -0.94304,4.211 -1.12713,1.58291 -2.04933,3.16983 -2.04933,3.52649 0,0.35666 -1.18046,2.19614 -2.62325,4.08773 -3.58142,4.69549 -12.52013,11.41843 -20.5617,15.46475 -10.7728,5.42065 -23.80919,7.06204 -23.80919,2.9978 0,-2.13715 3.46849,-3.96483 12.97234,-6.83563 4.71166,-1.42323 8.56329,-2.89147 8.55918,-3.26273 -0.004,-0.37128 -4.14992,-0.7158 -9.21293,-0.76562 -8.73397,-0.086 -9.14733,0.003 -8.07037,1.727 0.96026,1.53763 0.64556,2.27512 -2.0431,4.78789 -10.09194,9.43173 -31.14064,13.72458 -50.2681,10.25209 z m 29.45225,-6.87118 c 2.95671,-0.7868 7.8916,-3.20471 10.96641,-5.37313 3.07481,-2.16842 6.49323,-3.94257 7.59649,-3.94257 1.10325,0 2.00592,-0.44057 2.00592,-0.97905 0,-0.53847 -0.99128,-0.99342 -2.20285,-1.01101 -2.27707,-0.033 -9.96749,-2.57577 -14.68567,-4.85563 -1.48986,-0.71991 -2.69237,-2.10533 -2.69237,-3.10191 0,-2.21528 0.15725,-2.21952 -5.03307,0.13565 -4.66638,2.11742 -10.07833,2.51373 -13.99456,1.02478 -4.03862,-1.53549 -3.04646,-3.62231 2.38387,-5.01407 5.30264,-1.35902 6.4861,-2.84252 2.26763,-2.84252 -1.86527,0 -3.97333,-1.39617 -7.26609,-4.81235 -4.52007,-4.68949 -4.68182,-4.76448 -6.33554,-2.93714 -1.1134,1.2303 -3.07591,1.90257 -5.70626,1.95474 -3.91887,0.0777 -3.95054,0.10558 -1.40549,1.23658 3.66401,1.62826 6.69722,4.57094 6.69722,6.49734 0,2.84604 4.0253,5.5747 17.95472,12.17111 8.60304,4.07403 13.39948,6.86909 13.13939,7.65676 -0.25603,0.77538 -2.65044,1.34916 -6.38596,1.5303 -5.23632,0.25391 -6.86331,-0.15312 -13.1394,-3.2871 -3.93967,-1.96728 -9.49997,-5.32416 -12.35621,-7.45973 -3.31609,-2.47938 -4.74499,-3.1652 -3.95324,-1.89741 0.68195,1.09199 0.96108,2.26428 0.62026,2.60508 -0.95345,0.95346 -7.720336,2.35601 -11.544269,2.39274 l -3.426656,0.0329 5.226923,2.43328 c 2.874808,1.33831 6.490542,3.33306 8.034972,4.43279 1.54444,1.09974 4.47916,2.61283 6.52162,3.36243 4.94196,1.81376 19.9737,1.84028 26.71221,0.0471 z m -37.80694,-19.18198 c 1.7585,-0.0263 1.75336,-0.11766 -0.12242,-2.17866 -2.736712,-3.00694 -4.400158,-6.47871 -3.823814,-7.98065 0.365967,-0.95369 -1.426752,-1.38157 -7.184895,-1.71491 -4.916125,-0.28459 -8.581501,-1.03973 -10.202682,-2.10198 -2.749353,-1.80144 -3.31667,-1.21049 -1.197479,1.24736 0.732981,0.85012 2.520217,3.60952 3.971631,6.132 l 2.638946,4.58634 -2.10473,1.12642 c -1.157603,0.61953 -3.122144,0.87106 -4.365638,0.55896 -4.715538,-1.18352 -14.93648,-15.10189 -23.981725,-32.6571 -2.572714,-4.99318 -2.936321,-6.40468 -1.954584,-7.5876 0.983861,-1.18546 0.907407,-1.45326 -0.41489,-1.45326 -2.748961,0 -11.174658,-4.75577 -11.672482,-6.58836 -1.500513,-5.52372 -1.53151,-6.96186 -0.174368,-8.08819 1.064466,-0.88343 2.207892,-0.92581 4.396233,-0.16296 3.540058,1.23408 3.802658,0.26268 0.66621,-2.46442 -1.260265,-1.09578 -3.282129,-4.03894 -4.493041,-6.54035 -1.210911,-2.50141 -2.272499,-4.548 -2.359076,-4.54798 -0.08655,1e-5 -0.129224,5.73359 -0.09477,12.7413 0.04151,8.44352 0.454336,13.13294 1.223806,13.9024 1.657102,1.65712 1.435769,6.39278 -0.345377,7.38956 -1.164006,0.65142 0.327813,2.05023 6.561879,6.1528 10.114793,6.65646 13.546462,9.53047 13.546462,11.34514 0,1.81752 -4.820404,1.00931 -12.925845,-2.16719 l -5.718081,-2.2409 2.008216,2.62788 c 1.104519,1.44532 3.445013,4.61042 5.201096,7.03356 3.704147,5.11118 11.248703,9.95751 19.125586,12.28554 3.039376,0.89828 5.966699,1.80004 6.505174,2.0039 0.538474,0.20386 6.48617,0.14522 13.217101,-0.13028 6.730931,-0.27552 13.064018,-0.51328 14.073527,-0.52837 z M 84.312106,214.54158 c 8.050732,0.33513 8.304961,0.28564 4.680166,-0.91098 -5.003956,-1.6519 -9.140409,-6.67417 -9.95144,-12.08252 -0.350694,-2.33863 -1.034556,-4.49736 -1.519683,-4.79719 -0.485116,-0.29983 -0.64053,-0.9359 -0.345348,-1.41352 0.295172,-0.47761 -0.512422,-1.55578 -1.794667,-2.39594 -2.013385,-1.31922 -3.386319,-1.37015 -10.066399,-0.37341 -4.254281,0.6348 -7.074204,1.33506 -6.266492,1.55615 2.735,0.74862 5.874267,2.54358 5.874267,3.35876 0,1.25755 5.899703,13.4426 8.211551,16.95986 1.603214,2.43913 2.135492,2.76427 2.366644,1.44566 0.26209,-1.49513 1.329572,-1.6583 8.811401,-1.34687 z m 27.800514,0.14794 c -0.57426,-0.69193 -1.16354,-7.60074 -1.34368,-15.75346 -0.30696,-13.89182 -0.42102,-14.60204 -2.63217,-16.39038 -3.13849,-2.53834 -6.26984,-2.34857 -9.764175,0.59172 -5.938267,4.99672 -6.730138,14.06723 -1.909107,21.86783 1.174168,1.89984 2.040485,4.69274 1.925144,6.20645 -0.204757,2.68729 -0.08811,2.7538 4.945828,2.821 2.83554,0.0378 6.03667,0.44744 7.11362,0.91022 2.70943,1.16428 2.82633,1.14648 1.66454,-0.25338 z m 39.45533,-19.54178 c 9.31606,-6.05607 13.97837,-14.4208 10.42453,-18.7029 -0.63844,-0.76929 -3.14821,-1.95515 -5.57726,-2.63523 -6.24043,-1.74721 -11.42205,0.58329 -13.64405,6.13663 -1.48099,3.70137 -1.45184,4.29513 0.52432,10.68025 1.77211,5.7258 1.89105,7.00947 0.77678,8.3838 -1.6013,1.97505 -1.03698,1.68425 7.49568,-3.86255 z m -116.815715,0.62184 c -3.334469,-2.33555 -5.075328,-6.65638 -5.075328,-12.59701 0,-2.98834 -0.44057,-5.43336 -0.979045,-5.43336 -0.538474,0 -0.979044,0.66086 -0.979044,1.46857 0,0.80771 -0.609583,1.46856 -1.354636,1.46856 -1.451766,0 -7.562698,-6.32966 -9.368496,-9.70383 -0.601858,-1.12458 -1.587648,-2.0447 -2.190632,-2.0447 -0.650546,0 -0.481318,0.69667 0.416172,1.71333 0.831885,0.94233 3.291274,5.27455 5.465311,9.62716 2.846484,5.69888 5.514223,9.34088 9.531654,13.01258 3.068365,2.80431 5.827381,4.85022 6.13113,4.54646 0.303758,-0.30374 -0.414929,-1.22974 -1.597086,-2.05776 z M 63.000803,176.5154 c 1.794696,-1.21156 4.861798,-4.51026 6.815775,-7.33042 5.364577,-7.74264 7.255934,-9.43019 16.187101,-14.44281 10.133121,-5.6872 11.444914,-6.81125 14.266531,-12.22464 1.70225,-3.26585 2.35082,-6.42545 2.66414,-12.97889 0.40713,-8.51537 0.34644,-8.80008 -3.581036,-16.80006 -7.07674,-14.414787 -19.240781,-23.113386 -32.32153,-23.113386 -3.051868,0 -6.904692,0.388847 -8.561833,0.864115 -1.700679,0.48774 -3.671632,0.495514 -4.525193,0.01782 -1.638695,-0.917061 -1.652275,-0.878408 -4.333104,12.335151 -0.764742,3.76932 -1.988831,9.71702 -2.720207,13.2171 -0.731375,3.50009 -1.871209,9.2275 -2.532964,12.72758 -0.661766,3.50009 -1.582567,6.77249 -2.046233,7.272 -0.492537,0.53062 -1.740858,-1.09756 -3.002514,-3.91617 -1.839566,-4.1097 -2.149492,-6.49233 -2.092052,-16.08341 0.03711,-6.19245 0.588817,-13.24157 1.226068,-15.66471 0.63725,-2.423136 1.407298,-5.435727 1.711232,-6.694641 l 0.552602,-2.288938 -2.533708,2.533699 c -1.393533,1.393533 -3.122849,2.533699 -3.842916,2.533699 -1.924303,0 -8.878133,7.585831 -12.096419,13.195781 -1.537814,2.68064 -3.489452,7.71823 -4.336961,11.19462 -0.84751,3.47639 -2.043159,6.48813 -2.657,6.69274 -3.055255,1.01842 -2.510163,-16.50088 0.745249,-23.95242 4.885716,-11.183261 16.948994,-23.774479 22.777628,-23.774479 2.147671,0 2.585098,0.489274 2.844721,3.181895 0.268983,2.789775 0.597531,2.277002 2.666066,-4.160939 3.283245,-10.218556 5.62604,-14.574302 8.557339,-15.909889 2.145703,-0.977649 2.71487,-0.872545 3.876301,0.715805 1.788626,2.446095 1.720133,4.012052 -0.465261,10.63641 -2.004535,6.07615 -1.513995,7.162384 1.177154,2.606638 2.49627,-4.225852 4.614433,-4.992154 12.952133,-4.685788 6.408032,0.235462 7.621822,0.01198 8.820408,-1.623957 1.175372,-1.604261 1.184967,-2.208575 0.06217,-3.916178 -2.032056,-3.090482 -7.949088,-4.714393 -18.999603,-5.214376 -10.950123,-0.495441 -13.294034,0.07234 -20.618286,4.994487 -3.133383,2.105739 -4.522677,2.560786 -5.335793,1.747672 -2.130832,-2.130829 -2.666046,-1.033711 -2.687604,5.509192 -0.02203,6.701752 -0.87745,8.687733 -5.136577,11.925967 -1.478661,1.124238 -2.01599,1.059327 -3.677419,-0.444246 -2.145527,-1.941675 -2.690933,-1.762763 -3.233069,1.060546 -0.385803,2.009193 -1.259698,4.548786 -2.674721,7.772907 -5.104611,11.630853 -6.682947,23.879653 -4.85702,37.693223 1.412507,10.68593 1.415747,10.70093 4.43934,20.55993 1.458855,4.75688 4.328934,10.193 8.97454,16.99838 l 3.249566,4.76032 v -7.87848 c 0,-4.33316 0.45178,-9.06674 1.003941,-10.51904 0.972975,-2.55912 1.063556,-2.5866 2.937134,-0.89104 2.316733,2.09662 2.644674,0.41852 0.674072,-3.44918 -0.685889,-1.34619 -2.061916,-5.09103 -3.05783,-8.32188 -0.995923,-3.23085 -2.191709,-6.88057 -2.657303,-8.11049 -1.456593,-3.84778 -2.941011,-20.06453 -2.282329,-24.93362 0.968569,-7.15973 7.541316,-11.139272 8.713036,-5.2754 0.230232,1.15218 0.648999,6.28028 0.930602,11.39578 0.28171,5.11734 1.375263,11.99956 2.431183,15.3005 2.145811,6.70805 8.116024,22.48803 11.435387,30.22508 0.693046,1.61542 1.575106,4.25884 1.960115,5.87426 0.38501,1.61543 1.130435,3.48382 1.656495,4.15197 0.52607,0.66816 0.761912,2.54059 0.524092,4.16094 -0.413881,2.81993 -0.278137,2.94611 3.169432,2.94611 2.115695,0 4.948198,-0.90891 6.864913,-2.20286 z m 156.454217,-5.90303 c 0.58024,-2.30434 1.80633,-5.93904 2.72466,-8.07711 2.10715,-4.90599 2.23977,-5.67166 3.09232,-17.85324 0.38683,-5.52731 1.1439,-10.07568 1.68238,-10.10752 0.53847,-0.0318 1.70684,2.28766 2.59639,5.15442 0.88954,2.86676 1.66053,4.45057 1.71332,3.51958 0.22629,-3.99054 -6.7483,-22.16642 -15.17954,-39.55818 -2.90643,-5.995289 -5.28441,-11.17198 -5.28441,-11.503779 0,-1.083401 4.58175,-0.634411 7.95756,0.779819 3.80534,1.594178 7.16236,4.889469 8.56534,8.40788 0.79698,1.99868 0.98716,1.21622 1.03784,-4.269916 0.0603,-6.529319 0.0142,-6.65919 -1.65126,-4.647713 l -1.71333,2.069299 -4.89522,-2.419738 c -2.69238,-1.330865 -6.33808,-2.433523 -8.10158,-2.450363 -5.56806,-0.05316 -13.82951,3.526489 -18.74058,8.120228 -6.30321,5.895923 -7.72968,6.517613 -18.3621,8.002633 -12.58799,1.75816 -13.3461,2.5086 -12.84772,12.71755 0.30375,6.22177 0.98397,9.05752 3.29044,13.71742 7.39693,14.94443 15.44972,23.73658 25.47121,27.80985 13.43997,5.4627 23.78002,10.75651 24.82544,12.70991 1.65183,3.08647 2.64672,2.5339 3.81884,-2.12103 z m 9.94697,1.25257 c 0.57895,-1.08176 0.64546,-1.95809 0.14864,-1.95809 -0.49463,0 -1.12973,0.88114 -1.41136,1.95809 -0.28164,1.07695 -0.34851,1.95809 -0.14863,1.95809 0.19987,0 0.83499,-0.88114 1.41135,-1.95809 z m 3.17675,-23.98659 c -0.25734,-1.34618 -0.90423,-2.44761 -1.43755,-2.44761 -0.5333,0 -0.70223,0.69688 -0.37538,1.54864 0.32685,0.85175 0.59427,1.95318 0.59427,2.44761 0,0.49443 0.37948,0.89897 0.84328,0.89897 0.4638,0 0.63273,-1.10142 0.37538,-2.44761 z m 3.05157,-26.4342 c -0.30996,-0.80771 -0.94315,-1.46857 -1.40711,-1.46857 -0.46397,0 -0.58999,0.66086 -0.28004,1.46857 0.30996,0.80771 0.94315,1.46857 1.40711,1.46857 0.46397,0 0.58998,-0.66086 0.28004,-1.46857 z m -2.62239,-6.54736 c -0.31253,-0.78101 -0.54453,-0.54903 -0.5915,0.59151 -0.0425,1.03207 0.18888,1.61032 0.51421,1.28499 0.32533,-0.32533 0.3601,-1.16976 0.0772,-1.8765 z m 23.79233,1.40738 c -0.0273,-1.33999 -1.8272,-3.62415 -2.40244,-3.04892 -0.77124,0.77125 0.4573,3.7832 1.54313,3.7832 0.48086,0 0.86755,-0.33043 0.85931,-0.73428 z M 180.74516,76.163384 c 6.57527,-3.42539 7.62113,-3.671369 15.61013,-3.671417 4.70948,-2.9e-5 8.56447,-0.27703 8.56664,-0.615558 0.002,-0.338527 -1.20762,-1.117751 -2.68843,-1.731607 -2.23736,-0.927478 -7.2935,-6.798987 -10.93541,-12.698877 -0.66569,-1.078432 -1.23074,-0.93538 -2.90041,0.734283 -1.1405,1.140508 -2.97896,2.07365 -4.08545,2.07365 -6.4602,0 -19.52718,10.416726 -19.52718,15.566654 0,5.278018 6.22985,5.411854 15.96011,0.342872 z M 131.25277,70.78011 c 3.81012,-3.556424 2.96585,-7.371949 -2.80519,-12.67755 -4.52664,-4.161546 -4.96905,-4.938249 -4.6023,-8.079733 0.22317,-1.911576 0.11382,-3.475592 -0.24299,-3.475592 -0.35682,0 -1.82675,2.624914 -3.26651,5.833144 -2.92986,6.528599 -3.65533,15.635748 -1.45657,18.285086 3.09183,3.72543 8.452,3.775094 12.37356,0.114645 z M 87.440535,48.015801 c 0,-4.242526 0.413382,-7.342834 0.979044,-7.342834 0.538475,0 0.979045,-0.44057 0.979045,-0.979044 0,-0.558352 -2.910435,-0.979045 -6.773236,-0.979045 -10.51063,0 -11.744432,-1.04769 -7.438359,-6.316324 2.262356,-2.768075 2.757097,-2.90696 11.75762,-3.300612 8.785025,-0.384227 9.297536,-0.519629 7.883022,-2.082645 -2.074772,-2.292596 -1.910782,-3.57408 0.934743,-7.304763 1.346186,-1.764941 2.447611,-3.502742 2.447611,-3.861782 0,-0.359038 -3.501073,1.107509 -7.780164,3.258994 -10.282327,5.169853 -19.504858,13.762309 -22.662443,21.114161 -1.884759,4.388322 -2.897404,5.593383 -5.068132,6.031156 -4.035494,0.813842 -4.263396,2.252261 -0.356852,2.252261 5.22803,0 13.408201,2.099408 17.755267,4.556819 6.732899,3.806127 7.342834,3.386947 7.342834,-5.046342 z m 64.994775,4.833205 c 0.32305,-0.841821 -0.0521,-2.767094 -0.83359,-4.278384 -3.01724,-5.834698 -22.4944,-21.183119 -31.44989,-24.783189 -6.65127,-2.673781 -7.73784,-4.789874 -3.38526,-6.592771 1.64034,-0.67945 2.98243,-1.622485 2.98243,-2.09563 0,-2.166715 -4.1683,0.506907 -9.19648,5.898785 -2.21134,2.371293 -5.34233,5.123209 -6.95775,6.115369 l -2.93713,1.803927 3.45356,0.0036 c 4.79075,0.0051 7.67629,2.19598 7.06993,5.367968 -0.26253,1.373341 -0.86529,2.736759 -1.33947,3.029819 -0.47418,0.293058 -0.86215,1.24314 -0.86215,2.111291 0,2.364609 -2.89459,5.114163 -4.66765,4.433775 -1.22822,-0.471312 -1.37277,-0.205823 -0.70226,1.289832 0.46436,1.035814 0.79058,3.34205 0.72492,5.124969 -0.17627,4.787071 1.67093,3.412805 4.431,-3.296532 4.39857,-10.692304 7.97992,-17.693863 9.97324,-19.497799 1.9227,-1.740014 2.09854,-1.711195 6.63263,1.086993 5.92369,3.655763 6.33631,5.98369 2.12208,11.972373 -2.62115,3.724818 -2.76722,4.167608 -0.81748,2.478004 1.30566,-1.13146 2.9117,-2.361033 3.56899,-2.732382 1.89892,-1.072854 7.12456,2.119572 13.65064,8.339394 6.38207,6.082571 7.59511,6.682089 8.53969,4.220528 z m 34.01134,-3.119877 c -0.50892,-0.94233 -6.27472,-6.953204 -12.8129,-13.357498 -7.78986,-7.630365 -11.69748,-12.139539 -11.33612,-13.081254 0.42683,-1.112312 9.8e-4,-1.299036 -1.88235,-0.826235 -6.74706,1.693404 -14.19857,1.79108 -18.08253,0.23703 -5.52706,-2.211492 -4.89456,-0.778002 1.4213,3.221192 2.92001,1.848946 8.24676,6.605354 11.83725,10.569795 9.17627,10.13201 11.3819,11.036403 20.94534,8.58843 1.92125,-0.491785 3.29604,0.118839 6.36379,2.826529 4.52711,3.995757 4.79435,4.13306 3.54622,1.822011 z m 33.63176,-1.260455 c -0.34525,-0.558632 -2.07909,-1.990485 -3.85296,-3.181895 -1.77388,-1.19141 -7.57524,-5.490537 -12.89191,-9.553615 -13.73923,-10.49972 -23.02919,-14.641336 -32.67422,-14.566706 l -3.42666,0.02651 3.91618,1.511179 c 2.1539,0.831148 5.23789,2.006376 6.85331,2.611619 4.05642,1.519796 10.32306,7.49137 16.24616,15.481199 2.74376,3.70112 5.12598,6.729309 5.29384,6.729309 0.16786,0 0.0748,-0.88114 -0.20686,-1.958089 -0.43198,-1.651872 -0.0301,-1.958089 2.57015,-1.958089 3.30942,0 14.6543,3.484619 16.18859,4.972378 1.26798,1.229529 2.76166,1.143866 1.98438,-0.113805 z M 134.50062,18.278172 c -1.10053,-2.056357 0.5737,-4.115877 4.8494,-5.965405 2.55778,-1.106412 2.79676,-1.117537 -12.99247,0.604819 -5.46663,0.596323 -7.9445,2.300223 -3.34507,2.300223 1.25645,0 2.60741,0.322966 3.00214,0.717702 0.5489,0.548901 5.37104,2.68793 9.18878,4.076005 0.15356,0.05584 -0.16269,-0.724171 -0.70278,-1.733344 z"
     style="fill:#000000;stroke-width:0.97904456" />
  <path
     id="path374"
     d="m 114.2004,261.16556 c -6.24565,-0.76347 -10.89471,-1.96444 -16.004963,-4.13448 -8.110593,-3.44411 -14.475098,-8.44064 -14.475098,-11.36384 0,-0.89272 -0.671882,-1.7173 -1.664584,-2.04286 -0.475382,-0.15591 -2.700536,-0.52772 -4.944789,-0.82626 -7.917727,-1.05321 -14.519636,-3.08829 -21.741076,-6.70181 -6.795405,-3.40034 -10.699603,-6.40198 -14.642596,-11.25757 -3.653061,-4.49854 -6.27257,-9.32229 -6.66374,-12.27107 -0.158033,-1.19131 -0.101654,-1.42771 0.515344,-2.16097 0.381033,-0.45284 0.692787,-0.95406 0.692787,-1.11383 0,-0.15977 -0.748691,-0.66808 -1.663759,-1.12957 -2.419006,-1.21997 -4.43446,-2.85096 -8.185693,-6.6242 -3.87353,-3.89624 -7.85069,-8.72124 -9.957896,-12.08067 C 8.8329132,178.88622 2.4906589,160.39927 3.8331292,155.55479 c 0.6424208,-2.31827 1.292769,-1.62579 5.5626572,5.92298 2.4330536,4.30141 3.9831016,6.67495 4.2105616,6.44749 0.206204,-0.20621 -1.045292,-3.26757 -3.288697,-8.0447 C 7.6164263,154.12854 6.7571535,151.86404 5.6045515,147.4598 2.926558,137.22685 2.2766017,131.32408 2.7594879,121.62152 3.331663,110.1249 4.5994508,102.70885 7.4645363,94.098882 9.3827242,88.334469 14.023902,78.368964 17.430702,72.699601 c 2.608548,-4.340967 2.937891,-4.240231 3.248739,0.993703 0.247139,4.161215 0.37805,4.942269 0.804539,4.800104 0.482076,-0.16069 0.944341,-1.820738 1.673034,-6.008056 1.563372,-8.983669 3.857836,-15.275329 7.785283,-21.348064 4.066149,-6.287195 10.263491,-12.483472 16.574652,-16.571801 5.919888,-3.834868 10.975582,-5.467622 12.074036,-3.899358 0.998061,1.424931 -0.777575,3.718562 -7.263066,9.381867 C 40.735588,50.170735 36.926994,54.59555 34.007401,61.33274 c -0.951244,2.19507 -1.42772,4.445625 -0.941205,4.445625 0.434094,0 1.035039,-0.838617 2.035607,-2.84068 1.960605,-3.923032 7.596818,-10.434507 10.160447,-11.738289 1.339698,-0.681332 3.196815,-1.214398 6.780123,-1.94617 5.841603,-1.192954 7.230024,-1.939628 5.190927,-2.791619 -0.62843,-0.262573 -0.931705,-0.564161 -0.931705,-0.926519 0,-0.949344 1.054554,-3.707363 2.785034,-7.283819 C 63.968648,28.1614 70.85658,19.55499 77.242064,15.566202 80.640836,13.44311 87.298709,11.04554 93.050621,9.8733749 c 2.780082,-0.5665445 7.324839,-0.8237493 7.906259,-0.4474452 0.19225,0.1244247 0.33275,0.7707483 0.33275,1.5306583 0,1.016229 0.0948,1.315296 0.4168,1.315296 0.61031,0 1.44575,-0.489422 2.60445,-1.525759 3.8483,-3.4419005 12.88268,-7.7046553 19.36082,-9.1351527 6.83735,-1.50981729 17.33204,-1.14670264 23.93697,0.8282152 2.09177,0.6254513 6.10693,2.6344381 6.49511,3.249826 0.22272,0.3530927 0.10423,0.6254636 -0.5786,1.329961 -0.97251,1.003377 -1.06366,1.387372 -0.39283,1.6549374 0.25622,0.1021944 5.19759,0.2847804 10.98081,0.4057465 7.75719,0.1622551 11.17822,0.3356675 13.04387,0.6611953 4.39113,0.7661853 14.68093,4.4120273 20.06751,7.1102393 12.43323,6.227976 24.71793,18.194419 30.54681,29.755429 0.96641,1.916788 1.30764,2.880134 1.24631,3.518554 l -0.0845,0.879111 h -2.10497 c -1.32812,0 -2.14293,0.111145 -2.20781,0.301157 -0.13259,0.388246 1.3661,1.564865 4.04658,3.17697 5.98588,3.600046 14.11973,10.915857 19.95836,17.951086 4.36787,5.263036 7.18547,10.718005 9.99917,19.358732 1.99332,6.121376 3.02207,11.595598 4.09106,21.769388 0.89839,8.55022 0.86111,12.31814 -0.13813,13.96127 -0.50682,0.83338 -0.5512,0.85107 -1.03565,0.41265 -1.20652,-1.0919 -3.72576,-6.21943 -3.72576,-7.58325 0,-1.28403 -1.25143,-2.58441 -1.88113,-1.95471 -0.34008,0.34008 0.33176,2.91977 2.26068,8.68048 2.69672,8.05371 2.67934,7.91179 2.68065,21.88834 10e-4,13.3242 -0.12804,14.71384 -1.8427,19.80761 -2.69944,8.01923 -8.81965,19.59633 -13.59903,25.72417 -1.70233,2.18264 -4.72801,5.17959 -5.22923,5.17959 -0.15253,0 -0.62295,-0.37 -1.04538,-0.82221 -0.42243,-0.45221 -0.91971,-0.77203 -1.10506,-0.71071 -0.44018,0.14563 -0.87753,1.08895 -1.24933,2.69472 -0.65351,2.82243 -5.28703,11.10794 -9.74604,17.42754 -2.67496,3.79114 -7.35846,8.68301 -11.07704,11.56987 -4.57347,3.55055 -8.96639,5.89225 -10.17996,5.42656 -0.58985,-0.22635 -0.54127,-1.92241 0.0891,-3.1092 0.77819,-1.46518 3.49921,-4.32407 8.36599,-8.78991 8.99627,-8.25512 13.01866,-13.72676 14.90812,-20.27945 0.35038,-1.21512 1.02216,-4.36554 1.49286,-7.00093 1.17793,-6.59518 1.90935,-9.31235 3.29309,-12.23344 1.38868,-2.93154 2.33995,-4.37122 3.93612,-5.95704 1.41656,-1.40737 2.43178,-1.96614 3.37423,-1.85715 0.66494,0.0769 0.73846,0.21879 1.07721,2.07903 0.47052,2.5839 0.19506,4.43864 -1.44303,9.71635 -1.29043,4.15763 -1.69701,7.26915 -0.98213,7.51615 0.19563,0.0676 0.33275,-0.11072 0.33275,-0.4327 0,-0.84625 1.31529,-3.97869 5.36953,-12.78786 4.18235,-9.0875 5.09841,-11.60483 6.44881,-17.72131 3.16251,-14.32422 3.45613,-19.65413 1.62779,-29.54835 -1.8604,-10.06774 -4.18329,-17.3733 -8.9297,-28.08425 -3.25633,-7.348375 -4.83459,-12.935226 -4.88804,-17.303091 -0.0305,-2.491014 0.15909,-3.476268 0.79033,-4.107506 2.16795,-2.167952 5.35101,3.735239 10.85224,20.126157 1.64093,4.88914 2.28615,6.49354 2.63806,6.5598 1.03304,0.1945 0.27222,-3.2392 -2.55796,-11.54449 -5.1772,-15.192729 -9.16733,-22.454951 -16.59839,-30.209866 -5.95099,-6.210338 -9.55982,-8.104065 -18.18457,-9.542327 -5.48334,-0.9144 -6.69443,-1.427508 -10.1427,-4.29718 -0.87539,-0.728514 -1.6453,-1.324568 -1.71091,-1.324568 -0.46146,0 0.35558,1.412459 3.78324,6.54022 2.14638,3.210979 4.26121,6.602233 4.69963,7.536121 0.70449,1.500681 0.7614,1.796724 0.48981,2.547814 -0.66871,1.849274 -0.41201,2.103012 3.87753,3.832688 3.20666,1.293022 6.2768,3.097048 7.51104,4.413512 0.35669,0.38045 1.07698,1.309639 1.60063,2.064869 1.36236,1.964813 1.73134,1.994854 1.53838,0.12525 -0.13886,-1.345382 -0.76144,-3.305708 -3.46507,-10.910453 l -0.83582,-2.350974 0.52288,-0.968432 c 0.28759,-0.532638 0.8425,-1.146887 1.23315,-1.364999 0.65422,-0.365273 0.82223,-0.344906 2.12899,0.258091 2.03388,0.938527 4.40303,3.473624 7.16439,7.666224 l 2.37472,3.605547 -0.007,18.516468 c -0.007,18.362305 -0.22178,25.837535 -0.77116,26.864075 -0.15688,0.29313 -0.55503,0.57127 -0.88477,0.6181 -0.50855,0.0722 -0.58612,0.22192 -0.51113,0.98633 0.0486,0.49566 0.91138,3.27645 1.91725,6.17954 3.09859,8.94305 4.57679,15.14249 5.32545,22.33453 0.41117,3.94997 0.18431,4.86837 -1.69285,6.85319 -1.42698,1.5088 -2.94562,2.46385 -3.91783,2.46385 -1.51262,0 -2.64455,-2.47078 -2.65849,-5.80298 -0.007,-1.75867 -0.35171,-3.44862 -0.79046,-3.87936 -0.64403,-0.63227 -1.24616,0.79493 -1.97246,4.67529 -0.39214,2.09503 -1.00086,4.88726 -1.35272,6.20496 -0.35185,1.3177 -0.67641,2.87498 -0.72124,3.46062 -0.0788,1.02954 -0.0556,1.06292 0.69941,1.008 2.05534,-0.14951 9.58235,-4.62963 11.99249,-7.138 3.07709,-3.2025 6.34138,-8.20189 6.80104,-10.41606 0.26042,-1.25445 0.37904,-1.4425 0.86516,-1.3716 0.98963,0.14434 1.61749,1.66197 1.73402,4.19137 0.18854,4.09222 -0.88713,7.18262 -3.76425,10.81469 -3.63514,4.58899 -11.95909,12.65569 -14.89602,14.43565 -1.91038,1.15781 -3.8781,1.42127 -4.67362,0.62575 -0.47058,-0.47058 -0.53397,-0.75885 -0.39303,-1.78715 0.15993,-1.16681 0.13851,-1.22171 -0.44314,-1.13583 -0.77947,0.11507 -0.90896,0.40206 -1.42697,3.16273 -0.85044,4.53233 -4.9199,15.52785 -8.41945,22.74903 -2.32506,4.79769 -3.55775,6.32275 -6.27959,7.76899 -2.11003,1.12117 -3.37006,1.34294 -4.27207,0.75192 -0.63485,-0.41597 -0.68187,-0.56515 -0.52921,-1.67891 0.0922,-0.67231 1.17665,-3.50501 2.41,-6.2949 2.95101,-6.6753 4.07459,-9.54977 5.67668,-14.52267 1.52552,-4.73524 2.23885,-7.65976 1.91687,-7.85876 -0.12273,-0.0759 -0.60579,0.33823 -1.07346,0.92018 -1.12524,1.40021 -2.44723,2.2877 -4.33575,2.91073 -2.52536,0.83312 -4.24182,2.24549 -8.11983,6.6813 -4.55398,5.20901 -11.19704,11.99931 -14.14649,14.46003 -4.61182,3.84766 -4.79651,4.12028 -3.56843,5.26759 0.98506,0.92025 0.78828,2.00946 -1.21563,6.72891 -0.91678,2.1591 -1.62151,3.971 -1.56607,4.02643 0.0554,0.0554 0.99778,-0.44773 2.09411,-1.11814 2.7722,-1.69523 5.5827,-2.66204 10.28783,-3.53901 6.84286,-1.27542 12.36476,-2.64934 14.03421,-3.49191 1.79801,-0.90745 3.96385,-2.33611 6.82591,-4.50262 4.17743,-3.16222 7.5531,-4.86067 9.39451,-4.7268 0.98613,0.0717 1.12436,0.16324 1.19714,0.79288 0.14603,1.26342 -1.00806,2.94843 -4.1724,6.0918 -3.60681,3.58294 -6.83921,5.8421 -11.74887,8.21144 -3.84738,1.85671 -7.76789,3.1978 -11.87828,4.06322 -2.59645,0.54668 -3.62933,0.61028 -9.98898,0.61517 l -7.09308,0.005 -1.91888,2.52891 c -3.49335,4.6039 -5.33713,6.14432 -8.53757,7.13283 -2.69339,0.83191 -4.63756,1.00295 -5.43807,0.47844 -0.36607,-0.23987 -0.66558,-0.56499 -0.66558,-0.7225 0,-0.80835 1.14184,-2.42381 3.52148,-4.98216 3.34522,-3.59644 5.31049,-6.21933 6.99348,-9.33359 0.73205,-1.35462 1.95773,-3.28665 2.72373,-4.2934 0.76599,-1.00675 1.30315,-1.88581 1.19369,-1.95346 -0.10946,-0.0677 -1.25489,0.2852 -2.5454,0.78412 -3.03672,1.17402 -5.0871,1.69622 -7.55534,1.92425 l -1.99501,0.1843 1.46397,1.0595 c 1.90286,1.37713 2.66379,2.50056 2.69605,3.98041 0.0375,1.71802 -0.58315,2.28063 -2.51574,2.28063 -6.15551,0 -22.1667,-7.58476 -22.38034,-10.60193 -0.10418,-1.4713 1.16333,-2.82417 3.20098,-3.41653 2.79868,-0.8136 6.03834,-0.0581 11.1085,2.59069 1.76435,0.92173 3.35897,1.57832 3.83318,1.57832 0.53045,0 1.29268,-0.36093 2.19816,-1.04088 0.76237,-0.57248 3.30278,-2.22237 5.64535,-3.66642 5.35192,-3.29912 9.6416,-6.45886 11.74708,-8.65279 2.79754,-2.91507 6.974,-9.86038 7.44766,-12.38524 0.21847,-1.16454 -0.24025,-2.20582 -0.97173,-2.20582 -1.43052,0 -1.89437,0.68123 -4.64508,6.822 -3.13717,7.00352 -5.50984,10.48109 -7.15099,10.48109 -1.32678,0 -2.87342,-2.28206 -3.25514,-4.80293 -0.27307,-1.80338 -0.94934,-2.3845 -2.77493,-2.3845 -3.53114,0 -9.61228,2.8284 -22.75778,10.58489 -9.65452,5.69664 -16.65869,8.84781 -19.66619,8.84781 -2.47818,0 -3.40838,-1.86932 -2.17978,-4.38049 1.11213,-2.2731 3.83561,-4.30231 10.11706,-7.538 l 3.47666,-1.79088 -5.72128,-0.072 c -3.36386,-0.0423 -6.29132,0.0463 -7.10471,0.21517 -2.40689,0.49967 -3.37664,1.66026 -3.68819,4.41401 -0.39644,3.50403 0.67816,6.89672 3.76069,11.87313 1.87418,3.02567 2.96786,5.38683 3.20028,6.90915 0.0967,0.63311 0.29385,1.30084 0.4382,1.48386 0.48966,0.62081 2.18772,0.33633 6.0558,-1.01453 2.1218,-0.74101 5.19342,-1.81179 6.82581,-2.37952 6.19884,-2.15587 10.12877,-2.44071 11.008,-0.79784 0.81583,1.52439 -1.89111,3.47381 -9.22605,6.64417 -4.66688,2.01716 -7.27886,3.35491 -7.27886,3.72795 0,0.41987 0.86584,0.54135 3.85828,0.54135 3.50454,0 5.72085,0.37751 10.12781,1.72511 5.82863,1.78233 8.7748,2.28872 14.23126,2.44609 4.27536,0.12331 5.65252,0.0507 10.44419,-0.55047 6.56634,-0.82386 8.98851,-0.89602 8.98851,-0.26775 0,0.51402 -0.8092,1.71391 -2.17803,3.22956 -0.92066,1.01942 -1.25952,1.6697 -0.87006,1.6697 0.0805,0 0.52274,-0.19465 0.98281,-0.43256 1.24558,-0.64411 3.37045,-2.73876 6.85233,-6.75487 7.93493,-9.15239 11.55844,-11.70682 13.94425,-9.83013 1.16819,0.91889 0.92297,1.95383 -1.20915,5.10322 -0.56926,0.84085 -1.27903,2.09866 -1.57727,2.79512 -2.87545,6.7147 -16.91766,17.41168 -28.54599,21.74557 -8.39896,3.13029 -17.29035,3.78916 -17.90831,1.32702 -0.58875,-2.34578 1.99482,-3.87211 11.91707,-7.04042 6.67814,-2.13242 9.27531,-3.13643 9.27531,-3.58562 0,-0.58662 -2.50507,-0.78129 -10.16801,-0.79018 -7.98712,-0.009 -8.07482,0.01 -7.31876,1.59534 0.81678,1.71281 0.64398,2.18325 -1.61318,4.39177 -5.53268,5.41347 -14.49977,9.24518 -25.88809,11.06221 -3.18949,0.50889 -16.14267,0.75991 -19.2996,0.37401 z m 20.76371,-6.7654 c 4.76471,-0.75436 9.12846,-2.58005 14.37487,-6.0141 3.44175,-2.25281 6.86698,-3.98656 7.87592,-3.98656 0.39416,0 0.99945,-0.23958 1.34509,-0.5324 l 0.62844,-0.5324 -0.62844,-0.53241 c -0.34564,-0.29282 -0.96645,-0.5324 -1.37957,-0.5324 -1.45927,0 -6.9866,-1.61488 -11.11494,-3.24737 -5.07108,-2.00528 -6.40533,-3.02696 -6.63698,-5.0822 -0.12379,-1.09828 -0.21884,-1.25368 -0.76675,-1.25368 -0.34399,0 -1.85575,0.54576 -3.35945,1.21279 -1.5037,0.66704 -3.67707,1.45749 -4.82969,1.75656 -3.62592,0.94081 -8.29006,0.68669 -10.83289,-0.59022 -2.88506,-1.44876 -1.63703,-3.13245 3.34532,-4.51309 2.56659,-0.71122 4.65853,-1.72509 4.65853,-2.25777 0,-0.42456 -0.45434,-0.55843 -2.62274,-0.77281 -2.06099,-0.20376 -3.40225,-1.11382 -7.49231,-5.08363 -1.98367,-1.92534 -3.87502,-3.5708 -4.20299,-3.65657 -0.43582,-0.11397 -0.89985,0.0992 -1.72413,0.79211 -1.8429,1.54913 -3.17383,2.00529 -6.25822,2.14491 -1.50402,0.0681 -2.79635,0.22372 -2.87183,0.34586 -0.0755,0.12214 0.61602,0.5996 1.53668,1.06103 2.40732,1.20653 4.91475,3.05694 5.80193,4.28164 0.42188,0.5824 0.90051,1.70174 1.06362,2.48745 0.60507,2.9146 2.983,4.55592 15.83828,10.93209 9.52018,4.72197 12.79054,6.47215 14.42912,7.72195 0.79052,0.60296 0.87249,0.76125 0.55739,1.07635 -0.65531,0.65531 -3.91826,1.1536 -7.58568,1.15842 -3.03676,0.004 -3.80556,-0.0877 -5.66675,-0.67561 -3.95507,-1.24941 -11.96865,-5.63778 -17.97977,-9.84602 -3.11553,-2.18111 -4.23768,-2.84232 -4.45499,-2.62501 -0.0757,0.0757 0.11752,0.74135 0.42929,1.47929 l 0.56686,1.34172 -0.59729,0.48366 c -1.00995,0.8178 -6.11081,1.86696 -10.650937,2.1907 -3.27498,0.23353 -4.015765,0.35391 -3.503905,0.56938 2.855252,1.20195 9.294282,4.50664 12.361952,6.3445 5.79255,3.47036 7.64925,4.17081 12.5253,4.72529 3.21346,0.36541 14.6765,0.12649 17.82166,-0.37145 z M 90.375374,234.94935 c 5.343993,-0.2142 10.105666,-0.39168 10.581506,-0.39438 1.25466,-0.007 1.11509,-0.53725 -0.71338,-2.70946 -2.202106,-2.61611 -3.584125,-5.31532 -3.55963,-6.9523 0.02717,-1.81512 -0.0625,-1.84531 -7.295792,-2.45631 -5.600481,-0.47308 -7.95632,-0.97378 -10.135775,-2.15423 -1.61781,-0.87625 -2.719402,-1.15051 -2.719402,-0.67705 0,0.23124 0.255767,0.6244 2.448606,3.76397 2.046556,2.93013 5.332991,8.73557 5.130574,9.06308 -0.104929,0.16978 -0.805001,0.59468 -1.555718,0.94423 -1.789694,0.83332 -4.005799,0.86344 -5.568215,0.0757 -2.515278,-1.2682 -8.064353,-7.75151 -12.746439,-14.8924 -5.818968,-8.87482 -12.465538,-21.33148 -12.465538,-23.36228 0,-0.26103 0.297289,-0.87756 0.660643,-1.37006 0.808435,-1.09577 0.52702,-1.60226 -0.892887,-1.60704 -1.780789,-0.006 -8.091093,-3.19724 -10.271701,-5.1946 -0.9272,-0.84928 -1.199801,-1.56406 -1.898431,-4.97785 -0.332025,-1.6224 -0.357026,-2.25002 -0.118433,-2.97296 0.575187,-1.74283 2.497563,-2.26593 5.035953,-1.37033 1.579807,0.55739 2.959433,0.54529 2.959433,-0.026 0,-0.23995 -0.874411,-1.35151 -1.943135,-2.47013 -2.022931,-2.11737 -3.849301,-4.90702 -5.809134,-8.87301 -0.633065,-1.28109 -1.25827,-2.32926 -1.389348,-2.32926 -0.347238,0 -0.03595,22.10717 0.34073,24.19786 0.168838,0.93711 0.605123,2.21259 0.969527,2.83439 1.236002,2.10908 1.090339,5.2883 -0.306284,6.68493 -0.35585,0.35585 -0.647002,0.81106 -0.647002,1.01158 0,0.61869 2.299245,2.43317 7.699039,6.07581 8.684925,5.85874 11.856115,8.40753 12.552549,10.08886 0.301196,0.72715 0.283225,0.86261 -0.157182,1.18464 -0.634379,0.46387 -1.294457,0.45748 -3.681682,-0.0356 -2.332853,-0.48186 -6.005626,-1.70335 -10.772734,-3.58277 -1.949175,-0.76846 -3.588493,-1.35266 -3.642929,-1.29823 -0.232524,0.23253 8.364253,11.41846 9.943083,12.93772 3.704517,3.56473 9.662312,6.94039 15.639098,8.86103 1.88827,0.60679 4.271755,1.38147 5.29663,1.7215 2.331679,0.77359 5.247077,0.81357 19.0334,0.26096 z M 75.468096,216.30316 c 0,-0.22628 0.312643,-0.72405 0.694761,-1.10617 l 0.694765,-0.69476 7.137855,0.18192 c 4.392546,0.11195 7.197518,0.0854 7.292981,-0.0691 0.08532,-0.13805 -0.414646,-0.45449 -1.111034,-0.70319 -2.954918,-1.05531 -4.696746,-2.08695 -6.451354,-3.82098 -2.743136,-2.71096 -3.795294,-4.89016 -4.923847,-10.19813 -0.23944,-1.12618 -0.714447,-2.45888 -1.055568,-2.96155 -0.382063,-0.563 -0.573382,-1.15897 -0.498242,-1.55205 0.160674,-0.8405 -0.684007,-1.89283 -2.26564,-2.82259 -1.15492,-0.67892 -1.437562,-0.72838 -3.907,-0.68367 -2.557613,0.0463 -9.689545,1.10529 -11.537717,1.71316 -1.039583,0.34193 -0.911181,0.50953 0.889661,1.16125 1.561138,0.56497 3.41049,1.59369 3.878267,2.15733 0.181349,0.21851 0.787221,1.53415 1.346382,2.92364 2.080886,5.17091 7.069088,14.66154 8.560481,16.2873 0.634619,0.6918 1.255249,0.78453 1.255249,0.18756 z m 37.534394,-0.53109 c 0,-0.0791 -0.23347,-0.46845 -0.51884,-0.86515 -0.70594,-0.98138 -1.01486,-3.51053 -1.33989,-10.97003 -0.68317,-15.67889 -0.80524,-17.77235 -1.09964,-18.85848 -0.62125,-2.29197 -3.56746,-4.30104 -6.30731,-4.30104 -3.71063,0 -7.785792,3.54755 -9.63246,8.38534 -0.454217,1.18993 -0.642099,2.34811 -0.736806,4.542 -0.168966,3.91406 0.417699,6.27427 2.708783,10.89768 1.711268,3.45335 2.27139,5.34417 2.23273,7.53713 -0.01113,0.63157 0.111668,1.28021 0.272893,1.44143 0.161223,0.16123 0.926248,0.33314 1.70006,0.38203 7.41054,0.46824 8.72175,0.62779 10.35908,1.26052 1.71123,0.66129 2.3614,0.81233 2.3614,0.54857 z m 31.49154,-15.99983 c 0.46856,-0.24081 2.91995,-1.79446 5.44752,-3.45255 7.25239,-4.75761 11.53105,-9.32923 12.88319,-13.76532 0.90861,-2.98099 0.34769,-5.53981 -1.48825,-6.78912 -0.50096,-0.34089 -1.81153,-0.96954 -2.91238,-1.397 -7.60632,-2.95354 -13.82265,-0.41982 -16.15336,6.58398 -0.82196,2.46998 -0.7326,4.12186 0.43692,8.07738 1.253,4.23784 1.96844,7.13909 1.96935,7.98604 2.6e-4,0.36603 -0.29441,1.14467 -0.65512,1.73031 -0.98348,1.59677 -0.9174,1.74039 0.47213,1.02628 z M 36.297495,197.06923 c -0.201746,-0.28804 -0.974428,-1.00399 -1.717069,-1.59102 -1.567013,-1.23865 -2.795945,-2.98219 -3.581063,-5.08061 -0.770387,-2.05904 -1.010091,-3.51049 -1.203345,-7.28647 -0.177527,-3.46864 -0.471081,-5.12185 -0.963513,-5.42619 -0.402428,-0.24872 -1.280661,0.8658 -1.280661,1.62522 0,0.84785 -0.638605,1.2985 -1.527201,1.0777 -1.092488,-0.27145 -6.590106,-5.96884 -8.450322,-8.75737 -1.606689,-2.40849 -2.544213,-3.1946 -3.121481,-2.61733 -0.231726,0.23173 -0.07425,0.65051 0.642919,1.70978 1.627753,2.4042 2.257158,3.49887 4.855827,8.44529 3.23137,6.15073 5.032538,8.84358 7.979975,11.93052 2.467097,2.58386 5.733937,5.43851 7.333315,6.40804 1.041539,0.63138 1.612017,0.38964 1.032619,-0.43756 z m 23.576547,-18.94398 c 0.866765,-0.29963 2.081311,-0.84095 2.698992,-1.20293 1.671825,-0.97976 4.97134,-4.43013 7.259685,-7.59161 3.040435,-4.20054 4.590864,-6.08766 6.465981,-7.87014 2.144934,-2.03896 3.647209,-3.04733 10.083653,-6.76842 7.174516,-4.14779 8.677463,-5.15385 10.514955,-7.03861 1.760305,-1.80558 3.768902,-5.18698 4.649322,-7.82696 0.99962,-2.9974 1.40769,-6.66435 1.44167,-12.95499 0.0372,-6.87627 0.0358,-6.88212 -3.12858,-13.32918 C 94.969137,103.57835 88.473796,96.556158 80.664376,92.790087 73.591288,89.37911 67.000602,88.700459 57.89665,90.445667 c -2.134605,0.409197 -2.418482,0.410568 -3.612659,0.01744 -0.932352,-0.306941 -1.392175,-0.346858 -1.638709,-0.142252 -0.735315,0.610256 -1.475749,3.939469 -7.3915,33.234415 -1.903201,9.42471 -2.639392,12.26321 -3.193014,12.31117 -0.478659,0.0415 -1.909859,-2.11563 -2.762332,-4.16336 -1.726678,-4.14768 -1.764039,-4.45579 -1.764039,-14.54785 0,-11.03526 0.241141,-13.51334 1.99396,-20.490921 0.716292,-2.85139 1.248825,-5.23787 1.183409,-5.303289 -0.06542,-0.06542 -1.106562,0.842863 -2.313657,2.018398 -2.114278,2.058996 -3.470085,3.012111 -4.284736,3.012111 -0.742933,0 -3.601034,2.423892 -5.743761,4.871151 -5.781717,6.60346 -8.295412,11.28612 -10.679649,19.89472 -1.001016,3.61429 -2.226481,6.47306 -2.710369,6.32275 -0.186185,-0.0578 -0.578098,-0.57779 -0.87092,-1.15546 -0.484838,-0.95648 -0.531159,-1.56163 -0.518479,-6.77364 0.01519,-6.24584 0.517737,-10.03359 1.862853,-14.04061 2.91919,-8.696119 12.947234,-20.967804 20.052516,-24.539002 1.834647,-0.922116 2.987863,-1.188461 4.178593,-0.965078 1.109157,0.208079 1.567481,0.99555 1.828503,3.14165 0.344028,2.828566 0.707784,2.24641 3.20717,-5.13276 3.817301,-11.270179 6.536506,-15.431298 10.084023,-15.431298 0.772783,0 1.051189,0.179367 1.747005,1.125532 1.71652,2.334101 1.676742,3.81343 -0.268246,9.975854 -1.215292,3.850486 -1.62928,6.348036 -1.020211,6.154816 0.205529,-0.0652 1.06065,-1.129495 1.900268,-2.365093 3.28274,-4.830951 3.962006,-5.092305 13.360307,-5.140516 7.548183,-0.03872 7.703531,-0.07534 9.050318,-2.133381 0.843305,-1.288668 0.777558,-2.148237 -0.281175,-3.675991 -2.390654,-3.449715 -9.712768,-5.101579 -22.724322,-5.126589 -8.509863,-0.01637 -9.847048,0.334362 -15.705883,4.119408 -3.050444,1.97071 -4.861378,2.922391 -5.560955,2.922391 -0.286457,0 -0.876737,-0.299477 -1.311734,-0.665504 -1.859733,-1.564862 -2.217862,-0.770394 -2.464516,5.467258 -0.197623,4.997694 -0.444269,6.543473 -1.317056,8.254277 -0.855481,1.676882 -4.312673,4.779462 -5.325734,4.779462 -0.253238,0 -1.154633,-0.539057 -2.003099,-1.197906 -2.101834,-1.63211 -2.655095,-1.597078 -3.153134,0.199651 -0.213065,0.768657 -0.586834,2.116301 -0.830597,2.994766 -0.243763,0.878464 -1.198886,3.453963 -2.122495,5.72333 -4.067438,9.993953 -5.459035,16.853873 -5.459035,26.910463 0,5.47137 0.161137,7.59426 1.099384,14.48385 0.762493,5.59901 1.359285,8.33114 3.040618,13.92004 1.656406,5.50603 3.053121,8.83723 5.456284,13.01334 1.736513,3.01764 7.281189,11.40278 7.719018,11.67337 0.158233,0.0978 0.255727,-2.08198 0.258602,-5.78172 0.0063,-8.10952 0.531503,-12.60432 1.65163,-14.13502 0.325631,-0.44499 0.444722,-0.40485 1.801042,0.6071 0.798796,0.59599 1.635435,1.04599 1.859201,1.00002 0.715967,-0.1471 0.412354,-1.79071 -0.875568,-4.7399 -1.633149,-3.73973 -5.946414,-16.86992 -6.422252,-19.55025 -1.107221,-6.23681 -1.86864,-17.19564 -1.451688,-20.8936 0.7581,-6.72363 6.418231,-11.296042 8.190796,-6.61676 0.341494,0.90149 0.735635,4.68971 1.103549,10.60657 0.50849,8.17765 1.525712,14.04853 3.367016,19.4327 1.687416,4.93418 5.929192,16.16995 8.793527,23.29262 1.530834,3.80668 3.146791,8.17904 3.591017,9.71636 0.444226,1.53731 1.168587,3.51011 1.60969,4.384 0.761326,1.5083 0.79545,1.71419 0.672779,4.05943 -0.135534,2.59112 0.01645,3.10565 0.994478,3.36652 1.032244,0.27533 4.544233,-0.0813 6.10136,-0.6196 z M 218.2184,174.18888 c 0.22829,-0.25622 0.96692,-2.29612 1.6414,-4.53312 0.67447,-2.23699 1.82222,-5.54511 2.55055,-7.35137 1.92018,-4.7621 1.98027,-5.11854 3.06935,-18.20666 0.41405,-4.97584 0.9989,-8.75539 1.41997,-9.17646 0.37712,-0.37713 1.26502,1.31819 2.54175,4.85313 0.64888,1.7966 1.3071,3.39386 1.4627,3.54946 1.67875,1.67875 -0.90826,-7.44216 -5.04412,-17.78388 -2.82684,-7.06851 -5.61836,-13.36913 -10.55553,-23.82443 -4.22892,-8.955469 -4.47875,-9.533097 -4.23041,-9.781437 0.30607,-0.30607 3.28413,-0.11548 5.02705,0.321721 4.46551,1.120146 8.72961,4.455668 10.68932,8.361546 1.36985,2.73022 1.56952,2.37485 1.69989,-3.025465 0.1113,-4.610682 -0.0375,-6.253398 -0.56744,-6.265601 -0.17638,-0.004 -0.92643,0.667769 -1.66678,1.492954 l -1.3461,1.500335 -2.16215,-1.087108 c -3.35326,-1.685984 -6.39467,-2.865232 -8.69296,-3.37053 -1.80696,-0.397271 -2.41091,-0.418437 -4.3199,-0.151384 -5.6727,0.793573 -11.79924,3.764535 -16.60887,8.054195 -3.18205,2.838034 -5.27672,4.449994 -6.76146,5.203304 -1.8821,0.95492 -5.36985,1.77004 -11.64641,2.72187 -7.96857,1.20842 -10.14274,1.87105 -11.52358,3.51209 -1.08366,1.28785 -1.32429,2.64362 -1.27609,7.18981 0.0792,7.4677 0.87931,10.92389 3.94556,17.04292 3.71355,7.41078 8.08888,13.78966 12.48778,18.20616 4.49756,4.51556 7.32345,6.30755 15.31731,9.71325 9.39193,4.00132 16.32177,7.40273 19.87865,9.75712 0.76196,0.50436 1.80993,1.50796 2.32882,2.23022 1.00078,1.39301 1.64714,1.6269 2.3417,0.84736 z m 10.85376,-1.58277 c 0.8971,-1.41458 1.07721,-2.83682 0.3413,-2.6951 -0.61075,0.11762 -1.34542,1.43871 -1.56552,2.81512 -0.24306,1.52005 0.21244,1.47539 1.22422,-0.12002 z m 3.56447,-23.91388 c -0.027,-1.8374 -0.66538,-3.31965 -1.42961,-3.31965 -0.72477,0 -0.88059,0.79697 -0.41426,2.1187 0.22173,0.62846 0.40315,1.40311 0.40315,1.72145 0,0.70615 0.51172,1.26219 1.05927,1.15102 0.31123,-0.0632 0.39943,-0.44968 0.38145,-1.67152 z m 3.29554,-26.35938 c 0.10803,-0.75089 -1.04628,-2.3825 -1.68554,-2.3825 -0.42235,0 -0.51385,0.16928 -0.48005,0.88815 0.0749,1.59398 1.96373,2.89734 2.16559,1.49435 z m 20.76288,-5.51037 c 0.42016,-0.50804 0.0925,-1.63154 -0.7871,-2.69861 -0.99626,-1.20864 -1.81872,-1.29021 -1.81872,-0.18038 0,2.14455 1.67904,3.99961 2.60582,2.87899 z m -23.41967,-0.80597 c 0.11108,-0.93501 -0.44551,-2.00981 -0.773,-1.4927 -0.27824,0.43934 -0.3182,1.93375 -0.0587,2.1933 0.3422,0.3422 0.74843,-2e-5 0.83165,-0.7006 z M 174.62812,78.954298 c 1.17128,-0.396424 4.16605,-1.713043 6.65503,-2.925819 6.40583,-3.121289 6.21161,-3.076503 14.50798,-3.345521 7.15669,-0.232061 8.93815,-0.384259 9.18568,-0.784769 0.16806,-0.271925 -0.88344,-1.03361 -2.66724,-1.932093 -2.2772,-1.147003 -7.08089,-6.590819 -10.3312,-11.707921 -1.19916,-1.887879 -1.64436,-1.935467 -3.47908,-0.371896 -1.82771,1.557595 -2.83973,2.040364 -4.88414,2.329888 -4.57439,0.647814 -11.08834,4.652021 -15.61031,9.595857 -2.33675,2.554764 -3.48097,4.81804 -3.29043,6.508526 0.16456,1.459981 0.82849,2.455495 2.07969,3.118365 1.33003,0.704638 4.98898,0.478292 7.83402,-0.484617 z m -46.7294,-5.959804 c 1.90751,-0.7248 3.82204,-2.227323 4.8203,-3.782978 0.70485,-1.098413 0.86997,-1.630781 0.88665,-2.858771 0.034,-2.502602 -0.93778,-4.083338 -5.18082,-8.427321 -2.00211,-2.049751 -3.85159,-4.141325 -4.10993,-4.647941 -0.38639,-0.757705 -0.44255,-1.340497 -0.31658,-3.285007 0.17257,-2.66359 -0.10559,-3.913009 -0.75177,-3.376728 -0.63537,0.527305 -3.48683,6.585825 -4.23648,9.001278 -1.33993,4.317377 -1.84868,9.757179 -1.19681,12.79677 0.41599,1.939676 1.50297,3.275108 3.463,4.254548 2.03138,1.015092 4.49055,1.136203 6.62244,0.32615 z M 86.823097,54.705116 c 0.361693,-0.552014 0.496847,-1.692388 0.670413,-5.656779 0.332623,-7.597298 0.380042,-7.880065 1.417756,-8.454535 0.865458,-0.479112 0.788007,-1.073181 -0.186059,-1.427119 -0.485822,-0.176529 -3.437892,-0.421844 -6.602076,-0.548628 -6.020677,-0.24124 -7.128536,-0.37026 -8.318794,-0.968792 -1.294625,-0.651014 -0.907872,-2.073749 1.34597,-4.951394 1.387767,-1.771861 2.367779,-2.451079 4.095083,-2.838176 0.677179,-0.151758 4.326936,-0.456708 8.110568,-0.677663 3.783635,-0.220955 7.148865,-0.476487 7.478289,-0.567848 0.825834,-0.229029 0.754205,-0.689882 -0.358512,-2.306591 -1.383579,-2.010262 -1.229757,-2.664426 1.604665,-6.824262 1.25601,-1.843338 2.28306,-3.441367 2.282336,-3.551175 -0.004,-0.611989 -2.215517,0.234894 -7.537748,2.886578 -6.168568,3.073351 -11.466292,6.886752 -16.090264,11.582066 -3.392851,3.445203 -5.139148,5.890406 -7.175211,10.046894 -0.957021,1.953697 -2.114651,3.922927 -2.572509,4.376068 -0.548292,0.542644 -1.55222,1.056618 -2.940921,1.505649 -2.160504,0.698587 -3.034174,1.409749 -2.296775,1.869556 0.212519,0.132515 1.290635,0.310332 2.395812,0.395147 7.815421,0.599781 12.776347,1.942272 18.855548,5.102556 3.790104,1.970292 5.049306,2.188386 5.822429,1.008448 z m 65.319643,-1.105465 c 0.48716,-0.615205 0.55654,-0.960093 0.43465,-2.160709 -0.25997,-2.560671 -1.24967,-4.072572 -5.34986,-8.172665 -8.07028,-8.070079 -19.78187,-16.499245 -27.51964,-19.806667 -4.44404,-1.899553 -6.11534,-3.536717 -4.94009,-4.839192 0.27357,-0.303187 1.40252,-1.006742 2.50876,-1.563456 2.3444,-1.179812 2.88421,-1.694184 2.46096,-2.345029 -0.81771,-1.257455 -3.37171,0.411977 -9.10202,5.949577 -5.06024,4.89006 -5.91589,5.612771 -8.53001,7.204734 l -1.71305,1.043228 3.31026,0.152645 c 2.50091,0.115324 3.60529,0.284401 4.51696,0.691538 1.31908,0.589077 2.55725,1.875146 2.8224,2.931593 0.26495,1.055654 -0.38801,3.411951 -1.24398,4.489042 -0.51494,0.647969 -0.83796,1.429401 -0.95472,2.309606 -0.33248,2.506353 -2.75841,4.73523 -4.58401,4.211655 -1.1314,-0.324481 -1.28525,0.06334 -0.69826,1.760174 0.25107,0.72578 0.50854,2.540246 0.58911,4.151629 0.0787,1.574313 0.28535,3.056913 0.4592,3.294671 0.8326,1.138647 2.1759,-0.914713 5.0728,-7.754268 5.69114,-13.43671 9.16343,-19.096808 11.43878,-18.646034 1.07796,0.213558 5.29096,2.755663 6.86427,4.141875 1.59878,1.40865 2.05413,2.284043 2.05413,3.948951 0,1.540313 -0.68956,2.985915 -3.15801,6.620456 -2.34906,3.458744 -2.22711,3.548975 1.18041,0.873436 2.81105,-2.207191 3.22303,-2.273142 5.86831,-0.939425 2.52661,1.273888 5.40181,3.496507 10.01664,7.743197 4.067,3.742555 6.29312,5.441492 7.12999,5.441492 0.26748,0 0.74719,-0.329424 1.06602,-0.732054 z m 35.12994,-2.339868 c 0,-1.014086 -8.188,-10.126021 -12.5157,-13.927965 -2.23532,-1.963768 -10.48158,-10.782063 -11.45039,-12.244708 -0.47929,-0.723593 -0.79064,-1.54257 -0.79064,-2.079708 0,-1.084767 0.0742,-1.080703 -4.25922,-0.233331 -6.6351,1.297453 -11.7515,1.175088 -16.38734,-0.391925 -1.29065,-0.436267 -2.56374,-0.793213 -2.8291,-0.793213 -1.39424,0 0.0969,1.44002 4.66228,4.502556 3.29007,2.207013 7.1062,5.644807 12.42455,11.192737 2.7086,2.825526 5.61232,5.666951 6.45272,6.314281 3.86796,2.979366 6.31828,3.305756 13.39877,1.784753 2.13597,-0.458841 2.15653,-0.458066 3.3641,0.126509 0.66825,0.323494 2.61261,1.781921 4.3208,3.240946 2.7933,2.385857 3.60917,2.953042 3.60917,2.509068 z m 33.00898,-2.343536 c 0,-0.683336 -1.21778,-1.801776 -4.39233,-4.034053 -1.02487,-0.720668 -5.21755,-3.821888 -9.31705,-6.891597 -14.20339,-10.63551 -20.84644,-14.391933 -28.59652,-16.170401 -2.56052,-0.587583 -11.01014,-1.035435 -10.53508,-0.558388 0.14641,0.147023 2.54222,1.133194 5.32403,2.19149 5.62511,2.139993 7.22054,2.880689 8.78464,4.078382 4.12983,3.16236 7.88406,7.191766 13.36664,14.346376 2.01864,2.634265 3.87169,5.044766 4.1179,5.356666 0.67821,0.859187 0.8734,0.347454 0.50145,-1.314627 -0.39506,-1.76532 -0.26092,-1.978191 1.36188,-2.161103 3.05849,-0.344736 14.50049,2.977162 17.1438,4.977277 1.3057,0.987982 2.24064,1.06308 2.24064,0.179978 z M 135.36341,19.848019 c 0,-0.07904 -0.23958,-0.613324 -0.5324,-1.187301 -0.29282,-0.573978 -0.53162,-1.317897 -0.53065,-1.653154 0.004,-1.397254 2.13708,-3.338325 4.94949,-4.504004 2.98397,-1.236787 1.82568,-1.295493 -6.99944,-0.35475 -7.55347,0.805187 -9.16099,1.066386 -10.6866,1.73642 -1.70748,0.749906 -1.31633,1.133854 1.51559,1.487672 1.34662,0.168247 2.61229,0.441912 2.81259,0.608145 0.54505,0.452353 3.42594,1.81771 6.277,2.974894 2.43248,0.987291 3.19442,1.200071 3.19442,0.892078 z"
     style="fill:#ffffff;stroke-width:0.26620141" />
</svg>
